<svg xmlns="http://www.w3.org/2000/svg" viewBox="0 0 66.67 231.06"><defs><style>.cls-1{fill:#fff;}</style></defs><title>back</title><g id="Capa_2" data-name="Capa 2"><g id="Capa_1-2" data-name="Capa 1"><path class="cls-1" d="M30.65,14.92l1.82,11.87c.41,2.74,1.73,3.65,3.45,3.65,2.94,0,5.48-2.53,5.48-7.4,0-5.38-3.65-8.33-7.41-8.63L36.73,1c7.21.61,16.75,7.31,16.75,22.13,0,16.33-9.14,22.32-19.49,22.32H9.34a49.81,49.81,0,0,0-7.82.61V32.17a24.68,24.68,0,0,1,5.68-.51C2.94,29,.1,24.15.1,17.45.1,6.39,7.41,0,15.42,0,24.35,0,29.43,6.6,30.65,14.92ZM21.31,30.44h2.23L22,20.9c-.51-3.24-2-5.68-5.58-5.68-2.64,0-5.18,1.73-5.18,6C11.26,25.77,13.5,30.44,21.31,30.44Z"/><path class="cls-1" d="M52,76.41v9.85H38.46V76.41H19.58c-4.16,0-5.27,2.24-5.27,5.58a18.48,18.48,0,0,0,.51,4.06H2C1.72,85.44.61,82.91.61,78c0-10.45,6.19-16.85,16.23-16.85H38.46V52.26H52V54.8c0,5.28,3.55,7.81,8.21,7.81h6.5v13.8Z"/><path class="cls-1" d="M36.73,128.67a20.65,20.65,0,0,0,.51-4.87c0-6.19-3.65-11.77-13.7-11.77h-22V96.61H52v14.91h-6.8c5.68,2.64,7.3,9,7.3,13.1a15.36,15.36,0,0,1-.5,4Z"/><path class="cls-1" d="M30.65,150.29l1.82,11.87c.41,2.74,1.73,3.66,3.45,3.66,2.94,0,5.48-2.54,5.48-7.41,0-5.38-3.65-8.32-7.41-8.63l2.74-13.39c7.21.61,16.75,7.3,16.75,22.12,0,16.34-9.14,22.32-19.49,22.32H9.34a49.81,49.81,0,0,0-7.82.61v-13.9A24.68,24.68,0,0,1,7.2,167c-4.26-2.64-7.1-7.51-7.1-14.2,0-11.06,7.31-17.46,15.32-17.46C24.35,135.37,29.43,142,30.65,150.29Zm-9.34,15.53h2.23L22,156.28c-.51-3.25-2-5.69-5.58-5.69-2.64,0-5.18,1.73-5.18,6C11.26,161.15,13.5,165.82,21.31,165.82Z"/><path class="cls-1" d="M18.16,202.75c-3.45.21-6.79,2.64-6.79,7.92,0,4,2.13,5.88,4.36,5.88,1.83,0,3.35-1.21,4.16-5l1.32-5.78c2.33-10.76,8.42-15,15.52-15,9.24,0,16.75,8.12,16.75,19.38,0,14.61-9.14,19.69-15,20.19l-2.34-12.78c3.35-.41,6.19-2.54,6.19-7.21,0-2.94-1.72-5.48-4.36-5.48-2.13,0-3.35,1.73-3.75,4l-1.32,6.7c-2.13,10.45-8.42,15.52-15.83,15.52-8.63,0-17-6.59-17-20.09,0-15.83,10.25-20.9,15.83-21.31Z"/></g></g></svg>