<?xml version="1.0" encoding="utf-8"?>
<!-- Generator: Adobe Illustrator 21.1.0, SVG Export Plug-In . SVG Version: 6.00 Build 0)  -->
<svg version="1.1" id="Capa_1" xmlns="http://www.w3.org/2000/svg" xmlns:xlink="http://www.w3.org/1999/xlink" x="0px" y="0px"
	 viewBox="0 0 180.7 296.5" style="enable-background:new 0 0 180.7 296.5;" xml:space="preserve">
<style type="text/css">
	.st0{opacity:0.25;fill:#FFFFFF;}
	.st1{fill:none;stroke:#000000;stroke-width:7;stroke-miterlimit:10;}
	.st2{fill:none;stroke:#000000;stroke-width:7;stroke-linecap:round;stroke-miterlimit:10;}
	.st3{fill:none;stroke:#000000;stroke-width:10;stroke-miterlimit:10;}
	.st4{stroke:#000000;stroke-miterlimit:10;}
	.st5{fill:#CCA470;}
	.st6{fill:#FFFFFF;}
	.st7{fill:url(#SVGID_25_);}
	.st8{fill:#010000;}
	.st9{fill:none;stroke:#000000;stroke-width:5;stroke-miterlimit:10;}
	.st10{fill:none;stroke:#CCA470;stroke-width:5;stroke-miterlimit:10;}
	.st11{fill:url(#SVGID_30_);}
	.st12{fill:#3698D4;}
	.st13{fill:#FFF200;}
	.st14{fill:#61BB46;}
	.st15{fill:#CE7318;}
	.st16{fill-rule:evenodd;clip-rule:evenodd;fill:#3698D4;}
	.st17{fill-rule:evenodd;clip-rule:evenodd;}
	.st18{fill:#FFE000;}
	.st19{fill:#ED1F34;}
	.st20{fill:#103B9B;}
</style>
<g>
	<polyline class="st12" points="7.3,9.9 15.7,9.9 15.7,33.7 7.7,33.6 	"/>
	<polyline class="st13" points="170.4,11 179.7,11 179.7,35.2 170.8,35.2 	"/>
	<polyline class="st14" points="8,234.7 27,234.7 24.9,294.3 9.9,295.5 	"/>
	<polyline class="st15" points="161.8,232.9 178.6,231.7 179.3,291.4 162.6,291.4 	"/>
	<path class="st16" d="M73.2,71.4c-0.4,0.1-0.7,0.2-1.2,0.3c-1,0.4-1.5,0.7-2.5,1.2c-1.2,0.6-1.9,0.8-3,1.5c-1.3,0.9-2,1.5-3.1,2.6
		c-1.4,1.3-2.2,2.1-3.5,3.6c-1.7,2-2.7,3.1-4.1,5.3c-0.8,1.2-1.2,1.8-1.8,3.1c-0.7,1.3-1,2.1-1.5,3.4c-0.7,2.1-0.9,3.3-1.3,5.5
		c-0.7,3.4-0.9,5.4-1,9c-0.1,1.5-0.1,2.3,0,3.8c0.1,1.9,0.3,3,0.8,4.8c0.4,1.5,0.8,2.3,1.5,3.6c0.7,1.4,1.3,2.2,2.2,3.5
		c0.8,1.1,1.3,1.8,2.2,2.8c0.8,1,1.3,1.6,2.2,2.5c1,1,1.7,1.5,2.8,2.4c2.1,1.5,3.4,2.1,5.7,3.3c1.9,1,3,1.5,5,2.3
		c1.4,0.6,2.2,0.9,3.7,1.4c2.1,0.7,3.3,1.1,5.4,1.4c1.5,0.2,2.4,0.1,3.9,0.1c1.3,0,2,0,3.3-0.3c1.5-0.3,2.3-0.6,3.7-1.2
		c1.6-0.7,2.5-1.2,4-2.1c1-0.5,1.6-0.8,2.6-1.4c1.1-0.7,1.7-1.1,2.8-1.9c1.4-1,2.2-1.6,3.6-2.8c1.1-0.9,1.8-1.4,2.8-2.4
		c1.3-1.3,1.9-2.1,2.9-3.7c0.8-1.2,1.2-2,1.7-3.3c0.6-1.4,0.8-2.2,1.2-3.6c0.3-1.1,0.5-1.8,0.7-2.9c0.3-1.6,0.3-2.5,0.3-4.1
		c0.1-1.5,0-2.4,0-4c0-1.7,0.1-2.7,0-4.5c-0.1-1.6-0.2-2.4-0.5-4c-0.4-2.3-0.8-3.5-1.6-5.7c-0.6-1.6-1-2.5-1.8-4
		c-0.8-1.5-1.4-2.2-2.3-3.6c-1.2-1.7-1.8-2.6-3.2-4.2c-1.2-1.4-1.9-2.3-3.4-3.4c-1.7-1.3-2.9-1.6-4.8-2.6C96,72.5,95,71.8,93,71.2
		c-2-0.6-3.2-0.7-5.3-0.9c-2-0.2-3.2,0-5.3,0c-1.7,0-2.6,0-4.3,0.2C76.2,70.7,75.1,70.9,73.2,71.4 M36.2,51.7l0.3-9.5
		c0,0,0.1-0.4,0.3-0.6c0.2-0.2,0.6-0.1,0.6-0.1l61.2,0l1.2-1.5l46.8-0.3l0.7,73.7c0,0-0.3,0.9-0.6,1.4c-0.6,0.9-2.2,1.5-2.2,1.5
		l-6,3.5l-12,7.3c0,0-10.6,6.8-17.4,11.2c-3.8,2.4-5.9,3.8-9.6,6.2c-1,0.6-1.6,1-2.6,1.6c-1.2,0.8-1.8,1.3-3.1,1.9
		c-0.9,0.4-2.3,0.9-2.3,0.9l-53.8,0.4c0,0-0.7,0-1.1-0.2c-0.3-0.1-0.6-0.5-0.6-0.5l0.7-27l-0.2-23.7l-0.1-11.7c0,0,1.1,0.4,1.8,0.7
		c1,0.4,1.6,0.6,2.7,0.8c0.9,0.1,1.4,0.2,2.3,0.2c1,0,1.6-0.1,2.6-0.5c0.7-0.2,1.7-0.8,1.7-0.8l-2.1-4.5c0,0-0.9-1.8-1.3-3.1
		c-0.5-1.4-0.7-2.3-0.8-3.8c-0.1-1.1-0.1-1.8,0-2.9c0.1-1.2,0.1-1.9,0.3-3.1c0.3-1.3,0.6-1.9,1.2-3.1c0.4-0.8,0.6-1.3,1.1-2.1
		c0.6-1,1-1.5,1.7-2.3c0.8-0.9,1.3-1.3,2.2-2c0.9-0.6,1.5-0.9,2.5-1.4c1.4-0.6,2.2-0.9,3.6-1.3c0.9-0.2,1.5-0.4,2.4-0.5
		c1-0.1,1.5,0.2,2.5,0.1c0.7-0.1,1.7-0.2,1.7-0.3c0.4-0.1,0.4-0.6,0.3-0.9c-0.4-0.6-0.6-1.1-1.2-1.8c-0.7-0.8-1.1-1.2-1.9-1.8
		c-1.1-0.9-1.7-1.3-3-1.9c-1.1-0.5-1.8-0.7-3-0.9c-1.1-0.3-1.8-0.3-2.9-0.5c-1.4-0.2-2.2-0.2-3.6-0.2c-1.1,0-1.7,0.1-2.8,0.3
		c-1.1,0.2-1.7,0.3-2.7,0.7c-0.8,0.3-1.3,0.5-2,0.9c-0.9,0.6-1.6,1.2-2.2,1.8C37.2,51.9,36.2,51.7,36.2,51.7"/>
	<path class="st13" d="M76.4,74.8c1.6-0.4,2.6-0.6,4.3-0.9c1.5-0.2,2.3-0.3,3.7-0.3c1.1,0,1.8,0,2.9,0.1c1.2,0.1,1.9,0.2,3.1,0.3
		c1.4,0.2,2.2,0.3,3.6,0.8c1.4,0.4,2.2,0.8,3.5,1.4c1.5,0.7,2.3,1.2,3.6,2.1c1.1,0.7,1.7,1.1,2.6,1.9c0.9,0.8,1.2,1.3,2,2.1
		c1,1,1.6,1.5,2.4,2.7c0.5,0.7,0.7,1.2,1.2,1.9c0.5,0.8,0.8,1.2,1.3,2.1c0.8,1.4,1.4,2.2,1.9,3.7c0.4,1.1,0.6,1.8,0.9,3
		c0.4,1.9,0.6,2.9,0.8,4.8c0.2,1.3,0.3,2,0.4,3.3c0.2,1.8,0.2,2.8,0.1,4.5c-0.1,1.4-0.1,2.2-0.4,3.6c-0.2,1.2-0.5,1.9-0.8,3.1
		c-0.3,1.2-0.5,1.8-1,2.9c-0.4,1-0.7,1.5-1.2,2.4c-0.6,1-0.9,1.6-1.6,2.6c-0.8,1-1.3,1.5-2.2,2.4c-1.3,1.2-2.2,1.7-3.7,2.7
		c-1.7,1.2-2.5,2.1-4.3,3.1c-0.9,0.5-1.4,0.7-2.3,1.2c-1.2,0.6-1.8,1.1-3,1.5c-1.2,0.5-1.9,0.6-3.1,0.9c-1.5,0.3-2.3,0.6-3.8,0.7
		c-2,0.1-3.2-0.1-5.2-0.5c-2.3-0.4-3.6-0.8-5.9-1.5c-1.5-0.5-2.3-0.8-3.7-1.4c-1.9-0.8-2.9-1.2-4.7-2.3c-1.3-0.7-2-1.2-3.1-2.1
		c-1.7-1.3-2.5-2.2-3.9-3.8c-1-1.1-1.5-1.8-2.3-3.1c-1.2-1.7-1.8-2.7-2.6-4.6c-0.6-1.4-0.8-2.3-1.1-3.9c-0.5-2.3-0.6-3.7-0.7-6
		c0-2,0.1-3.1,0.3-5c0.3-2.2,0.5-3.5,1.2-5.7c0.6-2,0.9-3.1,1.8-5c0.7-1.5,1.1-2.3,2-3.7c1-1.6,1.7-2.4,2.9-3.9
		c1.3-1.6,1.9-2.6,3.5-3.9c1.2-0.9,2-1.3,3.3-2c1.3-0.7,2.1-1.1,3.5-1.6C74.1,75.4,74.9,75.2,76.4,74.8"/>
	<path class="st15" d="M37.6,149.9c0.2-0.2,1.4-0.2,1.4-0.2l6.9,0h14.1c0,0,4.8,0.1,7.8,0.2c2.5,0,3.9,0,6.4,0
		c2.9-0.1,4.6-0.1,7.5-0.2c2-0.1,5.1-0.2,5.1-0.2H91l1.6-0.1c0,0,0.7,0.1,0.8,0.5c0.1,0.4-0.7,0.9-0.7,0.9l-1.2,0.2l-4.5,3l-2,1.4
		l-2.3,1.7l-3.2,1.7c0,0-1.2,0.8-1.9,1.4c-0.7,0.5-1,0.7-1.7,1.2c-0.8,0.5-1.2,0.9-2,1.2c-0.8,0.3-1.3,0.2-2.2,0.3
		c-0.8,0.1-1.9,0.2-1.9,0.2s-1.1,0.3-1.7,0.6c-0.5,0.3-0.8,0.6-1.2,1c-0.8,0.6-2,1.4-2,1.4l-1.9,1.4l-2.2,1.2l-1.9,1.1
		c0,0-1.1,0.7-1.9,1c-0.9,0.5-1.5,0.5-2.3,1.1c-0.6,0.4-1.3,1.3-1.3,1.3l-1.7,1.4l-1.1,1.5l-0.8,1.8c0,0-0.5,0.8-0.9,1.1
		c-0.6,0.4-1.8,0.4-1.8,0.4l-1.9,0.1l-1.1,0.6l-1.1,1.5l-0.8,1.1l-1,1l-0.8,1.1l-0.9,0.8l-0.6,0.4c0,0-0.4,0.7-0.9,0.7
		c-0.4,0-0.8-0.6-0.8-0.6l0.6-31.2l-0.1-4.1C37.4,150.8,37.4,150.2,37.6,149.9"/>
	<path class="st14" d="M141.7,119.3l2-1.5l1.1-0.6c0,0,0.5-0.4,0.8-0.3c0.3,0.1,0.5,0.6,0.5,0.6l-0.1,2.3l0.2,1.9l-0.2,1.2l-0.9,1
		l-1,0.6c0,0-0.6,0.2-0.8,0.5c-0.4,0.5-0.4,1.6-0.4,1.6l-0.6,1l-1,1l-1.6,1c0,0-0.7,0.8-1.1,1.3c-0.4,0.5-0.6,0.8-1,1.4
		c-0.3,0.5-0.3,0.9-0.6,1.4c-0.5,0.7-1.5,1.4-1.5,1.4c-5.9,3.9-11.2,8.6-17.6,11.6c0,0-1.8,0.4-2.5,1.3c-0.4,0.5-0.9,1.4-0.9,1.4
		l-1.4,1.1c0,0-1.1,0.6-1.8,0.9c-0.6,0.2-1,0.2-1.6,0.5c-0.6,0.3-1,0.6-1.5,1.2c-0.4,0.5-0.7,1.5-0.7,1.5l-0.9,1l-1,0.9l-1.5,1
		l-2.1,0.3c0,0-1.8,0.3-3,0.4c-0.6,0-1-0.2-1.6,0c-0.4,0.2-0.6,0.5-1,0.8c-0.8,0.6-2.2,1.2-2.2,1.2l-2.5,2.4l-2.8,2.3
		c0,0-0.8,1.1-1.6,1.5c-0.6,0.3-1.7,0.5-1.7,0.5l-1.7,0.8l-1,1l-1.9,1.6l-2.3,2.2c-5.7,4.8-4.5,0.4-10.1,4.8
		c-6.4,5.1-12.5,10.2-18.8,15.3c0,0-0.8,0.4-1.3,0.6c-0.5,0.3-0.8,0.4-1.2,0.8c-0.6,0.4-0.8,0.7-1.3,1.3c-0.5,0.5-0.6,1-1.2,1.5
		c-0.4,0.3-0.7,0.5-1.1,0.6c-0.6,0.1-1-0.3-1.6-0.4c-0.7-0.1-1.1,0-1.8,0.2c-1,0.3-1.3,1.4-2.3,1.3c-0.6,0-1-0.3-1.5-0.6
		c-0.4-0.3-0.8-0.5-0.9-1.1c-0.1-0.4,0.1-0.7,0.1-1.2c0.1-1.2-0.2-1.9,0.1-3c0.2-0.8,0.4-1.2,0.7-1.9c0.4-1,0.7-1.6,1.3-2.5
		c0.7-1,2.2-2.2,2.2-2.2l1.4-1.7l1.2-1.4c0,0,0.4-0.7,0.7-1c0.5-0.4,1.5-0.5,1.5-0.5s1.1,0,1.8-0.1c0.7-0.2,1.1-0.2,1.7-0.6
		c0.7-0.5,1.4-1.9,1.4-1.9s0.7-1.9,1.6-2.8c0.8-0.8,2.3-1.6,2.3-1.6c4.4-2.8,10.8-7.4,15.2-9.7l2.5-0.4l2.5-0.4l1.5-1.1l2.5-2l3.6-2
		l3.2-1.7l3.6-2.3l3.4-2.5l3.6-3l5.2-3l2.8-2.1c6.6-2.1,9.7-6.6,15.1-10.4c0,0,2.1-1.6,3.5-2.5c1.2-0.8,1.9-1.2,3.1-1.9
		c1.1-0.6,1.7-0.9,2.8-1.5c1.1-0.5,1.7-0.8,2.7-1.4c1.1-0.6,2.8-1.8,2.8-1.8l2.4-1.5c0,0,0.9-1.1,1.7-1.6c0.5-0.3,1.3-0.6,1.3-0.6
		s1-0.3,1.6-0.6c0.3-0.1,0.7-0.4,0.7-0.4"/>
	<path class="st15" d="M60.7,186.8L61,186l2.3-1.8l2.4-1.7l2.7-1.8l2.5-2l1.7-0.8l2.4-0.9c0,0,1.6-0.6,2.6-1.1
		c0.7-0.4,1.8-1.1,1.8-1.1l1.9-2l2.3-2l0.8-1.1l1.5-0.9l2.2-0.6l1.6-1l2.8-2.3c6.8-6.8,3.6-4.6,12.9-5.9c0,0,1.1-0.6,1.4-0.1
		c0.2,0.5-0.7,1.1-0.7,1.1l-1.8,1.3l-2.3,1.3l-2.6,1.6l-2.1,1.3c-4.2,1.9-3.3,4.9-9.3,6.2c-6,4.4-12.3,11.2-19.3,15.1
		c0,0-0.6,0.5-1.1,0.8c-1.1,0.5-3,0-3,0l-3.1,0.3l-0.7-0.4"/>
	<path class="st15" d="M108.4,157c0.8-2.7,4.1-5.4,7-5.3c0,0,0.6,0.2,0.6,0.5c0.1,0.4-0.7,0.7-0.7,0.7c-2.8,1.4-3.6,3.4-6,4.6
		c0,0-0.9,0.4-1,0C108.2,157.3,108.4,157,108.4,157"/>
	<path class="st15" d="M117.6,149.5c0.2-0.4,0.5-0.5,1-0.6c0.4-0.1,1,0.1,1,0.1l0.5,0.4l-1,1l-1.2,1.1l-0.2-1.1
		C117.6,150.4,117.5,149.9,117.6,149.5"/>
	<path class="st14" d="M136.4,138.5c0,0,0.9-1.1,1.7-1.6c0.6-0.4,1.7-0.8,1.7-0.8l1.3-1.3l1-0.4c0,0,0.9-0.3,1.5-0.3
		c0.5,0,0.8,0.1,1.2,0.4c0.4,0.3,0.7,1.3,0.7,1.3l0.7,1.1c0,0,0.7,0.7,0.9,1.4c0.2,0.6,0,1.5,0,1.5s-0.8,1.4-1.5,2.2
		c-0.7,0.9-2.1,2.2-2.1,2.2c-3.6,2.8-6.3,6.7-10.4,8.8c0,0-1.5,1-1.7,1c-0.2,0-2.1,1-2.1,1l-2.4,0.4l-1.5,0.8l-0.7,1.4l-1,1.7
		c0,0-1.1,1.2-1.7,1.9c-0.7,0.9-1,1.5-1.8,2.3c-0.6,0.6-1,0.7-1.7,1.2c-0.7,0.5-1.9,1.3-1.9,1.3c-3.8,3.4-8.5,5.5-12.3,9.2
		c0,0-1.2,1.3-2.2,2c-0.7,0.5-1.9,1-1.9,1l-1.8,1.1l-2.2,1.5l-1.2,1l-1.5,1.4l-1.8,1.1l-1.8,1.4l-1.9,1l-1.9,1.6
		c0,0-1.3,1.4-2.2,2.3c-0.8,0.8-2.2,2.1-2.2,2.1l-2.8,3l-2.9,2.6l-1.6,1.4l-1.7,0.9l-2,2.2l-0.9,0.9l-1.2,0.9l-2.2,0.5
		c0,0-1.6,0.3-2.5,0c-0.6-0.2-0.9-0.5-1.5-0.8c-0.3-0.2-0.6-0.1-0.8-0.4c-0.4-0.4-0.3-0.8-0.5-1.3c-0.3-0.9-0.2-2.4-0.2-2.4v-2.6
		l0.4-1.8c0,0,0.5-1,0.7-1.3c0.2-0.3,1.7-1.9,1.7-1.9l1.5-1.7l1.9-1.7l2.5-1.9l4.2-2.5l2.2-1.8l2.1-2.2l1.9-1.3l2.5-2.5l3.2-2.5
		l1.7-1.3l1.3-0.6l2.5-0.8l2-1.5l1.9-1.9l3.4-3l3.6-1.9l2.4-1.8l2.4-1.7l2.9-1.7l1.7-1.7l1.2-1.1l1.5-1.3l1.4-1.3l1.3-0.8l0.7-0.8
		l2.2-2.2l2.4-1.4l1.6-1l2.4-1l1.8-0.3l0.9-0.4l1.4-1.5l1.7-1.1c0,0,1.2-0.9,1.5-1.1c0.2-0.3,1.6-1.5,1.6-1.5"/>
	<path class="st15" d="M136.7,152.7c0.4-0.4,0.6-0.7,1.1-1c0.5-0.3,0.9-0.2,1.5-0.4c0.5-0.2,0.8-0.8,1.3-0.6
		c0.4,0.1,0.6,0.5,0.7,0.9c0.2,0.5,0,0.9-0.2,1.4c-0.3,0.6-0.6,0.8-1.2,1.1c-0.5,0.3-0.9,0.3-1.5,0.4c-0.5,0.1-0.8,0.2-1.3,0.1
		c-0.3-0.1-0.6-0.1-0.8-0.4c-0.2-0.3-0.1-0.6,0-0.9C136.3,153,136.5,152.9,136.7,152.7"/>
	<path class="st15" d="M126.9,158.1c-0.2,0,1.1-1.3,1.1-1.3l1.3-0.5l1.3-0.4l0.7-0.4l1.3-0.6c0,0,0.8-0.4,1.3-0.3
		c0.3,0.1,0.6,0.3,0.7,0.6c0.1,0.4-0.1,0.8-0.4,1.1c-0.2,0.3-0.7,0.6-0.7,0.6c-3.5,2-5.4,4.7-8,5.5c0,0-0.8,1-1.5,0.9
		c-0.3-0.1-0.5-0.1-0.7-0.4c-0.3-0.5,0.3-0.9,0.6-1.4c0.4-0.7,1.5-1.6,1.5-1.6l0.5-1C126.1,159.2,127.2,158.1,126.9,158.1"/>
	<path class="st15" d="M111.9,171.5c0.9-0.6,2.5-1.4,2.5-1.4l1.9-1.7l2.1-1.5l1.5-1.1c0,0,0.7-0.3,1.1-0.3c0.3,0.1,0.6,0.1,0.7,0.4
		c0.4,0.5-0.8,1.3-1.5,2.1c-0.6,0.7-1,1.1-1.7,1.7c-0.5,0.4-1.2,1-1.2,1c-2.9,2.5-7.7,5.6-10,8c-3,2.6-5.5,6.9-8.6,8.6
		c0,0-1.3,0.2-2.1,0.3c-1,0.1-1.6,0.5-2.5,0.1c-0.4-0.1-0.7-0.2-0.8-0.5c-0.3-0.6,0.3-1,0.7-1.5c0.4-0.5,0.7-0.7,1.2-1.1
		c0.5-0.4,1.3-0.9,1.3-0.9c3.5-2.7,7-5.2,10.4-8c0,0,0.8-0.8,1.3-1.3c0.5-0.5,0.8-0.7,1.4-1.2c0.5-0.4,0.7-0.6,1.2-1
		C111.3,172,111.5,171.8,111.9,171.5"/>
	<path class="st14" d="M135.9,155.6l2.3-0.9l1.8-0.5l2.1-0.3l2,0.1l1.5,0.9l1.3,1.1l0.4,1.8v2.1l-0.6,1.3l-2.2,1.7
		c-2.7,2.5-5,5.3-8.1,7.3c-5.7,2.7-3.5,3-6.3,7.4l-1.5,1.1L127,180l-1.7,0.6l-2.1,0.1l-0.6,0.5l-2.3,1.4l-2.1,2.5l-1.6,1.8l-2.1,1.9
		l-1.8,1.1l-1.9,1.4c-3,2-5.7,5.9-9.4,8.5c-2.9,2.6-8.1,3.1-9.4,7.2c0,0-0.5,1.2-0.9,1.9c-0.5,0.7-1.4,1.5-1.4,1.5l-2.1,1.4
		l-1.8,0.9l-1.3,1.2l-2.1,1.3l-1.3,1.6c0,0-0.9,0.7-1.2,1.4c-0.2,0.5-0.1,0.9-0.2,1.4c-0.2,0.5-0.4,0.8-0.7,1.2
		c-0.5,0.5-0.9,0.6-1.4,1c-0.4,0.3-0.5,0.6-1,0.8c-1.1,0.5-1.8-0.3-3-0.4c-1,0-1.5,0.2-2.5,0.1c-1.2,0-1.9-0.4-3.1-0.4
		c-0.7,0-1.2,0.4-1.9,0.2c-0.6-0.2-0.8-0.5-1.2-1c-0.4-0.5-0.7-0.8-0.8-1.5c-0.1-0.5-0.1-0.8,0-1.3c0.2-0.8,0.8-1,1.4-1.5
		c0.5-0.4,0.8-0.6,1.5-0.9c0.7-0.3,1.3,0,1.9-0.4c0.5-0.3,1.1-0.9,1.1-0.9l1.4-2l1.9-2.2l1.7-2l0.8-1.3l1.2-1.5l1.9-1.6l1.3-0.8
		c0,0,1.2-0.1,1.8-0.5c0.5-0.4,1-1.5,1-1.5c3.3-2.8,5.8-5.8,9.1-8.8c0,0,0.7-0.8,1.3-1.1c0.7-0.4,1.3-0.2,2.1-0.4
		c0.7-0.2,1.2-0.2,1.8-0.5c0.8-0.4,1.2-0.7,1.8-1.4c0.3-0.4,0.5-0.6,0.7-1c0.3-0.5,0.6-1.3,0.6-1.3c3.4-6,10.9-9.2,15.7-15.1
		c6.1-4.3,3.8-4.9,11.4-9.1c2.3-3.3,4-4.1,7.4-6.2"/>
	<path class="st15" d="M146.9,164.8l1.1-0.9l0.7-0.4l0.2,22.8l-0.5,0.8c0,0-9.8,0.1-16.1,0.2c-2,0-5.2,0-5.2,0h-5.7l-0.2-0.4
		l0.4-1.4l0.8-1.1l1.2-1l1.7-0.8l1.2-0.4l2.3-0.3l0.9-0.4l0.9-1l2.2-2.2l2.2-2.3l1.5-2l0.9-1.4c3.9-2.6,4.9-4,8.3-6.9"/>
	<path class="st14" d="M48.8,208.5l2.3-1.6l1.5-1.4c0,0,1-0.9,1.7-1.2c0.5-0.2,0.8-0.4,1.4-0.4c0.6-0.1,0.9-0.1,1.4,0.1
		c0.4,0.2,0.6,0.3,1,0.6c0.4,0.3,0.7,0.5,1,1c0.3,0.5,0.1,0.9,0.3,1.4c0.2,0.5,0.4,0.7,0.6,1.2c0.3,0.7,0.2,1.2,0.3,1.9
		c0.1,0.5,0.3,0.8,0.2,1.4c-0.1,0.7-0.5,0.9-0.8,1.6c-0.3,0.8-0.1,1.4-0.6,2.2c-0.3,0.6-0.6,0.9-1.2,1.3c-0.7,0.6-1.2,0.7-2,1
		c-0.5,0.2-0.8,0.2-1.2,0.5c-0.7,0.4-1,0.9-1.5,1.5c-0.4,0.5-0.9,1.3-0.9,1.3l-1.2,0.9l-1.3,0.8l-1.3,0.1c0,0-1.5,0.3-1.6,0.4
		c-0.1,0.1-1.5,1-1.5,1c-0.1,0-0.9,0.9-0.9,0.9s-0.7,0.3-1.1,0.5c-0.4,0.2-0.6,0.4-1,0.5c-0.6,0.1-0.9-0.2-1.4-0.3
		c-0.9-0.2-1.5-0.1-2.4-0.5c-0.4-0.2-0.8-0.4-1.1-0.8c-0.4-0.6-0.3-1.1-0.3-1.8c-0.1-0.7,0.1-0.6,0-1.7c0-0.1,0.4-1.6,0.4-1.6
		s0.7-0.8,1.1-1.4c0.6-0.7,1-1,1.5-1.7c0.6-0.8,0.6-1.6,1.3-2.3c0.7-0.7,2.1-1.3,2.1-1.3l1.3-1.2l1.6-1.1l1.3-0.8"/>
	<path d="M24,6.4c-0.7,0-1.1,0-1.1,0.8c0,0.4,0,0.9,0,1.3c0,3.6-0.2,7.3-0.2,13.1c0,0.8,0,2.2,0.1,2.4c0.2,0.3,1.3,1.1,1.4,1.1
		c0.1,0,0.5-0.3,4.6-0.9c1.1-0.2,1.3-0.3,1.3-0.8c0-1.2-1-2-1.4-2.1c-0.4-0.1-0.9-0.1-1.2-0.1c-0.6,0-1.2,0.1-1.7,0.1
		c-0.2,0-0.3-0.1-0.3-0.3c0-4.4-0.1-8.8-0.1-13.2C25.5,6.9,24.8,6.4,24,6.4"/>
	<path class="st17" d="M31,24.9c0,0.8,1.3,0.9,1.5,0.9c0.2,0,0.5-0.1,0.6-0.3c0.6-1.5,1-5.4,1.5-5.4c0.3,0,1.6-0.4,2.9-0.4
		c0.2,0,0.5,0,0.6,0.1c0.6,1.7,0.7,5.1,2.1,5.1c0.6,0,1.5,0,1.5-0.5c0-1.5-2.8-16.6-2.9-17.3c-0.1-0.6-2.9-0.9-3.3-0.9
		c-0.3,0-0.4,0.1-0.5,0.4C34,9.6,31,22.8,31,24.9 M36.8,10.7c0.3,2.7,1,5.5,1,6c0,0.2-0.6,0.2-0.8,0.2c-0.6,0-1.1,0.1-1.5,0.1
		c-0.2,0-0.3-0.1-0.3-0.2c0-0.3,0.9-4,1.4-6.1L36.8,10.7z"/>
	<path class="st17" d="M54.6,11.9c0-0.6,0-1.1,0-1.7c0-0.3,0-0.6,0-1c0-0.3,0.3-0.4,0.6-0.4c1.6,0,1.9,0.9,1.9,2.5
		c0,1.4-0.9,3.8-2.2,3.8c-0.3,0-0.3-0.2-0.3-0.5 M54.5,6.1c-0.5,0-2.3,0-2.6,0.5c-0.1,0.2-0.1,0.4-0.1,0.8c0,4.9-0.1,8.9-0.1,13
		c0,0.6,0.1,1.2,0.1,1.8c0,1.7,0,2,0.1,2c0.4,0.6,1.4,1,1.9,1c0.7,0,0.7-0.9,0.7-1.5c0-0.8-0.1-1.3-0.1-1.8c0-0.7,0.1-2.8,0.1-3.3
		c0-0.1,0.1-0.2,0.3-0.3c1.8-0.8,5.2-2.3,5.2-6.9c0-1.8-0.7-2.8-1.8-3.9C57.1,6.2,55.8,6.1,54.5,6.1"/>
	<path class="st17" d="M65.7,10.3c0-0.9,2.4-1.2,3-1.2c0.8,0,1.4,0.1,1.4,1c0,3.1-3.9,5.2-4.3,5.2c-0.2,0-0.2,0-0.2-0.2
		c0-0.6,0.1-1.2,0.1-1.8 M62.9,18c0,1.2,0.1,2.3,0.1,3.5c0,2.4,0,2.7,0.1,2.9c0.1,0.2,1.1,0.5,1.8,0.5c0.3,0,0.4-0.1,0.4-0.3
		c0-0.5,0.1-2.1,0.1-3.6c0-3,0-3.2,0.2-3.2c0.1,0,0.3,0.4,0.7,1c0.4,0.5,3.9,6.3,5.2,6.3c0.6,0,1.2-0.9,1.2-1.2c0-0.7-4-6.5-4-6.6
		c0-0.2,0.3-0.5,0.7-0.7c0.8-0.4,3.4-2.7,3.4-5.2c0-1.7-1.8-5-4.6-5C66,6.4,65.4,7,65.1,7c-0.5,0-0.7-0.2-1.1-0.4
		c-0.1,0-0.4,0-0.7,0.3c-0.4,0.4-0.4,4.3-0.4,5.4V18z"/>
	<path class="st17" d="M81.1,8.6c1.2,0,2,3.7,2,6c0,1.5-0.9,8.2-3.1,8.2c-1.1,0-1.7-3.7-1.7-6C78.2,15.2,79.1,8.6,81.1,8.6
		 M86.1,14.9c0-2.3-0.5-5.8-2.8-7.6c-0.2-0.2-0.3-0.2-1-0.4c-1-0.3-2-0.8-2.6-0.8c-3.1,0-4.4,7.2-4.4,9.9c0,3.9,1.4,9.2,6,9.2
		C84.9,25.2,86.1,17.6,86.1,14.9"/>
	<path class="st17" d="M92.3,12.5c0-0.6,0-1.9,0.1-2.7c0-0.2,0.2-0.2,0.6-0.2c2.1,0,2.5,3.1,2.5,4.8c0,2.1-1,5.1-2,6.5
		c-0.2,0.2-0.9,1.2-1.2,1.2c-0.1,0-0.1-0.1-0.1-1.8 M98.6,14.3c0-3.1-1.1-4.8-2.6-6.2c-1-1-3.2-1.6-4.4-1.6c-0.3,0-2.2,0-2.2,0.6
		c0,0.2,0.1,0.4,0.1,0.7c0,4.9-0.1,9.9-0.1,14.8c0,1,0.1,1.7,0.2,1.7c0.2,0.1,2.1,1.1,2.5,1.1c0.8,0,1.9-0.9,2.3-1.2
		C97.3,22,98.6,18.4,98.6,14.3"/>
	<path d="M102.4,17.6c0,2.5,0.6,5.1,1.3,5.6c1.2,1,2.7,2,4,2c3.4,0,3.8-4.2,3.8-7.4c0-2.1,0-4.3,0-6.4c0-1,0-2,0-4.2
		c0-0.5-1.6-0.7-2-0.7c-0.7,0-0.9,0-0.9,1.8c0,1.1,0.1,3,0.1,6.2c0,3.5,0,8-1.8,8c-1.5,0-1.8-1.7-1.8-4.9c0-3.3,0.3-4.9,0.3-10
		c0-0.4-1.3-0.8-2.1-0.8c-0.5,0-0.6,0.4-0.6,1.8C102.8,9.2,102.4,14.4,102.4,17.6"/>
	<path d="M114.9,17.9c0,3.1,0.8,7.3,4.6,7.3c3.4,0,4.4-4,4.4-6.1c0-1.2-0.6-1.7-1.4-1.7c-1.4,0-1.4,5.6-3.3,5.6
		c-1.2,0-1.2-5-1.2-6.1c0-2.4,1.1-8,1.8-8c1.1,0,0,4.5,2.5,4.5c1.1,0,1.1-0.5,1.1-2.7c0-2-0.2-3.1-1.7-3.7c-0.3-0.1-1.2-1-2.2-1
		C116,6.1,114.9,14.8,114.9,17.9"/>
	<path d="M126.5,17.9c0,3.1,0.8,7.3,4.6,7.3c3.4,0,4.4-4,4.4-6.1c0-1.2-0.6-1.7-1.4-1.7c-1.4,0-1.4,5.6-3.3,5.6
		c-1.2,0-1.2-5-1.2-6.1c0-2.4,1.1-8,1.8-8c1.1,0,0,4.5,2.5,4.5c1.1,0,1.1-0.5,1.1-2.7c0-2-0.2-3.1-1.7-3.7c-0.3-0.1-1.2-1-2.2-1
		C127.5,6.1,126.5,14.8,126.5,17.9"/>
	<path d="M139.2,23.7c0,0.6,1.9,1.4,2.2,1.4c0.7,0,0.6-0.5,0.6-1.6c0-4.1,0-8.2,0-12.3c0-1.4,0-2.8,0-4.3c0-0.4-0.8-0.9-1.5-0.9
		c-1,0-1.2,0.1-1.2,1.5c0,1.6-0.1,3.2-0.1,4.8"/>
	<path class="st17" d="M153.8,1c-0.3,0-4.7,2.4-4.8,2.6c-0.1,0.1-0.2,0.2-0.2,0.3c0,0.2,0.1,0.8,0.5,0.8c0.4,0,4.2-1.7,5-1.9
		c0.3-0.1,0.3-0.2,0.3-0.4C154.6,2,154.3,1,153.8,1 M151.6,8.6c1.2,0,2,3.7,2,6c0,1.5-0.9,8.2-3.1,8.2c-1.1,0-1.7-3.7-1.7-6
		C148.8,15.2,149.7,8.6,151.6,8.6 M156.6,14.9c0-2.3-0.5-5.8-2.8-7.6c-0.2-0.2-0.3-0.2-1-0.4c-1-0.3-2-0.8-2.6-0.8
		c-3.1,0-4.4,7.2-4.4,9.9c0,3.9,1.4,9.2,6,9.2C155.4,25.2,156.6,17.6,156.6,14.9"/>
	<path d="M17.1,225.4c3,0,7-0.9,7-4.8c0-3.5-3.8-4.6-5.8-4.6c-1.2,0-1.6,0.6-1.6,1.5c0,1.5,5.4,1.5,5.4,3.5c0,1.2-4.8,1.2-5.8,1.2
		c-2.3,0-7.6-1.1-7.6-1.9c0-1.1,4.3,0,4.3-2.6c0-1.2-0.5-1.2-2.6-1.2c-1.9,0-3,0.3-3.5,1.7c-0.1,0.3-1,1.3-1,2.3
		C5.9,224.2,14.2,225.4,17.1,225.4"/>
	<path class="st17" d="M8.2,207.8c0-1.2,3.6-2.1,5.8-2.1c1.5,0,7.8,0.9,7.8,3.3c0,1.1-3.6,1.7-5.8,1.7
		C14.6,210.8,8.2,209.8,8.2,207.8 M14.3,202.5c-2.2,0-5.6,0.5-7.3,2.9c-0.1,0.2-0.2,0.4-0.4,1c-0.3,1.1-0.8,2.1-0.8,2.7
		c0,3.3,6.9,4.6,9.5,4.6c3.8,0,8.8-1.5,8.8-6.3C24.1,203.8,16.9,202.5,14.3,202.5"/>
	<path d="M18.2,196.1c-0.7,0-1.7,0-2.1,0.1c-0.4,0-0.8,0-1,0c-0.6,0-0.7,0-0.7-0.1c0-0.1,5.7-2.7,8.4-4.2c0.4-0.2,0.5-0.4,0.5-0.8
		c0-0.4,0-0.9,0-1.3c0-0.6-0.2-0.7-2.2-0.7H7.3c-0.7,0-1.1,0.1-1.1,0.3c-0.2,0.6-0.3,1.4-0.3,1.7c0,0.6,0.3,0.7,1.1,0.7
		c2.6,0,5.3,0.2,7.9,0.2c0.7,0,1.3-0.1,2-0.1c0.2,0,0.4,0,0.4,0.1c0,0.1-0.9,0.4-1.8,0.8c-3.4,1.7-7.8,2.8-8,3.4
		c-0.3,1-0.5,1.5-0.5,1.9c0,0.5,0.2,0.6,1,0.6c2.8,0,5.7,0.2,8.5,0.2h3.9c0.5,0,1.1-0.1,1.7-0.1c0.7,0,1.4,0,1.5-0.2
		c0.1-0.4,0.6-1.2,0.6-1.6c0-0.8-0.4-1-1.1-1"/>
	<path d="M11.5,185c4,0,5.2-5,8.3-5c1.1,0,1.7,0.1,1.7,1.3c0,1.6-2.9,3.1-2.9,4.3c0,0.5,0.4,0.6,0.7,0.6c2.8,0,4.8-3,4.8-5.7
		c0-1.8-2.3-4.1-4-4.1c-4.4,0-6,5.6-8.9,5.6c-1.1,0-2.4-1.5-2.4-1.9c0-0.2,0.1-0.2,0.4-0.2c2.9,0,3.7-1.1,3.7-2.4
		c0-1-0.8-1.1-1.7-1.1c-2.2,0-3.4,0.5-4.5,2.3c-0.6,1.1-0.8,1.6-0.8,1.8C5.9,181.4,7.4,185,11.5,185"/>
	<path d="M21.7,172.9c1.5,0,2.4-0.8,2.4-2.4c0-0.7-0.7-4.3-0.7-4.7c0-0.4-0.1-0.6-0.6-0.6c-1.7,0-2.3,1-2.3,1.5
		c0,0.3,0.5,2.6,0.5,3.2c0,0.4-0.2,0.5-0.6,0.5h-3.1c-1,0-1.2-0.1-1.2-1.2c0-1.2-0.2-1.9-0.2-2.9c0-0.2-0.1-0.6-0.4-0.6
		c-2,0-2.3,0.5-2.3,1.3c0,1.9,0.2,2.7,0.2,3.2c0,0.1-0.1,0.1-0.2,0.1c-0.6,0-2.4-0.1-3.2-0.1c-0.6,0-0.8-0.1-0.8-1.3
		c0-2.4-0.4-3-1-3c-0.9,0-1.9,0.8-1.9,1.5c0,1.3,0.4,2.7,0.4,4c0,0.3-0.1,0.6-0.1,0.8c0,0.5,0.5,0.7,1,0.8
		C11.7,172.9,17.4,172.9,21.7,172.9"/>
	<path d="M6.2,159.6c0,0.7,0,1.1,0.8,1.1c0.4,0,0.8,0,1.3,0c3.5,0,7,0.2,12.5,0.2c0.8,0,2.1,0,2.3-0.1c0.3-0.2,1.1-1.4,1.1-1.5
		c0-0.1-0.2-0.5-0.9-4.8c-0.2-1.2-0.3-1.4-0.7-1.4c-1.2,0-1.9,1.1-2,1.4c-0.1,0.5-0.1,1-0.1,1.3c0,0.6,0.1,1.2,0.1,1.8
		c0,0.2-0.1,0.3-0.3,0.3c-4.2,0-8.4,0.1-12.6,0.1C6.6,158,6.2,158.6,6.2,159.6"/>
	<path d="M6.2,149.4c0,0.7,0,1.1,0.8,1.1c0.4,0,0.8,0,1.3,0c3.5,0,7,0.2,12.5,0.2c0.8,0,2.1,0,2.3-0.1c0.3-0.2,1.1-1.4,1.1-1.5
		c0-0.1-0.2-0.5-0.9-4.8c-0.2-1.2-0.3-1.4-0.7-1.4c-1.2,0-1.9,1.1-2,1.4c-0.1,0.5-0.1,1-0.1,1.3c0,0.6,0.1,1.2,0.1,1.8
		c0,0.2-0.1,0.3-0.3,0.3c-4.2,0-8.4,0.1-12.6,0.1C6.6,147.8,6.2,148.5,6.2,149.4"/>
	<path d="M17.1,136.9c3,0,7-0.9,7-4.8c0-3.5-3.8-4.6-5.8-4.6c-1.2,0-1.6,0.6-1.6,1.5c0,1.5,5.4,1.5,5.4,3.5c0,1.2-4.8,1.2-5.8,1.2
		c-2.3,0-7.6-1.1-7.6-1.9c0-1.1,4.3,0,4.3-2.6c0-1.2-0.5-1.2-2.6-1.2c-1.9,0-3,0.3-3.5,1.7c-0.1,0.3-1,1.3-1,2.3
		C5.9,135.8,14.2,136.9,17.1,136.9"/>
	<path class="st17" d="M23.8,125.4c0.7,0,0.9-1.4,0.9-1.6c0-0.2-0.1-0.6-0.3-0.7c-1.4-0.7-5.2-1-5.2-1.6c0-0.3-0.4-1.7-0.4-3
		c0-0.2,0-0.5,0.1-0.7c1.6-0.6,4.9-0.8,4.9-2.2c0-0.7,0-1.6-0.5-1.6c-1.4,0-15.9,2.9-16.5,3c-0.6,0.1-0.9,3-0.9,3.5
		c0,0.3,0.1,0.5,0.4,0.6C9.3,122.3,21.9,125.4,23.8,125.4 M10.3,119.3c2.5-0.4,5.2-1.1,5.7-1.1c0.2,0,0.2,0.7,0.2,0.9
		c0,0.6,0.1,1.2,0.1,1.5c0,0.2-0.1,0.3-0.2,0.3c-0.3,0-3.9-1-5.8-1.5L10.3,119.3z"/>
	<path d="M19.6,107.1c-7.7,0-8.9-0.1-10-0.1c-0.3,0-0.6,0-0.6-0.2c-0.1-0.5-0.1-2-0.3-2.4c-0.3-0.6-0.9-0.7-1.5-0.7
		c-0.5,0-1.2,0.7-1.2,1.2c0,0.8,0.8,7,1.2,7.9c0.1,0.2,0.3,0.2,0.5,0.2c0.5,0,2.1-0.6,2.1-1.3c0-0.5-0.2-1.1-0.2-1.6
		c0-0.2,0.2-0.2,0.6-0.2c3.4,0,6.8,0.1,10.2,0.1c1.8,0,3.2,0,3.4-0.3c0.1-0.1,0.5-0.8,0.5-1.7c0-0.8-0.2-0.9-0.7-0.9
		c-0.5,0-0.9,0.1-1.3,0.1C21.5,107.2,21,107.1,19.6,107.1"/>
	<path class="st17" d="M23.8,103.2c0.7,0,0.9-1.4,0.9-1.6c0-0.2-0.1-0.6-0.3-0.7c-1.4-0.7-5.2-1-5.2-1.6c0-0.3-0.4-1.7-0.4-3
		c0-0.2,0-0.5,0.1-0.6c1.6-0.6,4.9-0.8,4.9-2.2c0-0.6,0-1.6-0.5-1.6c-1.4,0-15.9,2.9-16.5,3c-0.6,0.1-0.9,3-0.9,3.5
		c0,0.3,0.1,0.5,0.4,0.6C9.3,100.1,21.9,103.2,23.8,103.2 M10.3,97.1c2.5-0.4,5.2-1.1,5.7-1.1c0.2,0,0.2,0.7,0.2,0.9
		c0,0.6,0.1,1.2,0.1,1.5c0,0.2-0.1,0.3-0.2,0.3c-0.3,0-3.9-1-5.8-1.5L10.3,97.1z"/>
	<path d="M6.2,87.4c0,0.7,0,1.1,0.8,1.1c0.4,0,0.8,0,1.3,0c3.5,0,7,0.2,12.5,0.2c0.8,0,2.1,0,2.3-0.1c0.3-0.2,1.1-1.4,1.1-1.5
		c0-0.1-0.2-0.5-0.9-4.8c-0.2-1.2-0.3-1.4-0.7-1.4c-1.2,0-1.9,1.1-2,1.4c-0.1,0.5-0.1,1-0.1,1.3c0,0.6,0.1,1.2,0.1,1.8
		c0,0.2-0.1,0.3-0.3,0.3c-4.2,0-8.4,0.1-12.6,0.1C6.6,85.8,6.2,86.5,6.2,87.4"/>
	<path class="st17" d="M1,76.4c0,0.5,1,0.8,1.3,0.8c0.3,0,0.3-0.1,0.4-0.3c0.2-0.8,1.8-4.8,1.8-5.2c0-0.4-0.6-0.5-0.8-0.5
		c-0.1,0-0.2,0.1-0.3,0.2C3.3,71.5,1,76.1,1,76.4 M23.8,80.1c0.7,0,0.9-1.4,0.9-1.6c0-0.2-0.1-0.6-0.3-0.7c-1.4-0.7-5.2-1-5.2-1.6
		c0-0.3-0.4-1.7-0.4-3c0-0.2,0-0.5,0.1-0.6c1.6-0.6,4.9-0.8,4.9-2.2c0-0.7,0-1.6-0.5-1.6c-1.4,0-15.9,2.9-16.5,3
		c-0.6,0.1-0.9,3-0.9,3.5c0,0.3,0.1,0.5,0.4,0.6C9.3,76.9,21.9,80.1,23.8,80.1 M10.3,74c2.5-0.4,5.2-1.1,5.7-1.1
		c0.2,0,0.2,0.7,0.2,0.9c0,0.6,0.1,1.2,0.1,1.5c0,0.2-0.1,0.3-0.2,0.3c-0.3,0-3.9-1-5.8-1.5L10.3,74z"/>
	<path class="st17" d="M12,55.4c-0.6,0-1.9,0-2.5-0.1c-0.1,0-0.2-0.3-0.2-0.6c0-2.2,3-2.7,4.6-2.7c2,0,4.9,1,6.2,2.1
		c0.2,0.2,1.2,0.9,1.2,1.2c0,0.1-0.1,0.1-1.7,0.1 M13.7,48.8c-3,0-4.6,1.1-5.9,2.7c-0.9,1.1-1.5,3.3-1.5,4.6c0,0.3,0,2.3,0.5,2.3
		c0.1,0,0.3-0.1,0.7-0.1c4.7,0,9.4,0.1,14.2,0.1c1,0,1.6-0.1,1.7-0.2c0.1-0.2,1.1-2.2,1.1-2.7c0-0.8-0.9-2-1.2-2.4
		C21.1,50.2,17.6,48.8,13.7,48.8"/>
	<path d="M21.7,44.8c1.5,0,2.4-0.8,2.4-2.4c0-0.7-0.7-4.3-0.7-4.7c0-0.4-0.1-0.6-0.6-0.6c-1.7,0-2.3,1-2.3,1.5
		c0,0.3,0.5,2.6,0.5,3.1c0,0.4-0.2,0.5-0.6,0.5h-3.1c-1,0-1.2-0.1-1.2-1.2c0-1.2-0.2-1.9-0.2-2.9c0-0.2-0.1-0.6-0.4-0.6
		c-2,0-2.3,0.5-2.3,1.3c0,1.9,0.2,2.7,0.2,3.2c0,0.1-0.1,0.1-0.2,0.1c-0.6,0-2.4-0.1-3.2-0.1c-0.6,0-0.8-0.1-0.8-1.3
		c0-2.4-0.4-3-1-3c-0.9,0-1.9,0.8-1.9,1.5c0,1.3,0.4,2.7,0.4,4c0,0.3-0.1,0.6-0.1,0.8c0,0.5,0.5,0.7,1,0.8
		C11.7,44.8,17.4,44.8,21.7,44.8"/>
	<path class="st17" d="M155.7,36c-0.7,0-0.8,1.3-0.8,1.5c0,0.2,0.1,0.5,0.3,0.6c1.4,0.6,4.9,1,4.9,1.5c0,0.3,0.4,1.6,0.4,2.8
		c0,0.2,0,0.5,0,0.6c-1.5,0.6-4.6,0.7-4.6,2c0,0.6,0,1.5,0.5,1.5c1.3,0,15-2.7,15.6-2.8c0.5-0.1,0.8-2.8,0.8-3.3
		c0-0.3-0.1-0.4-0.4-0.5C169.5,39,157.6,36,155.7,36 M168.5,41.8c-2.4,0.3-4.9,1-5.4,1c-0.2,0-0.2-0.6-0.2-0.8
		c0-0.6-0.1-1.1-0.1-1.5c0-0.2,0.1-0.3,0.2-0.3c0.3,0,3.6,0.9,5.5,1.4L168.5,41.8z"/>
	<path d="M163,48.9c-3.3,0-7.6,1.1-7.6,5.3c0,3.2,4.5,4.9,7,4.9c0.7,0,1.3-0.8,1.3-1.6c0-0.8-0.6-5-1-5c-0.3,0-1.7,0.5-1.7,2.2
		c0,0.2,0.1,0.5,0.1,0.7c0,0.2,0,0.5-0.3,0.5c-1,0-3.5-1.1-3.5-2.5c0-1.5,4.7-1.7,5.8-1.7c3.6,0,7.4,2.2,7.4,3.3
		c0,0.2-0.4,0.2-0.6,0.2c-0.8,0-1.6-0.1-2.4-0.1c-1.3,0-2,0.2-2,1.7c0,1.2,0.8,1.4,2.3,1.4c2.1,0,3.2-0.1,4.1-2.2
		c0.3-0.7,0.9-1.4,0.9-1.8C172.7,51.5,167.6,48.9,163,48.9"/>
	<path class="st17" d="M168.9,65.3c0.8,0,1.1,2.4,1.1,3c0,0.8,0,1.4-0.9,1.4c-2.8,0-4.7-3.8-4.7-4.2c0-0.2,0-0.2,0.2-0.2
		c0.5,0,1.1,0,1.6,0 M161.9,62.6c-1.1,0-2.1,0.1-3.1,0.1c-2.2,0-2.4,0-2.7,0.1c-0.2,0.1-0.4,1.1-0.4,1.8c0,0.3,0.1,0.4,0.2,0.4
		c0.5,0,1.9,0.1,3.2,0.1c2.7,0,2.9,0,2.9,0.2c0,0.1-0.4,0.3-0.9,0.7c-0.5,0.4-5.7,3.9-5.7,5.1c0,0.6,0.8,1.2,1.1,1.2
		c0.7,0,5.9-3.9,6-3.9c0.2,0,0.4,0.3,0.6,0.7c0.4,0.8,2.4,3.4,4.7,3.4c1.6,0,4.5-1.8,4.5-4.6c0-2.3-0.5-2.9-0.5-3.2
		c0-0.4,0.2-0.7,0.3-1.1c0-0.1,0-0.4-0.3-0.7c-0.4-0.4-3.9-0.4-4.9-0.4H161.9z"/>
	<path class="st17" d="M177.3,77.8c0-0.5-0.9-0.8-1.2-0.8c-0.3,0-0.3,0.1-0.4,0.3c-0.2,0.8-1.7,4.5-1.7,4.9c0,0.4,0.5,0.5,0.8,0.5
		c0.1,0,0.2-0.1,0.3-0.2C175.1,82.4,177.3,78,177.3,77.8 M155.7,74.3c-0.7,0-0.8,1.3-0.8,1.5c0,0.2,0.1,0.5,0.3,0.6
		c1.4,0.6,4.9,1,4.9,1.5c0,0.3,0.4,1.6,0.4,2.8c0,0.2,0,0.5,0,0.6c-1.5,0.6-4.6,0.7-4.6,2c0,0.6,0,1.5,0.5,1.5
		c1.3,0,15-2.7,15.6-2.8c0.5-0.1,0.8-2.8,0.8-3.3c0-0.3-0.1-0.4-0.4-0.5C169.5,77.3,157.6,74.3,155.7,74.3 M168.5,80.1
		c-2.4,0.3-4.9,1-5.4,1c-0.2,0-0.2-0.6-0.2-0.8c0-0.6-0.1-1.1-0.1-1.4c0-0.2,0.1-0.3,0.2-0.3c0.3,0,3.6,0.9,5.5,1.4L168.5,80.1z"/>
	<path class="st17" d="M168.9,90.9c0.8,0,1.1,2.4,1.1,3c0,0.8,0,1.4-0.9,1.4c-2.8,0-4.7-3.8-4.7-4.2c0-0.2,0-0.2,0.2-0.2
		c0.5,0,1.1,0,1.6,0 M161.9,88.1c-1.1,0-2.1,0.1-3.1,0.1c-2.2,0-2.4,0-2.7,0.1c-0.2,0.1-0.4,1.1-0.4,1.8c0,0.3,0.1,0.4,0.2,0.4
		c0.5,0,1.9,0.1,3.2,0.1c2.7,0,2.9,0,2.9,0.2c0,0.1-0.4,0.3-0.9,0.7c-0.5,0.4-5.7,3.9-5.7,5.1c0,0.6,0.8,1.2,1.1,1.2
		c0.7,0,5.9-3.9,6-3.9c0.2,0,0.4,0.3,0.6,0.7c0.4,0.8,2.4,3.4,4.7,3.4c1.6,0,4.5-1.8,4.5-4.6c0-2.3-0.5-2.9-0.5-3.2
		c0-0.4,0.2-0.7,0.3-1.1c0-0.1,0-0.4-0.3-0.7c-0.4-0.4-3.9-0.4-4.9-0.4H161.9z"/>
	<path d="M156.8,101.6c-0.6,0-1.3,1.8-1.3,2.1c0,0.7,0.5,0.6,1.5,0.6c3.7,0,7.4,0,11.1,0c1.3,0,2.6,0,3.9,0c0.4,0,0.8-0.8,0.8-1.5
		c0-1-0.1-1.2-1.4-1.2c-1.4,0-2.9-0.1-4.3-0.1"/>
	<path class="st17" d="M155.7,107.6c-0.7,0-0.8,1.3-0.8,1.5c0,0.2,0.1,0.5,0.3,0.6c1.4,0.6,4.9,1,4.9,1.5c0,0.3,0.4,1.6,0.4,2.8
		c0,0.2,0,0.5,0,0.6c-1.5,0.6-4.6,0.7-4.6,2c0,0.6,0,1.5,0.5,1.5c1.3,0,15-2.7,15.6-2.8c0.5-0.1,0.8-2.8,0.8-3.3
		c0-0.3-0.1-0.4-0.4-0.5C169.5,110.6,157.6,107.6,155.7,107.6 M168.5,113.3c-2.4,0.3-4.9,1-5.4,1c-0.2,0-0.2-0.6-0.2-0.8
		c0-0.6-0.1-1.1-0.1-1.5c0-0.2,0.1-0.3,0.2-0.3c0.3,0,3.6,0.9,5.5,1.4L168.5,113.3z"/>
	<path d="M157.8,125.7c-1.4,0-2.3,0.8-2.3,2.3c0,0.7,0.7,4.1,0.7,4.5c0,0.4,0.1,0.6,0.5,0.6c1.6,0,2.1-1,2.1-1.4
		c0-0.3-0.5-2.5-0.5-3c0-0.4,0.2-0.4,0.6-0.4h2.9c1,0,1.1,0.1,1.1,1.2c0,1.2,0.2,1.8,0.2,2.8c0,0.2,0.1,0.6,0.4,0.6
		c1.9,0,2.2-0.4,2.2-1.3c0-1.8-0.2-2.6-0.2-3c0-0.1,0.1-0.1,0.2-0.1c0.6,0,2.2,0.1,3,0.1c0.6,0,0.8,0.1,0.8,1.3
		c0,2.2,0.4,2.9,0.9,2.9c0.8,0,1.8-0.8,1.8-1.4c0-1.2-0.4-2.5-0.4-3.8c0-0.3,0.1-0.5,0.1-0.8c0-0.5-0.5-0.7-0.9-0.7
		C167.2,125.7,161.8,125.7,157.8,125.7"/>
	<path d="M162.1,136.2c-2.8,0-6.6,0.8-6.6,4.6c0,3.3,3.6,4.4,5.5,4.4c1.1,0,1.6-0.6,1.6-1.4c0-1.4-5.1-1.4-5.1-3.3
		c0-1.2,4.5-1.2,5.5-1.2c2.2,0,7.2,1.1,7.2,1.8c0,1.1-4.1,0-4.1,2.4c0,1.1,0.5,1.1,2.5,1.1c1.8,0,2.8-0.2,3.3-1.7
		c0.1-0.3,0.9-1.2,0.9-2.2C172.7,137.3,164.9,136.2,162.1,136.2"/>
	<path class="st17" d="M170.5,153.3c0,1.2-3.4,1.9-5.5,1.9c-1.4,0-7.4-0.9-7.4-3.1c0-1.1,3.4-1.7,5.5-1.7
		C164.5,150.5,170.5,151.4,170.5,153.3 M164.7,158.3c2.1,0,5.3-0.5,6.9-2.8c0.1-0.2,0.2-0.3,0.4-1c0.3-1,0.8-2,0.8-2.6
		c0-3.1-6.5-4.4-9-4.4c-3.6,0-8.3,1.4-8.3,5.9C155.5,157.1,162.3,158.3,164.7,158.3"/>
	<path d="M172.4,162.9c0-0.7,0-1.1-0.8-1.1c-0.4,0-0.8,0-1.2,0c-3.3,0-6.6-0.2-11.8-0.2c-0.7,0-2,0-2.2,0.1c-0.3,0.2-1,1.3-1,1.4
		c0,0.1,0.2,0.5,0.8,4.6c0.2,1.1,0.3,1.3,0.7,1.3c1.1,0,1.8-1,1.9-1.4c0.1-0.4,0.1-0.9,0.1-1.2c0-0.6-0.1-1.2-0.1-1.7
		c0-0.2,0.1-0.3,0.3-0.3c4,0,8-0.1,12-0.1C172,164.4,172.4,163.8,172.4,162.9"/>
	<path class="st17" d="M177.3,173.2c0-0.5-0.9-0.8-1.2-0.8c-0.3,0-0.3,0.1-0.4,0.3c-0.2,0.8-1.7,4.5-1.7,4.9c0,0.4,0.5,0.5,0.8,0.5
		c0.1,0,0.2-0.1,0.3-0.2C175.1,177.8,177.3,173.5,177.3,173.2 M170.5,176.1c0,1.2-3.4,1.9-5.5,1.9c-1.4,0-7.4-0.9-7.4-3.1
		c0-1.1,3.4-1.6,5.5-1.6C164.5,173.3,170.5,174.2,170.5,176.1 M164.7,181.1c2.1,0,5.3-0.5,6.9-2.8c0.1-0.2,0.2-0.3,0.4-1
		c0.3-1,0.8-2,0.8-2.6c0-3.1-6.5-4.4-9-4.4c-3.6,0-8.3,1.4-8.3,5.9C155.5,179.9,162.3,181.1,164.7,181.1"/>
	<path d="M163,183.6c-3.3,0-7.6,1.1-7.6,5.3c0,3.2,4.5,4.9,7,4.9c0.7,0,1.3-0.8,1.3-1.6c0-0.8-0.6-5-1-5c-0.3,0-1.7,0.5-1.7,2.2
		c0,0.2,0.1,0.5,0.1,0.7c0,0.2,0,0.5-0.3,0.5c-1,0-3.5-1.1-3.5-2.5c0-1.5,4.7-1.7,5.8-1.7c3.6,0,7.4,2.2,7.4,3.3
		c0,0.2-0.4,0.2-0.6,0.2c-0.8,0-1.6-0.1-2.4-0.1c-1.3,0-2,0.2-2,1.7c0,1.2,0.8,1.4,2.3,1.4c2.1,0,3.2-0.1,4.1-2.2
		c0.3-0.7,0.9-1.4,0.9-1.8C172.7,186.2,167.6,183.6,163,183.6"/>
	<path d="M156.8,197.6c-0.6,0-1.3,1.8-1.3,2.1c0,0.7,0.5,0.6,1.5,0.6c3.7,0,7.4,0,11.1,0c1.3,0,2.6,0,3.9,0c0.4,0,0.8-0.8,0.8-1.5
		c0-1-0.1-1.2-1.4-1.2c-1.4,0-2.9-0.1-4.3-0.1"/>
	<path d="M162.1,204.1c-2.8,0-6.6,0.8-6.6,4.6c0,3.3,3.6,4.4,5.5,4.4c1.1,0,1.6-0.6,1.6-1.4c0-1.4-5.1-1.4-5.1-3.3
		c0-1.2,4.5-1.2,5.5-1.2c2.2,0,7.2,1.1,7.2,1.8c0,1.1-4.1,0-4.1,2.4c0,1.1,0.5,1.1,2.5,1.1c1.8,0,2.8-0.2,3.3-1.7
		c0.1-0.3,0.9-1.2,0.9-2.2C172.7,205.2,164.9,204.1,162.1,204.1"/>
	<path class="st17" d="M155.7,215c-0.7,0-0.8,1.3-0.8,1.5c0,0.2,0.1,0.5,0.3,0.6c1.4,0.6,4.9,1,4.9,1.5c0,0.3,0.4,1.6,0.4,2.8
		c0,0.2,0,0.5,0,0.6c-1.5,0.6-4.6,0.7-4.6,2c0,0.6,0,1.5,0.5,1.5c1.3,0,15-2.7,15.6-2.8c0.5-0.1,0.8-2.8,0.8-3.3
		c0-0.3-0.1-0.4-0.4-0.5C169.5,218,157.6,215,155.7,215 M168.5,220.7c-2.4,0.3-4.9,1-5.4,1c-0.2,0-0.2-0.6-0.2-0.8
		c0-0.6-0.1-1.1-0.1-1.5c0-0.2,0.1-0.3,0.2-0.3c0.3,0,3.6,0.9,5.5,1.4L168.5,220.7z"/>
	<path d="M38.7,255.7c0,5.7,1.5,13.3,8.4,13.3c6.2,0,8.1-7.2,8.1-11c0-2.3-1.1-3.1-2.6-3.1c-2.5,0-2.5,10.3-6.1,10.3
		c-2.1,0-2.1-9-2.1-11c0-4.4,1.9-14.5,3.3-14.5c1.9,0,0,8.2,4.5,8.2c2,0,2-1,2-5c0-3.6-0.5-5.7-3-6.7c-0.5-0.2-2.3-1.8-4-1.8
		C40.7,234.3,38.7,250.1,38.7,255.7"/>
	<path d="M62,255.7c0,5.7,1.5,13.3,8.4,13.3c6.2,0,8.1-7.2,8.1-11c0-2.3-1.1-3.1-2.6-3.1c-2.5,0-2.5,10.3-6.1,10.3
		c-2.1,0-2.1-9-2.1-11c0-4.4,1.9-14.5,3.3-14.5c1.9,0,0,8.2,4.5,8.2c2,0,2-1,2-5c0-3.6-0.5-5.7-3-6.7c-0.5-0.2-2.3-1.8-4-1.8
		C63.9,234.3,62,250.1,62,255.7"/>
	<path class="st17" d="M91.9,244.9c0-1-0.1-2.1-0.1-3.1c0-0.6,0.1-1.2,0.1-1.7c0-0.6,0.5-0.7,1-0.7c2.9,0,3.5,1.7,3.5,4.6
		c0,2.6-1.7,6.9-4,6.9c-0.5,0-0.5-0.3-0.5-0.9 M91.8,234.3c-1,0-4.2,0-4.7,0.9c-0.2,0.3-0.2,0.7-0.2,1.5c0,8.9-0.1,16.2-0.1,23.6
		c0,1.1,0.1,2.2,0.1,3.3c0,3.1,0,3.6,0.1,3.7c0.7,1.1,2.5,1.8,3.5,1.8c1.2,0,1.3-1.6,1.3-2.8c0-1.5-0.1-2.4-0.1-3.4
		c0-1.3,0.2-5.2,0.2-5.9c0-0.2,0.1-0.4,0.5-0.5c3.3-1.5,9.5-4.1,9.5-12.6c0-3.4-1.3-5-3.2-7C96.5,234.5,94.1,234.3,91.8,234.3"/>
	<path class="st17" d="M105.7,268.5c0,1.4,2.4,1.7,2.8,1.7c0.4,0,1-0.2,1.2-0.6c1.2-2.7,1.8-9.8,2.7-9.8c0.6,0,2.9-0.7,5.2-0.7
		c0.3,0,0.9,0,1.1,0.1c1,3.1,1.3,9.2,3.8,9.2c1.1,0,2.8,0,2.8-0.9c0-2.7-5-30.2-5.2-31.5c-0.1-1.1-5.2-1.7-6.1-1.7
		c-0.5,0-0.8,0.2-1,0.8C111.2,240.7,105.7,264.7,105.7,268.5 M116.2,242.7c0.6,4.8,1.9,9.9,1.9,10.9c0,0.4-1.2,0.4-1.5,0.4
		c-1.1,0-2.1,0.1-2.7,0.1c-0.3,0-0.6-0.1-0.6-0.4c0-0.6,1.7-7.3,2.6-11L116.2,242.7z"/>
	<path d="M133.3,264.3c0,2.8,1.4,4.5,4.3,4.5c1.2,0,7.5-1.4,8.2-1.4c0.7,0,1-0.3,1-1.1c0-3.3-1.8-4.3-2.5-4.3
		c-0.6,0-4.5,0.9-5.5,0.9c-0.8,0-0.8-0.4-0.8-1.2v-5.9c0-2,0.2-2.3,2.1-2.3c2.2,0,3.3-0.4,5.1-0.4c0.4,0,1.1-0.3,1.1-0.9
		c0-3.8-0.8-4.4-2.3-4.4c-3.3,0-4.8,0.4-5.6,0.4c-0.1,0-0.2-0.2-0.2-0.3c0-1.1,0.2-4.5,0.2-6c0-1.2,0.1-1.6,2.3-1.6
		c4.1,0,5.2-0.8,5.2-1.9c0-1.7-1.4-3.6-2.6-3.6c-2.2,0-4.7,0.8-6.9,0.8c-0.6,0-1-0.2-1.4-0.2c-1,0-1.3,1-1.3,1.9
		C133.3,245.3,133.3,256.2,133.3,264.3"/>
</g>
</svg>
