<svg xmlns="http://www.w3.org/2000/svg" viewBox="0 0 241.35 79.32"><defs><style>.cls-1{fill:#dbc27d;}</style></defs><title>fat</title><g id="Capa_2" data-name="Capa 2"><g id="Objects"><path class="cls-1" d="M222.85,16.54a26.41,26.41,0,0,1,4.66-2.27c3.62-1.25,4.73-1.07,8.16.77l3.27,1.75a8.64,8.64,0,0,1-.37,8,12.42,12.42,0,0,1-4,4.47c-5.8,3.95-13.58,3.48-19.93,1.27-12-4.18-22.08-13.06-33.71-18.21-15.88-7-45-14.57-53.52,7.17-7.24,18.44,9.24,34.67,26.83,36.19,5.2.45,16.2-1.88,12.45-9.6-3.62-7.43-15.54-9.38-22.73-8.41-9.85,1.33-18.31,7.85-23.72,16-5.19,7.8-8.77,19.07.16,25.57.46.34,1.06-.44.61-.8-11-8.5-.58-24.18,7-31.17,8.28-7.61,20.73-11.1,31.18-5.73,1.2.62,3.83,2,4.26,2.86-.3,1.49-.59,3-.89,4.48.82,3.31,0,4.86-2.46,4.67-2.49.62-5.68.08-8.15-.32a32.34,32.34,0,0,1-13.77-5.6c-8.69-6.28-13.41-18.77-7.84-28.7,11.93-21.29,45.67-6.59,61.13,1.89,12.53,6.87,29.33,19.83,43.85,9.81,4.34-3,7.85-9.49,4.89-14.6-4-6.88-12.76-3.47-17.75-.06-.36.25,0,.81.34.59Z"/><path class="cls-1" d="M135.34,34.24c-2.37-7.92,3.44-14.67,11-16.1,7.31-1.39,14.44,1.68,20.92,4.66,9.31,4.3,18.5,8.21,28.53,10.58,6.63,1.57,17.48,5,23.38-.05,3.83-3.29,3.85-9.2,1.32-13.3-9.31-15.15-32.45.38-44.39,2.82a74.77,74.77,0,0,1-31.9-.54C139,21.09,107.09,10.2,119.7,1c.51-.37,0-1.23-.5-.86-11.06,7.85,6.43,17.49,12.46,20.08a76.2,76.2,0,0,0,43.1,4.91c8.22-1.45,15.44-5,23.26-7.62,4.58-1.55,10.3-2.8,15-.88,7,2.85,11.38,14.15,1.47,16.65-8.68,2.2-20.2-1.92-28.5-4.69-8.91-3-17-8-26-10.8-6.69-2.08-15-2.44-20.74,2.17a13,13,0,0,0-4.47,14.48c.11.33.64.2.53-.15Z"/><path class="cls-1" d="M153.8,44.19c.09,0,.1-.15,0-.15s-.1.15,0,.15Z"/><path class="cls-1" d="M153,45q-4.81.24-3.75-3.56a7.15,7.15,0,0,1,1.13-5,11.7,11.7,0,0,1,5.88-5c4.49-1.93,9.44-1.43,14,0,7.17,2.29,13.17,7.21,20.08,10.1,8.74,3.65,20.14,3.87,27-3.52.39-.42-.19-1-.61-.61-6.49,5.28-14.5,6.38-22.44,3.94-7.06-2.16-12.93-6.93-19.58-10-8.44-3.84-21.3-5.18-25.93,5-1.8,4-.18,16.22,6.71,12.14,4.27-2.53-.49-7.61-3-4-.19.28.25.62.48.36Z"/><path class="cls-1" d="M18.75,16C14.13,12.79,7.66,9.84,2.69,14.09c-3.93,3.35-3.1,9.15-.39,13,9.46,13.52,28.86,4.7,39.53-1.68,16.24-9.71,42.22-24.25,61.19-14,10.71,5.78,12.82,19.19,6.73,29.18-5.19,8.5-15.68,12.86-25.32,13.07-1,0-4,.34-4.89-.33l-1.77-8.95,2.72-2a23.6,23.6,0,0,1,9.74-3.23,27.61,27.61,0,0,1,17.48,3.94c9.64,5.81,25.48,25.27,12.62,35.25-.5.39,0,1.26.52.87C137,67.44,116.14,44,103.55,39.28c-8.25-3.11-18.23-2.43-25.39,3-5.94,4.5-5,11.4,2.57,13.17,17.44,4.07,36.55-12.21,34.57-29.91-1-8.64-6.51-15.27-14.5-18.46-10.75-4.3-23-1.42-33.43,2.39C54.84,14,44.45,21.75,32.73,27.82,26.12,31.24,18.4,33.66,11,31.33,5.5,29.6,1.29,25.39,2,19.4c1.12-9.29,11.38-5.78,16.4-2.86a.34.34,0,0,0,.34-.59Z"/><path class="cls-1" d="M104.09,34.39c4.19-12-8.9-19.08-19.19-17.95-7.94.87-15,5.19-22.15,8.33a118.29,118.29,0,0,1-28.65,8.4c-5.8.93-15.61,1.37-15.54-7,.07-7.08,7.1-10.35,13.25-10.43,8.94-.12,17.32,5.6,25.77,7.92a76.11,76.11,0,0,0,45-1.59C108.75,19.83,132.46,9.15,119.7.09c-.53-.37-1,.49-.5.86,12.61,9.25-19.36,20.14-24.53,21.36a74.66,74.66,0,0,1-31.91.54c-11.9-2.43-35.07-18-44.39-2.82-2.52,4.11-2.51,10,1.33,13.3,5.87,5,16.81,1.6,23.37.05,10-2.36,19.25-6.27,28.54-10.58,6-2.78,12.44-5.55,19.2-4.9,8.27.8,15.34,7.7,12.75,16.34a.28.28,0,0,0,.53.15Z"/><path class="cls-1" d="M85.1,44.19a.08.08,0,0,0,0-.15.08.08,0,0,0,0,.15Z"/><path class="cls-1" d="M86.38,44.62c-2.3-3.36-6.9.79-3.57,3.63,2.25,1.93,5.19.56,6.76-1.5,2.24-2.93,2-7.11.54-10.29-4.43-9.75-16.71-9-25-5.41-7,3-13.15,8-20.51,10.37-7.9,2.51-16,1.3-22.45-3.94a.43.43,0,0,0-.61.61c6.89,7.4,18.27,7.15,27,3.51,6.92-2.87,12.91-7.73,20.07-10.09a21.18,21.18,0,0,1,12.45-.67,12.46,12.46,0,0,1,7.43,5.62l1.1,2.79q2.1,5.58-3.73,5.74c.23.25.67-.09.48-.37Z"/></g></g></svg>