<svg xmlns="http://www.w3.org/2000/svg" viewBox="0 0 12.05 12.05"><defs><style>.cls-1{fill:#c7c7c7;}</style></defs><title>insta</title><g id="Capa_2" data-name="Capa 2"><g id="Capa_1-2" data-name="Capa 1"><path class="cls-1" d="M12,6c0,.86,0,1.72,0,2.58a3.44,3.44,0,0,1-1.15,2.54,3.49,3.49,0,0,1-2.3.9c-1.71,0-3.42,0-5.14,0a3.31,3.31,0,0,1-2.13-.76A3.43,3.43,0,0,1,0,9.08a3.27,3.27,0,0,1,0-.54v-5A3.52,3.52,0,0,1,2.1.29,3.44,3.44,0,0,1,3.52,0H8.61a3.37,3.37,0,0,1,2.08.74A3.4,3.4,0,0,1,12,2.8a3.51,3.51,0,0,1,.07.72V6ZM6,.93H3.53a2.94,2.94,0,0,0-.84.12A2.56,2.56,0,0,0,.93,3.48c0,1.7,0,3.4,0,5.1A2.65,2.65,0,0,0,1,9.32a2.56,2.56,0,0,0,2.45,1.8H8.74A2.37,2.37,0,0,0,10,10.7a2.51,2.51,0,0,0,1.17-2.17v-5A2.58,2.58,0,0,0,8.58.93Z"/><path class="cls-1" d="M9.26,6A3.24,3.24,0,1,1,6.07,2.78,3.26,3.26,0,0,1,9.26,6ZM8.34,6A2.32,2.32,0,1,0,6,8.34,2.31,2.31,0,0,0,8.34,6Z"/><path class="cls-1" d="M9.73,1.85a.47.47,0,0,1,.46.47.47.47,0,1,1-.93,0A.47.47,0,0,1,9.73,1.85Z"/></g></g></svg>