<svg xmlns="http://www.w3.org/2000/svg" viewBox="0 0 201.01 40.82"><defs><style>.cls-1{fill:#fff;}</style></defs><title>logo-menu</title><g id="Capa_2" data-name="Capa 2"><g id="Capa_1-2" data-name="Capa 1"><path class="cls-1" d="M179.82,40.79c-.13-.54,0-.82.61-1A5.16,5.16,0,0,0,183.54,34a8.35,8.35,0,0,0-3.88-5.81c-2.95-2-6-3.82-8.92-5.77a17.54,17.54,0,0,1-3.85-3.55,7.49,7.49,0,0,1,2.44-11.59,13.7,13.7,0,0,1,5.28-1.42c.14.45,0,.72-.46.92a5.06,5.06,0,0,0-2.77,6.6c0,.1.09.21.14.31a8.61,8.61,0,0,0,3.23,3.61c2.83,1.9,5.7,3.74,8.49,5.7a25.75,25.75,0,0,1,3.51,3,10.06,10.06,0,0,1,2.7,5.36v1.89c0,.09-.07.18-.09.27a8.08,8.08,0,0,1-2,4,9.53,9.53,0,0,1-4.89,2.74c-.82.21-1.67.33-2.51.49ZM0,6.82a1.5,1.5,0,0,0,.29.06A2.73,2.73,0,0,1,2.77,8.65a7.07,7.07,0,0,1,.54,2.91v22.7a12.85,12.85,0,0,1-.43,3.08A2.72,2.72,0,0,1,.21,39.62l-.11.09c-.11.09,0,.41,0,.64H14.5v-.78H13.43c-2.37-.19-3.5-1.17-3.94-3.51a15.23,15.23,0,0,1-.21-2.61V6.09H7l-7,0Zm176.34,34c.22-.69.14-.77-.49-1a18.53,18.53,0,0,1-3-1,10.79,10.79,0,0,1-5.15-5.94,44.16,44.16,0,0,1-1.42-4.3h-.67v8.63a1,1,0,0,0,.62,1,21.26,21.26,0,0,0,7.22,2.17c.87.12,1.73.2,2.6.3Zm-75-11.15H90.21a.94.94,0,0,0-1,.68c-1,2.19-1.94,4.38-3,6.52A14.65,14.65,0,0,1,84.58,39a.65.65,0,0,1-.84.16,5.57,5.57,0,0,1-3.29-3.26c-.28-.73-.45-1.52-.67-2.28a21.58,21.58,0,0,0-2.49-5.92,7,7,0,0,0-4.64-3.37l-.7-.12c.93-.22,1.76-.37,2.56-.61a7.2,7.2,0,0,0,4.91-4.08A10.58,10.58,0,0,0,80.16,15c-.1-4.37-2.07-6.88-6.28-8a29.81,29.81,0,0,0-6.78-.83h-.81v.69c.65.06,1.26.11,1.86.18a5.12,5.12,0,0,1,4.76,4A17.73,17.73,0,0,1,73,19.36a5.13,5.13,0,0,1-4.63,4.38c-.7.1-1.41.16-2.13.24v.8l.36.1a6.47,6.47,0,0,1,5.27,4.8c.32,1,.59,2.1.91,3.14.56,1.77,1.09,3.54,1.73,5.28a3.18,3.18,0,0,0,2.94,2.1c1.4.1,2.81.17,4.21.18H94.19v-.8h-.88a3.87,3.87,0,0,1-4-3.72,3.49,3.49,0,0,1,0-.46,14.81,14.81,0,0,1,.84-4.66c.1-.34.3-.37.59-.37h11.08a.57.57,0,0,1,.65.43c.51,1.31,1.07,2.6,1.55,3.92a12,12,0,0,1,.65,2.34c.22,1.48-.26,2.45-1.84,2.54h-.07v.7h21.47c.45,0,.55-.13.55-.56V6h-9.47v.71a3.42,3.42,0,0,1,2.86,2.47,8.16,8.16,0,0,1,.56,3.2V33.57a12.46,12.46,0,0,1-.09,1.73,6.28,6.28,0,0,1-1.2,3.22,3.06,3.06,0,0,1-4.31.37,3.23,3.23,0,0,1-.37-.37,17.34,17.34,0,0,1-1.52-2.77q-6-14.58-11.94-29.2c-.12-.28-.23-.47-.59-.46s-.42.26-.51.5q-2.76,7.17-5.53,14.35c-.41,1.06-.82,2.12-1.22,3.2a1,1,0,0,0,0,.43h.15c1.4-3.33,2.86-6.65,4.4-10.1,2,5.11,4,10.09,6,15.17ZM32,39.59a3.81,3.81,0,0,1-4.06-3.54,1.34,1.34,0,0,1,0-.2,12.48,12.48,0,0,1,.88-5.2c0-.13.32-.25.49-.25H40.47a.55.55,0,0,1,.59.39c.52,1.34,1.11,2.66,1.58,4a12.22,12.22,0,0,1,.66,2.73,1.71,1.71,0,0,1-1.31,2,2,2,0,0,1-.42,0h-.2v.72h24.9v-.69H66a2.78,2.78,0,0,1-2.65-2.1A9,9,0,0,1,63,35V6.14H53.72v.7l.54.06a2.5,2.5,0,0,1,2.43,2A7.86,7.86,0,0,1,57,10.76v24a9.34,9.34,0,0,1-.47,2.92,3,3,0,0,1-5.15.8,11.29,11.29,0,0,1-1.52-2.71q-6-14.6-11.94-29.2c-.11-.27-.18-.54-.6-.53s-.45.31-.55.57c-.67,1.72-1.33,3.45-2,5.18Q32.35,17.93,30,24a2.59,2.59,0,0,0-.11.54l.2.06,4.42-10.13c2,5.11,4,10.1,6.07,15.17h-12a.61.61,0,0,0-.69.45c-.25.7-.56,1.38-.85,2.07a35.15,35.15,0,0,1-2.91,5.74,3,3,0,0,1-2.68,1.71v.75H32.79V39.6H32M148.15,6.13c-.11.71-.11.71.57.77a3.12,3.12,0,0,1,3,2.59,8.57,8.57,0,0,1,.17,1.82V34.4a9.85,9.85,0,0,1-.11,1.63,3.8,3.8,0,0,1-2.57,3.4c-.34.1-.7.14-1.07.21v.72h13.52v-.73A3.79,3.79,0,0,1,158,36.15a10.56,10.56,0,0,1-.13-1.68V11.28A10.88,10.88,0,0,1,158,10a3.27,3.27,0,0,1,3.12-3c.65-.06.65-.06.55-.77ZM128.83,7l.69.07a9.62,9.62,0,0,1,6.66,3.44,13.13,13.13,0,0,1,2.49,5.3,32.75,32.75,0,0,1,.79,9.26,24.63,24.63,0,0,1-1.38,7.84A9.38,9.38,0,0,1,131,39.24c-.93.2-1.89.28-2.86.42v.68h.36A28.74,28.74,0,0,0,137,38.9,13.37,13.37,0,0,0,146,29a24,24,0,0,0,.24-10.29A13.75,13.75,0,0,0,138,8.05a24.12,24.12,0,0,0-8.24-1.83c-.53,0-1.07-.06-1.63-.08V6.9h.68M22.72,23.77A7.08,7.08,0,0,0,26.51,19a15.67,15.67,0,0,0,.39-3.48c0-4.22-2-7-6-8.29A27.79,27.79,0,0,0,13,6.15a.43.43,0,0,0-.28.32.5.5,0,0,0,.27.39c.5.09,1,.1,1.53.17a5.67,5.67,0,0,1,5.29,4.61,17.77,17.77,0,0,1,0,8.36,5.61,5.61,0,0,1-4.63,4.71,19.17,19.17,0,0,1-2,.25c-.63.07-.64.07-.51.83,3.45-.16,6.87-.33,10-2m165.47-8.12V8.48a.66.66,0,0,0-.46-.7,26.71,26.71,0,0,0-8.11-1.94c-.52,0-1-.08-1.57-.11V6.5l.65.12A9.65,9.65,0,0,1,184,9.35a12.93,12.93,0,0,1,3.24,6.26c.15.63.15.63.91.51Z"/><path class="cls-1" d="M196.63,0H197a4.62,4.62,0,0,1,.65.08,4,4,0,0,1,1.21.45,4.36,4.36,0,0,1,1.18,1,4.25,4.25,0,0,1,.65,1.08A3.9,3.9,0,0,1,201,4a3.72,3.72,0,0,1-.06.94,4,4,0,0,1-.4,1.06,4.09,4.09,0,0,1-.7,1,4.14,4.14,0,0,1-2.91,1.34,4.77,4.77,0,0,1-1-.08,3.94,3.94,0,0,1-1.2-.44,4.2,4.2,0,0,1-2-2.41,4.2,4.2,0,0,1-.18-1V4a4.26,4.26,0,0,1,.06-.5,4.43,4.43,0,0,1,.3-1,4.84,4.84,0,0,1,.68-1,4.22,4.22,0,0,1,1.17-.93A4.74,4.74,0,0,1,196,.08a4.33,4.33,0,0,1,.5-.08h.13m.15.64a3.54,3.54,0,1,0,3.53,3.55h0A3.54,3.54,0,0,0,196.78.64"/><path class="cls-1" d="M198.52,6.11h-.62c-.29-.45-.58-.91-.88-1.36h-.8V6.11h-.65V2.25h1.7a1.64,1.64,0,0,1,.54.08,1.51,1.51,0,0,1,.45.2,1,1,0,0,1,.37.53V3.4a1.19,1.19,0,0,1,0,.46.81.81,0,0,1-.12.29,1.09,1.09,0,0,1-.57.42l-.25.07h0c.31.49.62,1,.94,1.47m-2.38-2h1.12l.31-.08.15-.08a.6.6,0,0,0,.2-.27.82.82,0,0,0,0-.44.44.44,0,0,0-.14-.25l-.22-.15-.18-.06h-1.27Z"/></g></g></svg>