<svg xmlns="http://www.w3.org/2000/svg" viewBox="0 0 187.98 19.44"><defs><style>.cls-1{fill:#fff;}</style></defs><title>themesis-logo</title><g id="Capa_2" data-name="Capa 2"><g id="Capa_1-2" data-name="Capa 1"><path class="cls-1" d="M6.16,3.85,0,3.73V.1Q8.39.36,16.77.57V4l-6.16-.1V19.05l-4.45.12Z"/><path class="cls-1" d="M42.87,1.11V18.35l-4.45.08V11.3l-8.75,0V18.6l-4.45.09V.77l4.45.09v7l8.75,0V1Z"/><path class="cls-1" d="M95.52,17.93l0-9.84L89.82,16.2h-2L82.18,8.3V18L78,18q0-8.23,0-16.48l3.68,0q3.6,5.12,7.21,10.21L96,1.53h3.66l.06,16.4Z"/><path class="cls-1" d="M68.4,4.63l-9,0C62.4,6.37,63.87,7.24,66.82,9v1.54c-2.87,1.73-4.31,2.6-7.18,4.37l8.76-.06V18q-7.46.06-14.91.16V15.32q4.62-2.84,9.26-5.62-4.64-2.76-9.26-5.54V1.31q7.45.08,14.91.12Z"/><path class="cls-1" d="M110.31,1.49q7.45,0,14.91-.07V4.23Q120.6,7,116,9.7q4.64,2.76,9.26,5.55v2.84c-5-.06-9.94-.09-14.91-.12V14.8l8.76,0c-2.87-1.74-4.31-2.6-7.18-4.32V9c3-1.73,4.42-2.59,7.37-4.34h-9Z"/><path class="cls-1" d="M133.31,16.51l1.51-2.93a12.52,12.52,0,0,0,6.35,1.82c2.64,0,3.89-1,3.72-1.81-.78-3.64-11.16-1.21-11.2-7.34,0-3.73,4.89-5.43,8.12-5.38a14.94,14.94,0,0,1,6.68,1.42c-.55,1.23-.83,1.84-1.38,3.06a11.61,11.61,0,0,0-5.33-1.3c-2.64,0-3.84,1.16-3.66,2,.8,3.6,11.23,1,11.19,7.3,0,4-4.74,5.3-8.16,5.25A15.39,15.39,0,0,1,133.31,16.51Z"/><path class="cls-1" d="M158.42.86l4.45-.1V18.69l-4.45-.09Z"/><path class="cls-1" d="M172,17.1l1.51-3.18a11.91,11.91,0,0,0,6.35,2c2.64.05,3.88-1,3.71-2-.73-4-11.17-1.57-11.19-8,0-3.86,4.6-6,8.11-5.95a13.6,13.6,0,0,1,6.68,1.5c-.55,1.36-.82,2-1.37,3.39a10.78,10.78,0,0,0-5.34-1.4c-2.64,0-3.83,1.27-3.65,2.2.76,4,11.27,1.17,11.19,8,0,4.18-4.42,5.82-8.17,5.72A14.59,14.59,0,0,1,172,17.1Z"/></g></g></svg>