<svg xmlns="http://www.w3.org/2000/svg" viewBox="0 0 117.63 53.68"><defs><style>.cls-1{fill:#fff;}.cls-2{fill:#e1bb74;}</style></defs><title>logo-madrid</title><g id="Capa_2" data-name="Capa 2"><g id="Capa_1-2" data-name="Capa 1"><path class="cls-1" d="M105.8,24c-.07-.32,0-.49.36-.62A3,3,0,0,0,108,19.93a4.92,4.92,0,0,0-2.28-3.41c-1.73-1.15-3.5-2.24-5.23-3.39a10.2,10.2,0,0,1-2.27-2.08,4.4,4.4,0,0,1,1.43-6.81,8.1,8.1,0,0,1,3.11-.84.38.38,0,0,1-.27.55A3,3,0,0,0,100.93,8a5.08,5.08,0,0,0,1.9,2.13c1.66,1.11,3.35,2.19,5,3.34a14.61,14.61,0,0,1,2.06,1.79,5.83,5.83,0,0,1,1.59,3.15v1.11a1,1,0,0,0,0,.16,4.83,4.83,0,0,1-1.15,2.38,5.52,5.52,0,0,1-2.87,1.6c-.48.13-1,.2-1.47.3ZM.2,4A.53.53,0,0,0,.37,4a1.61,1.61,0,0,1,1.46,1,4.16,4.16,0,0,1,.32,1.71c0,4.44,0,8.89,0,13.33a8,8,0,0,1-.26,1.81A1.62,1.62,0,0,1,.32,23.27l-.06.05,0,.38H8.74v-.46c-.22,0-.43,0-.63,0A2.2,2.2,0,0,1,5.8,21.18a8.89,8.89,0,0,1-.13-1.54c0-5.21,0-10.42,0-15.63V3.58H.2ZM103.76,24c.13-.41.09-.45-.28-.56a10.4,10.4,0,0,1-1.76-.59,6.38,6.38,0,0,1-3-3.49c-.33-.81-.55-1.67-.83-2.52h-.4v.37c0,1.57,0,3.15,0,4.72a.57.57,0,0,0,.36.61,12.4,12.4,0,0,0,4.24,1.28c.51.07,1,.12,1.53.18ZM59.71,17.41H53.18a.53.53,0,0,0-.59.39c-.57,1.29-1.14,2.58-1.77,3.83a8.4,8.4,0,0,1-1,1.29.38.38,0,0,1-.49.09,3.25,3.25,0,0,1-1.93-1.91c-.17-.43-.27-.89-.4-1.34a12.25,12.25,0,0,0-1.46-3.48,4.14,4.14,0,0,0-2.73-2l-.4-.07c.55-.13,1-.22,1.5-.36a4.18,4.18,0,0,0,2.88-2.39,6.32,6.32,0,0,0,.44-2.65A4.47,4.47,0,0,0,43.59,4.1a17.77,17.77,0,0,0-4-.49h-.48V4l1.1.1A3,3,0,0,1,43,6.46a10.45,10.45,0,0,1,.08,4.91,3,3,0,0,1-2.72,2.57c-.42.06-.83.09-1.25.14v.47l.21.06a3.79,3.79,0,0,1,3.09,2.82c.19.61.35,1.24.54,1.85.32,1,.64,2.08,1,3.09a1.88,1.88,0,0,0,1.73,1.24c.82.06,1.65.1,2.47.1,2.34,0,4.67,0,7,0h.36v-.47c-.19,0-.35,0-.52,0a2.27,2.27,0,0,1-2.38-2.45,8.79,8.79,0,0,1,.5-2.74c.06-.2.18-.22.35-.22q3.24,0,6.5,0a.35.35,0,0,1,.39.25c.29.78.62,1.53.91,2.31a7.13,7.13,0,0,1,.38,1.37c.12.87-.15,1.44-1.09,1.49l0,0v.41l.28,0H73.16c.26,0,.32-.07.32-.32V3.91c0-.1,0-.21,0-.31H67.9V4a2,2,0,0,1,1.68,1.45,4.8,4.8,0,0,1,.32,1.88q0,6.18,0,12.37c0,.34,0,.68,0,1a3.71,3.71,0,0,1-.71,1.89,1.8,1.8,0,0,1-2.75,0A9.56,9.56,0,0,1,65.51,21q-3.53-8.56-7-17.15c-.06-.17-.13-.27-.34-.27s-.25.15-.3.29L54.6,12.29l-.72,1.88a1,1,0,0,0,0,.25H54L56.56,8.5l3.56,8.91ZM19,23.25a2.23,2.23,0,0,1-2.39-2.2A7.25,7.25,0,0,1,17.1,18c0-.07.18-.15.28-.15H24a.32.32,0,0,1,.34.23c.31.79.65,1.56.93,2.36a7.47,7.47,0,0,1,.39,1.6,1,1,0,0,1-1,1.22l-.12,0v.43H39.1v-.41l0,0-.12,0A1.64,1.64,0,0,1,37.38,22a5.38,5.38,0,0,1-.23-1.49c0-5.52,0-11,0-16.57V3.6H31.75v.26a1.15,1.15,0,0,0,0,.16l.32,0a1.48,1.48,0,0,1,1.43,1.2,4.82,4.82,0,0,1,.13,1.07c0,4.7,0,9.41,0,14.12a5.23,5.23,0,0,1-.27,1.71,1.76,1.76,0,0,1-3,.47A6.89,6.89,0,0,1,29.45,21q-3.52-8.57-7-17.15c-.06-.16-.1-.31-.34-.31s-.27.18-.33.33c-.39,1-.78,2-1.18,3.05q-1.36,3.57-2.75,7.15a1.55,1.55,0,0,0-.06.31l.11,0,2.6-5.94,3.57,8.91H17a.36.36,0,0,0-.41.27c-.14.41-.32.81-.5,1.21a19.4,19.4,0,0,1-1.71,3.37,1.74,1.74,0,0,1-1.57,1v.44h6.67v-.44ZM87.21,3.6c-.07.42-.07.42.33.45a1.82,1.82,0,0,1,1.75,1.52,4.86,4.86,0,0,1,.11,1.07q0,6.78,0,13.56a6.11,6.11,0,0,1-.06,1,2.21,2.21,0,0,1-1.51,2,4.13,4.13,0,0,1-.63.13v.42h7.94v-.42A2.22,2.22,0,0,1,93,21.23a5.44,5.44,0,0,1-.08-1q0-6.81,0-13.61a5.16,5.16,0,0,1,0-.79,1.92,1.92,0,0,1,1.83-1.79c.38,0,.38,0,.32-.45Zm-11.35.48.41,0a5.69,5.69,0,0,1,3.91,2,7.88,7.88,0,0,1,1.46,3.11,19.19,19.19,0,0,1,.46,5.45,14.51,14.51,0,0,1-.81,4.6,5.5,5.5,0,0,1-4.14,3.75c-.55.11-1.11.16-1.69.24,0,.07,0,.14,0,.22a1.24,1.24,0,0,0,0,.18h.21a17,17,0,0,0,5-.84,7.85,7.85,0,0,0,5.3-5.8,14,14,0,0,0,.14-6,8,8,0,0,0-4.87-6.28,14.13,14.13,0,0,0-4.84-1.08l-1,0v.45ZM13.55,14a4.15,4.15,0,0,0,2.22-2.78,9.31,9.31,0,0,0,.23-2,4.74,4.74,0,0,0-3.54-4.87,16.28,16.28,0,0,0-4.65-.66c-.06,0-.17.13-.17.19S7.73,4,7.8,4c.3,0,.6.06.9.1a3.33,3.33,0,0,1,3.11,2.7,10.45,10.45,0,0,1,0,4.88,3.29,3.29,0,0,1-2.72,2.77A11.14,11.14,0,0,1,8,14.63c-.37,0-.37,0-.3.48A13.61,13.61,0,0,0,13.55,14Zm97.17-4.77c0-1.41,0-2.81,0-4.22a.37.37,0,0,0-.27-.41,15.63,15.63,0,0,0-4.76-1.14l-.92-.07v.47l.38.07a5.65,5.65,0,0,1,3.14,1.6,7.62,7.62,0,0,1,1.9,3.68c.09.37.09.37.53.3Z"/><path class="cls-1" d="M47,28.43a1,1,0,0,1,.3.05.74.74,0,0,1,.27.16.79.79,0,0,1,.2.27,1,1,0,0,1,.07.4v.81H46.53v.66a.91.91,0,0,0,.14.57.39.39,0,0,0,.34.16,1,1,0,0,0,.24,0,.37.37,0,0,0,.2-.12.55.55,0,0,0,.15-.24,1.09,1.09,0,0,0,.06-.4h.14v.09a1.15,1.15,0,0,1,0,.33.57.57,0,0,1-.13.27.69.69,0,0,1-.25.19,1.21,1.21,0,0,1-.36.07.91.91,0,0,1-.32-.06.81.81,0,0,1-.28-.17,1.13,1.13,0,0,1-.22-.27.86.86,0,0,1-.08-.36v-.39c0-.1,0-.2,0-.31v-.78a.82.82,0,0,1,.08-.4.84.84,0,0,1,.2-.28.76.76,0,0,1,.26-.16A1.12,1.12,0,0,1,47,28.43ZM47.37,30v-.51a2.25,2.25,0,0,0,0-.4,1.25,1.25,0,0,0-.08-.27.29.29,0,0,0-.14-.13.31.31,0,0,0-.17,0,.34.34,0,0,0-.31.18,1.45,1.45,0,0,0-.1.66V30Z"/><path class="cls-1" d="M49.8,31.56h0l0,0a.75.75,0,0,1-.31.05.45.45,0,0,1-.2,0L49,31.54a.27.27,0,0,0-.12,0s0,0,0,.09h-.13v-.77h.16a1,1,0,0,0,0,.36.79.79,0,0,0,.15.24.5.5,0,0,0,.34.11.54.54,0,0,0,.24-.05.58.58,0,0,0,.23-.2.42.42,0,0,0,.05-.24.58.58,0,0,0-.09-.25,1.37,1.37,0,0,0-.2-.22l-.16-.12-.17-.14A2.89,2.89,0,0,1,49,30a1.32,1.32,0,0,1-.2-.27.82.82,0,0,1-.1-.24.9.9,0,0,1,0-.24v-.14l0-.11a.83.83,0,0,1,.06-.21.46.46,0,0,1,.13-.18.6.6,0,0,1,.2-.14.85.85,0,0,1,.3,0,.65.65,0,0,1,.19,0l.17.08s.09,0,.12,0,.05,0,.05-.1H50v.8h-.17a1,1,0,0,0,0-.35.54.54,0,0,0-.16-.24.45.45,0,0,0-.33-.11.49.49,0,0,0-.28.08.34.34,0,0,0-.1.13.58.58,0,0,0,0,.19.53.53,0,0,0,.18.44l0,0,0,0,0,0s0,0,0,0l.14.11.16.12.29.28a1.92,1.92,0,0,1,.2.23,1.13,1.13,0,0,1,.12.21.58.58,0,0,1,0,.18.76.76,0,0,1,0,.5.82.82,0,0,1-.22.31h0s0,0,0,0l0,0,0,0,0,0h0Z"/><path class="cls-1" d="M52.58,31.08a.53.53,0,0,1-.14.37.86.86,0,0,1-.22.15.67.67,0,0,1-.28.06.64.64,0,0,1-.38-.12.8.8,0,0,1-.25-.32.43.43,0,0,1,0-.11.45.45,0,0,1,0-.12s0,0,0-.06v-.21a.31.31,0,0,1,0-.09v-2h-.44v-.18h.44V27.37a.21.21,0,0,0,0-.13s0,0,0-.06H51.1V27h.6v1.46h.54v.18H51.7v2.39a.52.52,0,0,0,.14.3.37.37,0,0,0,.48,0,.36.36,0,0,0,.12-.26Z"/><path class="cls-1" d="M53.47,31.09a.27.27,0,0,1,.18.1.28.28,0,0,1,.06.18.27.27,0,0,1-.1.18.26.26,0,0,1-.19.05.26.26,0,0,1-.17-.09.23.23,0,0,1-.06-.19.26.26,0,0,1,.09-.17A.27.27,0,0,1,53.47,31.09Z"/><path class="cls-1" d="M56.79,31.26a.23.23,0,0,0,0,.13l0,.05H57v.16h-.83v-.16h.11l.08-.05a.17.17,0,0,0,0-.13V27.63c0-.06,0-.11,0-.13a.21.21,0,0,0-.08-.06.2.2,0,0,0-.11,0v-.16a.85.85,0,0,0,.23,0l.16-.08a.19.19,0,0,0,.07-.13h.2v4.22Z"/><path class="cls-1" d="M59.63,28.14c0,.15,0,.31,0,.5v.6c0,.2,0,.4,0,.61s0,.38,0,.54l0,.2c0,.08-.05.17-.08.27s-.09.2-.14.3a1.39,1.39,0,0,1-.21.27,1,1,0,0,1-.28.17,1,1,0,0,1-.36.06.72.72,0,0,1-.61-.68.73.73,0,0,1,0-.3.51.51,0,0,1,.15-.23.37.37,0,0,1,.24-.1.34.34,0,0,1,.23.1.36.36,0,0,1,0,.44.33.33,0,0,1-.17.1h0a.25.25,0,0,0-.13.12.29.29,0,0,0,0,.16.36.36,0,0,0,.12.16.43.43,0,0,0,.24.07.32.32,0,0,0,.26-.12A.87.87,0,0,0,59,31.1a1.91,1.91,0,0,0,.1-.38c0-.14,0-.28.05-.42s0-.09,0-.15a1.15,1.15,0,0,0,0-.19c0-.08,0-.15,0-.22v-.2a.59.59,0,0,1-.49.23.86.86,0,0,1-.33-.11,1,1,0,0,1-.31-.27,1.51,1.51,0,0,1-.21-.46,1.79,1.79,0,0,1,0-.63,2,2,0,0,1,.1-.54,1.28,1.28,0,0,1,.18-.39h0v0a1.12,1.12,0,0,1,.2-.18.49.49,0,0,1,.18-.11.41.41,0,0,1,.19-.05.68.68,0,0,1,.4.09.93.93,0,0,1,.29.27,1.82,1.82,0,0,1,.18.37A2.07,2.07,0,0,1,59.63,28.14Zm-1,1.46a.38.38,0,0,0,.27-.08.76.76,0,0,0,.21-.36c0-.12,0-.25,0-.38s0-.24,0-.35a2.66,2.66,0,0,0,0-.3,1.06,1.06,0,0,0,0-.21,2.43,2.43,0,0,0,0-.3,1.37,1.37,0,0,0-.05-.25.36.36,0,0,0-.11-.16.27.27,0,0,0-.19-.06.33.33,0,0,0-.19.06.63.63,0,0,0-.13.2,1.34,1.34,0,0,0-.09.36c0,.15,0,.34-.06.55a2.18,2.18,0,0,0,0,.58,2.65,2.65,0,0,0,.08.39.48.48,0,0,0,.16.24A.28.28,0,0,0,58.68,29.6Z"/><path class="cls-1" d="M61.56,28.93a.7.7,0,0,1,.32.12,1.33,1.33,0,0,1,.29.29,1.54,1.54,0,0,1,.19.47,2,2,0,0,1,.06.61,2,2,0,0,1-.08.46,1,1,0,0,1-.15.34.23.23,0,0,1-.07.11,1,1,0,0,1-.3.25l-.13.06a.27.27,0,0,1-.13,0,.87.87,0,0,1-.4-.09.89.89,0,0,1-.29-.26,1.43,1.43,0,0,1-.19-.37,2.2,2.2,0,0,1-.09-.43c0-.15,0-.33,0-.54s0-.42,0-.64,0-.45,0-.66,0-.4.05-.55a3.54,3.54,0,0,1,.11-.44,1.25,1.25,0,0,1,.2-.38.93.93,0,0,1,.33-.25,1.13,1.13,0,0,1,.51-.05.57.57,0,0,1,.32.12.64.64,0,0,1,.2.24.84.84,0,0,1,.08.31.73.73,0,0,1,0,.3.51.51,0,0,1-.15.23.32.32,0,0,1-.24.09.3.3,0,0,1-.23-.1A.31.31,0,0,1,61.6,28a.37.37,0,0,1,.06-.21.32.32,0,0,1,.17-.11h0a.23.23,0,0,0,.14-.11.2.2,0,0,0,0-.17.4.4,0,0,0-.12-.15.4.4,0,0,0-.24-.07.3.3,0,0,0-.25.12.74.74,0,0,0-.17.29,2.23,2.23,0,0,0-.09.39l-.06.41c0,.1,0,.22,0,.37v.49A.49.49,0,0,1,61.56,28.93Zm0,.16a.35.35,0,0,0-.28.11.86.86,0,0,0-.2.46c0,.1,0,.21,0,.31v.3c0,.1,0,.19,0,.27a.74.74,0,0,0,0,.18c0,.23.05.41.08.53a.26.26,0,0,0,.16.22l.17,0c.13,0,.23-.07.3-.25a3.22,3.22,0,0,0,.14-.87,3.25,3.25,0,0,0,0-.55,1.86,1.86,0,0,0-.08-.41.59.59,0,0,0-.15-.25A.23.23,0,0,0,61.55,29.09Z"/><path class="cls-1" d="M65.15,27a3,3,0,0,1,0,.3c0,.09,0,.2,0,.32s0,.24,0,.36a1.48,1.48,0,0,1-.09.35,2,2,0,0,1-.13.29,3.31,3.31,0,0,1-.18.29l-.22.36a1.07,1.07,0,0,0-.17.46,2.89,2.89,0,0,0,0,.5,3.48,3.48,0,0,0,0,.47c0,.14,0,.26,0,.34a.77.77,0,0,1-.08.42.26.26,0,0,1-.23.16h-.13a.35.35,0,0,1-.13-.08.4.4,0,0,1-.11-.18,1.22,1.22,0,0,1-.06-.33,1.53,1.53,0,0,1,0-.46,3.53,3.53,0,0,1,.15-.55,3.56,3.56,0,0,1,.29-.59,2.9,2.9,0,0,1,.42-.59,2.34,2.34,0,0,0,.29-.46,3.22,3.22,0,0,0,.16-.42,3.12,3.12,0,0,0,.06-.37,2.45,2.45,0,0,0,0-.25.56.56,0,0,1-.28.22.51.51,0,0,1-.3,0,1.12,1.12,0,0,1-.31-.1,1.33,1.33,0,0,0-.26-.11.25.25,0,0,0-.22,0,.3.3,0,0,0-.11.14.78.78,0,0,0,0,.24h-.19V27h.64a.62.62,0,0,1,.25,0l.18.07.15.09a.34.34,0,0,0,.18,0,.29.29,0,0,0,.17,0l.09-.07L65,27Z"/><path class="cls-1" d="M4.29,53a.13.13,0,0,0-.11-.05A.58.58,0,0,0,4,53a2.08,2.08,0,0,1-.33.22,3.83,3.83,0,0,1-.54.21,3.09,3.09,0,0,1-.8.09,2.93,2.93,0,0,1-1-.15A2.3,2.3,0,0,1,.65,53a2.16,2.16,0,0,1-.48-.67A2.14,2.14,0,0,1,0,51.47a1.66,1.66,0,0,1,.16-.73,1.93,1.93,0,0,1,.46-.61,2.42,2.42,0,0,1,.74-.42,2.67,2.67,0,0,1,1-.16,2.62,2.62,0,0,1,.66.07,3.75,3.75,0,0,1,.51.13l.36.14a.44.44,0,0,0,.19.07.1.1,0,0,0,.07,0l0,0,.09.06-.46.8-.1,0a.13.13,0,0,0,0-.09s0-.09-.12-.16a1.31,1.31,0,0,0-.3-.18,3.18,3.18,0,0,0-.46-.14,2,2,0,0,0-.56-.07,2.08,2.08,0,0,0-.6.09,1.5,1.5,0,0,0-.54.26,1.45,1.45,0,0,0-.39.46,1.41,1.41,0,0,0-.15.67,1.16,1.16,0,0,0,.16.61,1.57,1.57,0,0,0,.4.49,2,2,0,0,0,.58.31,2.19,2.19,0,0,0,.67.11A1.53,1.53,0,0,0,2.94,53a1.87,1.87,0,0,0,.43-.19,1.48,1.48,0,0,0,.3-.23.32.32,0,0,0,.11-.19.12.12,0,0,0,0-.1l.1-.06.55.72Z"/><path class="cls-1" d="M7.27,53.08l-.06.15a.3.3,0,0,0,0,.13c0,.06,0,.08.12.08v.09H6.38v-.09h.07a.12.12,0,0,0,.07,0,.36.36,0,0,0,.06-.11,1.54,1.54,0,0,0,.1-.19l1.36-3,.09-.19a.26.26,0,0,0,0-.1c0-.06-.05-.09-.14-.09V49.6H9.11v.09q-.12,0-.12.09a.3.3,0,0,0,0,.11s.06.12.1.2l1.44,3,.1.21a.72.72,0,0,0,.07.11.15.15,0,0,0,.07,0h.11v.09h-1v-.09c.06,0,.1,0,.12,0a.11.11,0,0,0,0-.08.24.24,0,0,0,0-.08l-.08-.18-.28-.59H7.53ZM9.39,52l-.85-1.76L7.77,52Z"/><path class="cls-1" d="M14.13,53.44c.07,0,.11,0,.14,0a.22.22,0,0,0,0-.13V50.09H13.05a.35.35,0,0,0-.2,0,.18.18,0,0,0-.06.16H12.7V49.4h.09c0,.13.09.2.26.2h3.14c.18,0,.27-.07.27-.2h.08v.89h-.08a.19.19,0,0,0-.07-.16.33.33,0,0,0-.2,0H14.94v3.17a.23.23,0,0,0,0,.13s.07,0,.15,0v.09h-1Z"/><path class="cls-1" d="M19,49.87a.17.17,0,0,0,0-.13s-.07-.05-.14-.05V49.6H22c.13,0,.21,0,.24,0a.11.11,0,0,0,.06-.11h.09v.85h-.09a.2.2,0,0,0-.06-.15.35.35,0,0,0-.24-.06H19.65v1.18h1.52a.48.48,0,0,0,.22,0,.18.18,0,0,0,.09-.17h.09V52h-.09a.19.19,0,0,0-.07-.16.45.45,0,0,0-.23,0H19.65V53h2.5a.37.37,0,0,0,.23-.06.21.21,0,0,0,.08-.19h.09v.89h-.09q0-.15-.27-.15H18.84v-.09c.07,0,.12,0,.14,0a.17.17,0,0,0,0-.13Z"/><path class="cls-1" d="M25.88,53.26a.22.22,0,0,0,0,.13s.07,0,.14,0v.09h-1v-.09a.16.16,0,0,0,.14,0,.23.23,0,0,0,0-.13V49.87a.23.23,0,0,0,0-.13.16.16,0,0,0-.14-.05V49.6h2.5a1.57,1.57,0,0,1,1.06.28,1,1,0,0,1,.33.81,1.13,1.13,0,0,1-.25.75,1.3,1.3,0,0,1-.81.35l.94,1.46a.82.82,0,0,0,.14.16.3.3,0,0,0,.16,0v.09H28.07v-.09h.12a.05.05,0,0,0,0,0,.12.12,0,0,0,0-.09l-.92-1.46H25.88Zm1.64-1.94a1,1,0,0,0,.65-.17.64.64,0,0,0,.18-.47,1,1,0,0,0,0-.26.4.4,0,0,0-.14-.18.71.71,0,0,0-.26-.1,2.68,2.68,0,0,0-.44,0h-1.6v1.21Z"/><path class="cls-1" d="M31.64,53.44a.17.17,0,0,0,.15,0,.23.23,0,0,0,0-.13V49.87a.23.23,0,0,0,0-.13.17.17,0,0,0-.15-.05V49.6h1v.09c-.07,0-.11,0-.14.05a.22.22,0,0,0,0,.13v3.39a.22.22,0,0,0,0,.13s.07,0,.14,0v.09h-1Z"/><path class="cls-1" d="M38.91,52.55V49.87a.17.17,0,0,0,0-.13s-.07-.05-.14-.05V49.6h.9v.09c-.07,0-.12,0-.14.05a.17.17,0,0,0,0,.13v3.39a.17.17,0,0,0,0,.13s.07,0,.14,0v.09h-1v-.09q.15,0,.15-.06a.11.11,0,0,0,0-.08l0-.06-2.67-3v3a.17.17,0,0,0,0,.13s.07,0,.14,0v.09h-.9v-.09a.17.17,0,0,0,.15,0,.23.23,0,0,0,0-.13V49.87a.23.23,0,0,0,0-.13.17.17,0,0,0-.15-.05V49.6h1.27v.09c-.06,0-.09,0-.11,0a.06.06,0,0,0,0,.06.11.11,0,0,0,0,0l0,0,2.35,2.68Z"/><path class="cls-1" d="M44.82,52.05c-.18,0-.27.06-.27.17h-.09v-.89h.09c0,.15.09.23.27.23h1.6v.09c-.05,0-.09,0-.1,0a.28.28,0,0,0,0,.16v.65a.32.32,0,0,0,0,.17.23.23,0,0,0,.1.05v.09a3.19,3.19,0,0,1-1.1.59,3.75,3.75,0,0,1-1,.17,3,3,0,0,1-.91-.14,2.08,2.08,0,0,1-.72-.39,1.7,1.7,0,0,1-.48-.62,1.73,1.73,0,0,1-.18-.79,2,2,0,0,1,.17-.82,2,2,0,0,1,.47-.65,1.94,1.94,0,0,1,.7-.44,2.3,2.3,0,0,1,.88-.16,3.53,3.53,0,0,1,.8.08,3.06,3.06,0,0,1,.87.35.28.28,0,0,0,.18.08.13.13,0,0,0,.08,0,.18.18,0,0,0,0-.07l.09.06-.52.77-.09-.06a.12.12,0,0,0,0-.09.27.27,0,0,0-.11-.16,1.67,1.67,0,0,0-.31-.2,2.58,2.58,0,0,0-.47-.16,2.22,2.22,0,0,0-.59-.07,1.78,1.78,0,0,0-.72.13,1.53,1.53,0,0,0-.51.32,1.32,1.32,0,0,0-.29.48,1.73,1.73,0,0,0-.09.56,1.48,1.48,0,0,0,.13.65,1.5,1.5,0,0,0,.34.47,1.63,1.63,0,0,0,.49.29,1.65,1.65,0,0,0,.58.1,3,3,0,0,0,.88-.12,2.32,2.32,0,0,0,.65-.32v-.57Z"/><path class="cls-1" d="M52.81,53.08l-.06.15a.3.3,0,0,0,0,.13c0,.06,0,.08.13.08v.09h-.92v-.09H52a.13.13,0,0,0,.06,0,.72.72,0,0,0,.07-.11l.09-.19,1.36-3,.09-.19a.26.26,0,0,0,0-.1c0-.06-.05-.09-.14-.09V49.6h1.1v.09q-.12,0-.12.09a.26.26,0,0,0,0,.11s.06.12.1.2l1.44,3,.1.21a.72.72,0,0,0,.07.11l.07,0h.11v.09h-1v-.09c.06,0,.1,0,.12,0a.11.11,0,0,0,0-.08.24.24,0,0,0,0-.08l-.08-.18-.28-.59H53.07ZM54.93,52l-.84-1.76L53.31,52Z"/><path class="cls-1" d="M62.21,52.55V49.87a.22.22,0,0,0,0-.13s-.07-.05-.14-.05V49.6h.89v.09c-.07,0-.11,0-.14.05a.23.23,0,0,0,0,.13v3.39a.23.23,0,0,0,0,.13s.07,0,.14,0v.09H62v-.09q.15,0,.15-.06a.11.11,0,0,0,0-.08L62,53.24l-2.66-3v3a.17.17,0,0,0,0,.13s.07,0,.14,0v.09h-.9v-.09c.07,0,.12,0,.14,0a.17.17,0,0,0,0-.13V49.87a.17.17,0,0,0,0-.13s-.07-.05-.14-.05V49.6h1.26v.09c-.05,0-.09,0-.11,0a.06.06,0,0,0,0,.06l0,0,0,0,2.35,2.68Z"/><path class="cls-1" d="M65.71,49.87a.17.17,0,0,0,0-.13s-.07-.05-.14-.05V49.6h2.32a2.37,2.37,0,0,1,.83.14,1.86,1.86,0,0,1,.63.41,1.79,1.79,0,0,1,.4.63,2,2,0,0,1,.14.79,2.45,2.45,0,0,1-.12.78,1.61,1.61,0,0,1-.35.63,1.69,1.69,0,0,1-.59.41,2.2,2.2,0,0,1-.8.14H65.53v-.09c.07,0,.12,0,.14,0a.17.17,0,0,0,0-.13ZM67.92,53a1.25,1.25,0,0,0,1-.37,1.62,1.62,0,0,0,.33-1.1,1.48,1.48,0,0,0-.38-1.1,1.46,1.46,0,0,0-1.07-.38H66.34V53Z"/><path class="cls-1" d="M75.9,49.87a.17.17,0,0,0,0-.13s-.07-.05-.14-.05V49.6h3.14c.13,0,.21,0,.24,0a.11.11,0,0,0,.06-.11h.09v.85h-.09a.2.2,0,0,0-.06-.15.35.35,0,0,0-.24-.06H76.53v1.18h1.52a.48.48,0,0,0,.22,0,.18.18,0,0,0,.09-.17h.09V52h-.09a.19.19,0,0,0-.07-.16.45.45,0,0,0-.23,0H76.53V53H79a.37.37,0,0,0,.23-.06.21.21,0,0,0,.08-.19h.09v.89h-.09q0-.15-.27-.15H75.72v-.09c.07,0,.12,0,.14,0a.17.17,0,0,0,0-.13Z"/><path class="cls-1" d="M82.91,53.44a.26.26,0,0,0,.14,0,.09.09,0,0,0,0-.07v-.07l0-.09-1.47-3.25a.58.58,0,0,0-.13-.21.29.29,0,0,0-.17,0V49.6h1.08v.09c-.13,0-.19,0-.19.12a.07.07,0,0,0,0,.06l0,.07,1.29,2.87,1.23-2.87,0-.07a.14.14,0,0,0,0-.06.13.13,0,0,0,0-.09.3.3,0,0,0-.16,0V49.6h1.06v.09a.31.31,0,0,0-.17.05.69.69,0,0,0-.13.2l-1.4,3.25,0,.07a.51.51,0,0,0,0,.09.09.09,0,0,0,0,.07s.07,0,.14,0v.09H82.91Z"/><path class="cls-1" d="M87.86,49.87a.17.17,0,0,0,0-.13s-.07-.05-.14-.05V49.6h3.14a.42.42,0,0,0,.24,0s0-.06,0-.11h.09v.85h-.09a.2.2,0,0,0-.06-.15.32.32,0,0,0-.23-.06H88.49v1.18H90a.48.48,0,0,0,.22,0,.17.17,0,0,0,.08-.17h.09V52h-.09a.18.18,0,0,0-.06-.16.45.45,0,0,0-.23,0H88.49V53H91a.37.37,0,0,0,.23-.06.21.21,0,0,0,.07-.19h.09v.89h-.09c0-.1-.08-.15-.26-.15H87.68v-.09c.07,0,.12,0,.14,0a.17.17,0,0,0,0-.13Z"/><path class="cls-1" d="M97.46,52.55V49.87a.17.17,0,0,0,0-.13s-.07-.05-.14-.05V49.6h.9v.09c-.07,0-.12,0-.14.05a.17.17,0,0,0,0,.13v3.39a.17.17,0,0,0,0,.13s.07,0,.14,0v.09h-1v-.09q.15,0,.15-.06a.11.11,0,0,0,0-.08l0-.06-2.66-3v3a.17.17,0,0,0,0,.13s.07,0,.14,0v.09h-.9v-.09a.17.17,0,0,0,.15,0,.23.23,0,0,0,0-.13V49.87a.23.23,0,0,0,0-.13.17.17,0,0,0-.15-.05V49.6h1.27v.09c-.06,0-.1,0-.11,0a.06.06,0,0,0,0,.06.11.11,0,0,0,0,0l0,0,2.35,2.68Z"/><path class="cls-1" d="M101.94,53.44c.07,0,.12,0,.14,0a.17.17,0,0,0,0-.13V50.09h-1.25a.37.37,0,0,0-.21,0,.18.18,0,0,0-.06.16h-.09V49.4h.09c0,.13.09.2.27.2H104c.17,0,.26-.07.26-.2h.09v.89h-.09a.18.18,0,0,0-.06-.16.35.35,0,0,0-.2,0h-1.26v3.17a.17.17,0,0,0,0,.13s.07,0,.14,0v.09h-1Z"/><path class="cls-1" d="M107,52.35a.2.2,0,0,0,0,.1.31.31,0,0,0,.13.22,1.33,1.33,0,0,0,.34.2,3,3,0,0,0,.48.15,2.57,2.57,0,0,0,.55.06,2,2,0,0,0,1-.2.63.63,0,0,0,.32-.54.46.46,0,0,0-.08-.27.52.52,0,0,0-.22-.16,1.38,1.38,0,0,0-.32-.07,2.38,2.38,0,0,0-.39,0H108a2.59,2.59,0,0,1-.71-.1,1.13,1.13,0,0,1-.53-.31.88.88,0,0,1-.21-.64.84.84,0,0,1,.15-.49,1.25,1.25,0,0,1,.41-.38,2,2,0,0,1,.61-.25,3,3,0,0,1,.76-.09,3,3,0,0,1,.56.05l.41.09.28.1a.54.54,0,0,0,.19.05.21.21,0,0,0,.12,0l.07-.07.09,0-.41.86-.08,0v-.1a.17.17,0,0,0-.08-.13.89.89,0,0,0-.26-.14,1.8,1.8,0,0,0-.39-.12,2,2,0,0,0-.5-.05,2,2,0,0,0-1,.19.58.58,0,0,0-.36.51.34.34,0,0,0,.08.23.48.48,0,0,0,.22.13,1.38,1.38,0,0,0,.32.07H109a2.56,2.56,0,0,1,.7.12,1.13,1.13,0,0,1,.53.34,1,1,0,0,1,.21.68,1,1,0,0,1-.12.46,1.35,1.35,0,0,1-.37.39,2.29,2.29,0,0,1-.61.27,3.52,3.52,0,0,1-.84.1,3.44,3.44,0,0,1-.7-.07,2.6,2.6,0,0,1-.51-.15c-.14-.05-.25-.11-.34-.15a.54.54,0,0,0-.22-.08.24.24,0,0,0-.16.09l-.07,0,.4-.86Z"/><path class="cls-1" d="M115.09,0h.19a2.65,2.65,0,0,1,.38.05,2.19,2.19,0,0,1,.7.26,2.31,2.31,0,0,1,.7.58,2.25,2.25,0,0,1,.38.63,2.52,2.52,0,0,1,.19.81,2.5,2.5,0,0,1,0,.55,2.29,2.29,0,0,1-.21.64,2.21,2.21,0,0,1-.41.6,2.32,2.32,0,0,1-.69.52,2.42,2.42,0,0,1-1,.27,2.59,2.59,0,0,1-.56,0A2.25,2.25,0,0,1,114,4.6a2.37,2.37,0,0,1-.74-.63,2.3,2.3,0,0,1-.52-1.35.22.22,0,0,1,0-.08V2.35l0-.3a2.47,2.47,0,0,1,.19-.6,2.27,2.27,0,0,1,.39-.61A2.43,2.43,0,0,1,114,.29a2.13,2.13,0,0,1,.68-.24A1.65,1.65,0,0,1,115,0Zm.08.38a2.06,2.06,0,0,0-2.07,2.07A2.08,2.08,0,1,0,115.17.38Z"/><path class="cls-1" d="M116.19,3.59h-.36a0,0,0,0,1,0,0l-.51-.8h-.5v.83h-.38V1.32h1a.86.86,0,0,1,.32.05.93.93,0,0,1,.27.12.53.53,0,0,1,.21.31,1.18,1.18,0,0,1,0,.2.83.83,0,0,1,0,.27.53.53,0,0,1-.08.17.57.57,0,0,1-.33.24l-.15,0h0ZM114.8,2.44h.66l.18-.06a.18.18,0,0,0,.09,0,.4.4,0,0,0,.12-.16.53.53,0,0,0,0-.25.2.2,0,0,0-.08-.15l-.13-.09-.11,0h-.74Z"/><path class="cls-2" d="M111.46,44.57H.2v.3H111.46ZM42.39,29.46H.2v.3H42.39Zm26.88,0v.3h42.19v-.3Zm-65,7a1.2,1.2,0,0,1-.06.4,1,1,0,0,1-.15.29.6.6,0,0,1-.19.17.38.38,0,0,1-.19.06.38.38,0,0,1,.18.06.6.6,0,0,1,.19.17.9.9,0,0,1,.16.29,1.35,1.35,0,0,1,.06.43v.59a.86.86,0,0,1-.07.36,1.33,1.33,0,0,1-.18.31,1,1,0,0,1-.25.21.49.49,0,0,1-.25.08H2.26v-.18a.11.11,0,0,0,.08,0,.13.13,0,0,0,.07-.06.46.46,0,0,0,0-.14V35.23a.41.41,0,0,0,0-.14A.13.13,0,0,0,2.34,35H2.26v-.18H3.34a1.08,1.08,0,0,1,.42.08.84.84,0,0,1,.28.2,1,1,0,0,1,.17.29,1.26,1.26,0,0,1,0,.33ZM2.92,35v2.25h.34a.59.59,0,0,0,.29-.07.44.44,0,0,0,.21-.26s0,0,0-.07a.17.17,0,0,1,0-.07.06.06,0,0,1,0,0,.78.78,0,0,0,0-.16c0-.05,0-.12,0-.19v-.79a.67.67,0,0,0-.06-.3.59.59,0,0,0-.14-.19.34.34,0,0,0-.15-.07L3.3,35Zm0,4.66h.29a.59.59,0,0,0,.36-.11.54.54,0,0,0,.23-.38.51.51,0,0,0,0-.13s0-.09,0-.14v-.63a2.11,2.11,0,0,0,0-.26s0,0,0,0h0l0-.08a.19.19,0,0,0,0-.07.66.66,0,0,0-.21-.31.56.56,0,0,0-.29-.1H2.92Zm7.33-.2a.23.23,0,0,0,.06.14.21.21,0,0,0,.1.06h.12v.17h-1v-.17h.12l.06-.06a.2.2,0,0,0,0-.14l0-.25c0-.15-.06-.36-.1-.62h-.9c0,.26-.08.47-.1.62s0,.24,0,.25,0,.11,0,.14l.06.06h.11v.17H8v-.17h.13a.27.27,0,0,0,.1-.06.23.23,0,0,0,.06-.14,1.76,1.76,0,0,0,0-.21c0-.13.05-.3.09-.52s.09-.46.14-.74.1-.56.15-.85l.43-2.29h.35c.14.85.26,1.61.37,2.29,0,.29.09.57.13.84s.08.53.11.74.07.4.09.53S10.25,39.47,10.25,39.47Zm-1.56-1h.85c0-.19-.06-.4-.09-.62s-.08-.43-.11-.66-.07-.43-.1-.64-.07-.41-.1-.58c0,.17-.07.37-.11.58l-.12.64c0,.23-.08.45-.11.66S8.73,38.23,8.69,38.42Zm7.63,1.28h.08l.05,0v.15a.26.26,0,0,1-.1.07.4.4,0,0,1-.17,0l-.18,0a.48.48,0,0,1-.17-.12.7.7,0,0,1-.13-.19,1.31,1.31,0,0,1-.06-.31V38.11a.62.62,0,0,0,0-.25.31.31,0,0,0-.11-.14l-.14-.07-.14,0h-.29v1.83a.28.28,0,0,0,0,.15s0,0,.06,0a.14.14,0,0,0,.09,0v.18h-.84v-.18a.11.11,0,0,0,.08,0s.05,0,.07,0a.28.28,0,0,0,0-.15V35.21a.28.28,0,0,0,0-.15.13.13,0,0,0-.07-.06h-.08v-.17h1a1.14,1.14,0,0,1,.46.09,1,1,0,0,1,.33.23,1,1,0,0,1,.2.32,1.16,1.16,0,0,1,.07.37v.77a1.13,1.13,0,0,1-.14.53.87.87,0,0,1-.44.38.61.61,0,0,1,.4.62v1.12a2.54,2.54,0,0,0,0,.31A.15.15,0,0,0,16.32,39.7ZM14.92,35v2.43h.38l.15,0a.66.66,0,0,0,.17-.12,1.1,1.1,0,0,0,.14-.21.76.76,0,0,0,.06-.32V35.69a.67.67,0,0,0-.06-.3.93.93,0,0,0-.14-.22.48.48,0,0,0-.17-.12.37.37,0,0,0-.15,0Zm6.41,0a.66.66,0,0,0-.2.06.43.43,0,0,0-.17.13.67.67,0,0,0-.12.24,1.79,1.79,0,0,0,0,.36v.71c0,.27,0,.55,0,.84s0,.58,0,.85v.71a1,1,0,0,0,.15.63.48.48,0,0,0,.38.18.88.88,0,0,0,.33,0,.56.56,0,0,0,.25-.16.73.73,0,0,0,.16-.29,1.58,1.58,0,0,0,.05-.46v-.19h.17v.35a1,1,0,0,1-.25.71,1,1,0,0,1-.71.25,1,1,0,0,1-.43-.11.86.86,0,0,1-.36-.32,1,1,0,0,1-.14-.3,2.35,2.35,0,0,1-.06-.42,5.34,5.34,0,0,1,0-.59v-.79c0-.41,0-.74,0-1a4.08,4.08,0,0,1,.05-.67.92.92,0,0,1,.15-.4A.87.87,0,0,1,20.8,35a1,1,0,0,1,.53-.16h.18l.26.09.17.08A.07.07,0,0,0,22,35a.18.18,0,0,0,.09-.18h.17v1.22h-.16a2,2,0,0,0,0-.23c0-.06,0-.14,0-.22a.7.7,0,0,0-.08-.23l-.06-.1a.71.71,0,0,0-.12-.13.64.64,0,0,0-.2-.11A.62.62,0,0,0,21.33,35Zm6.79,4.1v.73H26.17v-.18a.14.14,0,0,0,.09,0s0,0,.06,0a.28.28,0,0,0,0-.15V35.21a.31.31,0,0,0,0-.15.17.17,0,0,0-.06-.06h-.09v-.16h1.95v.73h-.18a1.27,1.27,0,0,0,0-.29.44.44,0,0,0-.12-.19.25.25,0,0,0-.22-.1h-.72v2.27h.49a.22.22,0,0,0,.14,0,.41.41,0,0,0,.07-.11.9.9,0,0,0,0-.18h.17v.86h-.17a.7.7,0,0,0,0-.16.54.54,0,0,0-.07-.13.22.22,0,0,0-.14-.05h-.49v2.23h.72a.26.26,0,0,0,.22-.08.41.41,0,0,0,.12-.2,1.18,1.18,0,0,0,0-.28Zm5.79,0v.73H32v-.18a.14.14,0,0,0,.09,0s0,0,.06,0a.21.21,0,0,0,0-.15V35.21a.22.22,0,0,0,0-.15.17.17,0,0,0-.06-.06H32v-.16h.85V35h-.1a.17.17,0,0,0-.06.06.32.32,0,0,0,0,.15v4.45h.65a.32.32,0,0,0,.23-.08.45.45,0,0,0,.11-.19,1.18,1.18,0,0,0,0-.28Zm5.86-1.76v.79c0,.22,0,.42,0,.59a1.67,1.67,0,0,1-.07.42,1,1,0,0,1-.13.3.92.92,0,0,1-.36.32,1,1,0,0,1-.44.11,1.06,1.06,0,0,1-.44-.11,1,1,0,0,1-.36-.32,1,1,0,0,1-.13-.3,2.29,2.29,0,0,1-.07-.42c0-.17,0-.37,0-.59v-1.8a3.83,3.83,0,0,1,.07-.67.8.8,0,0,1,.14-.4.87.87,0,0,1,.27-.27,1,1,0,0,1,.53-.16.84.84,0,0,1,.27,0,1,1,0,0,1,.54.39.91.91,0,0,1,.14.4,4.08,4.08,0,0,1,0,.67C39.76,36.61,39.77,36.94,39.77,37.35Zm-.49,1.56V38.2c0-.27,0-.56,0-.85s0-.57,0-.84V35.8a.94.94,0,0,0-.15-.61.48.48,0,0,0-.38-.18.49.49,0,0,0-.38.18.94.94,0,0,0-.15.61v3.11a1,1,0,0,0,.14.63.46.46,0,0,0,.4.18.45.45,0,0,0,.39-.18A1.14,1.14,0,0,0,39.28,38.91Zm6.07-4.07H46V35a.2.2,0,0,0-.11,0l-.06.06a.2.2,0,0,0,0,.14v4.62h-.58l-1.17-4v3.64c0,.07,0,.12,0,.14l.06.06a.2.2,0,0,0,.11,0v.18H43.6v-.18a.17.17,0,0,0,.1,0,.19.19,0,0,0,.07-.06.22.22,0,0,0,0-.14V35.22a.26.26,0,0,0,0-.14A.19.19,0,0,0,43.7,35a.17.17,0,0,0-.1,0v-.18h.72l1.23,4.26V35.22a.26.26,0,0,0,0-.14.19.19,0,0,0-.07-.06.17.17,0,0,0-.1,0ZM52,39.47a.23.23,0,0,0,.06.14.27.27,0,0,0,.1.06h.13v.17h-1v-.17h.11a.13.13,0,0,0,.07-.06.28.28,0,0,0,0-.14s0-.09,0-.25-.06-.36-.09-.62h-.9c-.05.26-.08.47-.11.62s0,.24,0,.25a.2.2,0,0,0,0,.14.09.09,0,0,0,.06.06h.11v.17h-.67v-.17h.12a.21.21,0,0,0,.1-.06.23.23,0,0,0,.07-.14s0-.07,0-.21.05-.3.09-.52.08-.46.14-.74.1-.56.15-.85L51,34.86h.36c.13.85.25,1.61.36,2.29,0,.29.09.57.13.84s.08.53.12.74.06.4.09.53Zm-1.55-1h.85c0-.19-.06-.4-.1-.62s-.07-.43-.1-.66-.07-.43-.11-.64-.07-.41-.09-.58c0,.17-.08.37-.12.58s-.07.42-.11.64-.08.45-.12.66S50.52,38.23,50.49,38.42Zm30-3.42h-.1l0,.06a.31.31,0,0,0,0,.15v4.25a.28.28,0,0,0,0,.15s0,0,0,0a.17.17,0,0,0,.1,0v.18h-.85v-.18a.14.14,0,0,0,.09,0s0,0,.07,0a.28.28,0,0,0,0-.15V35.62c-.12.49-.23.92-.33,1.31,0,.16-.08.32-.11.48s-.08.3-.11.43-.06.23-.08.31l0,.12h-.29c0-.1-.06-.23-.1-.36s-.07-.28-.11-.43-.07-.29-.11-.44-.07-.29-.11-.43c-.08-.32-.16-.65-.25-1v3.84a.26.26,0,0,0,0,.14.06.06,0,0,0,.06,0s0,0,.09,0v.19h-.6v-.19s.07,0,.09,0,0,0,.06,0a.26.26,0,0,0,0-.14V35.21a.31.31,0,0,0,0-.15.17.17,0,0,0-.06-.06h-.09v-.16h.69l.7,2.65.66-2.65h.66Zm6,4.47a.23.23,0,0,0,.06.14.21.21,0,0,0,.1.06h.13v.17h-1v-.17h.11a.17.17,0,0,0,.06-.06.19.19,0,0,0,0-.14s0-.09,0-.25-.06-.36-.1-.62h-.89c-.05.26-.09.47-.11.62s0,.24,0,.25a.32.32,0,0,0,0,.14.17.17,0,0,0,.06.06H85v.17h-.67v-.17h.13a.21.21,0,0,0,.1-.06.3.3,0,0,0,.07-.14l0-.21c0-.13.06-.3.1-.52l.13-.74c0-.27.11-.56.16-.85l.42-2.29h.35c.14.85.26,1.61.37,2.29,0,.29.09.57.13.84s.08.53.12.74.06.4.08.53S86.51,39.47,86.51,39.47Zm-1.56-1h.85c0-.19-.06-.4-.09-.62s-.07-.43-.11-.66-.07-.43-.1-.64-.07-.41-.1-.58c0,.17-.07.37-.11.58s-.07.42-.11.64l-.12.66C85,38,85,38.23,85,38.42Zm7.77-2.55v3a1,1,0,0,1-.07.37.83.83,0,0,1-.2.32.86.86,0,0,1-.33.23,1.13,1.13,0,0,1-.47.09H90.58v-.18h.09a.13.13,0,0,0,.07-.06.41.41,0,0,0,0-.14V35.23a.41.41,0,0,0,0-.14.13.13,0,0,0-.07-.06h-.09v-.18h1.07a1.13,1.13,0,0,1,.47.09,1,1,0,0,1,.33.23.91.91,0,0,1,.2.32A1,1,0,0,1,92.72,35.87ZM91.25,35v4.62h.42l.24-.06a.62.62,0,0,0,.22-.17.93.93,0,0,0,.12-.45V35.71a.67.67,0,0,0,0-.24.68.68,0,0,0-.13-.24.63.63,0,0,0-.2-.13.83.83,0,0,0-.21-.06h-.42Zm7.39,4.67h.08l0,0v.15l-.1.07a.43.43,0,0,1-.17,0l-.18,0a.48.48,0,0,1-.17-.12.53.53,0,0,1-.13-.19.75.75,0,0,1-.06-.31V38.11a.62.62,0,0,0,0-.25.4.4,0,0,0-.11-.14l-.14-.07-.14,0h-.29v1.83a.28.28,0,0,0,0,.15s0,0,0,0a.14.14,0,0,0,.09,0v.18h-.84v-.18a.14.14,0,0,0,.09,0s0,0,.06,0a.27.27,0,0,0,0-.15V35.21a.27.27,0,0,0,0-.15.17.17,0,0,0-.06-.06h-.09v-.17h1a1.08,1.08,0,0,1,.46.09.93.93,0,0,1,.34.23,1,1,0,0,1,.26.69v.77a1.13,1.13,0,0,1-.14.53.85.85,0,0,1-.43.38.62.62,0,0,1,.4.62v1.12a1.42,1.42,0,0,0,0,.31A.15.15,0,0,0,98.64,39.7ZM97.24,35v2.43h.38l.15,0a.88.88,0,0,0,.17-.12.74.74,0,0,0,.13-.21.63.63,0,0,0,.06-.32V35.69a.56.56,0,0,0-.06-.3.67.67,0,0,0-.13-.22.59.59,0,0,0-.17-.12.37.37,0,0,0-.15,0Zm6,4.46a.28.28,0,0,0,0,.15s0,0,.06,0a.14.14,0,0,0,.09,0v.18h-.85v-.18a.17.17,0,0,0,.1,0s0,0,0,0a.28.28,0,0,0,0-.15V35.21a.31.31,0,0,0,0-.15l0-.06h-.1v-.16h.85V35h-.09l-.06.06a.31.31,0,0,0,0,.15Zm6.16-3.59v3a1.19,1.19,0,0,1-.06.37,1,1,0,0,1-.2.32.86.86,0,0,1-.33.23,1.16,1.16,0,0,1-.47.09h-1.07v-.18h.09a.12.12,0,0,0,.06-.06.24.24,0,0,0,0-.14V35.23a.24.24,0,0,0,0-.14.12.12,0,0,0-.06-.06h-.09v-.18h1.07a1.16,1.16,0,0,1,.47.09,1,1,0,0,1,.33.23,1.07,1.07,0,0,1,.2.32A1.26,1.26,0,0,1,109.4,35.87ZM107.93,35v4.62h.42a1.14,1.14,0,0,0,.25-.06.72.72,0,0,0,.22-.17.93.93,0,0,0,.12-.45V35.71a1,1,0,0,0,0-.24.57.57,0,0,0-.14-.24.5.5,0,0,0-.19-.13.83.83,0,0,0-.21-.06h-.43Zm-38.5-.34a2.39,2.39,0,0,1,.09.71,2,2,0,0,1-.17.71,2.14,2.14,0,0,1-.48.67,2.81,2.81,0,0,1-.8.54,4,4,0,0,1-1.41.39,1.84,1.84,0,0,1,.46.64,1.91,1.91,0,0,1,.17.84,2,2,0,0,1-.23,1,2.58,2.58,0,0,1-.56.7,2.32,2.32,0,0,1-.76.44,2.59,2.59,0,0,1-.77.16,3.59,3.59,0,0,1-.88-.08,3.2,3.2,0,0,1-1-.38,2.52,2.52,0,0,1-.78-.75A2.35,2.35,0,0,1,62,39a3.81,3.81,0,0,1,.15-1.31,2.86,2.86,0,0,1,.48-.92,2.47,2.47,0,0,1,.67-.56A2,2,0,0,1,64,36a1,1,0,0,1-.3-.59,1.56,1.56,0,0,1,.08-.74,1.37,1.37,0,0,1,.43-.62,1.27,1.27,0,0,1,.79-.3,1.34,1.34,0,0,1,.75.14.73.73,0,0,1,.33.35.47.47,0,0,1,0,.37.32.32,0,0,1-.29.19c-.14,0-.22,0-.25-.08a.42.42,0,0,1-.05-.22,2.18,2.18,0,0,0,0-.25.3.3,0,0,0-.11-.23.75.75,0,0,0-.76.09.85.85,0,0,0-.27.38,1.31,1.31,0,0,0-.08.61.83.83,0,0,0,.19.53.77.77,0,0,0,.32.24,1.25,1.25,0,0,0,.45.07v.24a3.35,3.35,0,0,0-.53.07,4.51,4.51,0,0,0-.53.13,2.07,2.07,0,0,0-.53.28,1.8,1.8,0,0,0-.44.43,2.16,2.16,0,0,0-.28.57,3.11,3.11,0,0,0-.16.7,4.59,4.59,0,0,0,0,.75,2.45,2.45,0,0,0,.55,1.46,1.87,1.87,0,0,0,.62.49,1.68,1.68,0,0,0,.81.2,2.39,2.39,0,0,0,.88-.14,2.48,2.48,0,0,0,.76-.44,2.61,2.61,0,0,0,.53-.63,1.4,1.4,0,0,0,.2-.72,2.33,2.33,0,0,0-.18-.95,1.56,1.56,0,0,0-.5-.64c-.3,0-.59.06-.87.08s-.53,0-.76.07a2.51,2.51,0,0,0-.58.17.72.72,0,0,0-.34.37,1.26,1.26,0,0,0-.11.66,1,1,0,0,0,.17.49,1.07,1.07,0,0,0,.34.33.85.85,0,0,0,.43.12H65c.12,0,.18-.06.19-.12a.26.26,0,0,0,0-.17l0,0,0,0a.46.46,0,0,1-.1-.29.46.46,0,0,1,.14-.34.45.45,0,0,1,.35-.14.47.47,0,0,1,.35.14.48.48,0,0,1,.09.55,1,1,0,0,1-.3.44,1.19,1.19,0,0,1-.43.23,1.54,1.54,0,0,1-.48,0,3.51,3.51,0,0,1-.43-.07,1.1,1.1,0,0,1-.59-.5,1.45,1.45,0,0,1-.22-.79,1.78,1.78,0,0,1,.23-.85,1.66,1.66,0,0,1,.76-.66,1.52,1.52,0,0,1,.5-.15h0s0,0,0,0l.5-.08.54-.07.64-.06a5,5,0,0,0,1.24-.34,2.82,2.82,0,0,0,.8-.5,1.5,1.5,0,0,0,.41-.6,1.27,1.27,0,0,0,.09-.59,1.42,1.42,0,0,0-.16-.45,1.12,1.12,0,0,0-.29-.36,1.09,1.09,0,0,0-.41-.22,1.11,1.11,0,0,0-.44,0,1.06,1.06,0,0,0-.7.3.92.92,0,0,0-.24.51,1.14,1.14,0,0,0,.05.52.67.67,0,0,0,.2.35l.05,0a.15.15,0,0,0,.06,0h0l0,0h0c.13.05.21.05.26,0a.19.19,0,0,0,0-.18.09.09,0,0,0,0,0s0,0,0,0a.3.3,0,0,1,0-.12.5.5,0,0,1,.48-.5.47.47,0,0,1,.35.15.5.5,0,0,1,.14.35.42.42,0,0,1-.25.42,1.18,1.18,0,0,1-.49.2,1,1,0,0,1-.5,0,.91.91,0,0,1-.42-.29,1.09,1.09,0,0,1-.2-.59,1.15,1.15,0,0,1,.12-.66,1.21,1.21,0,0,1,.43-.44,1.42,1.42,0,0,1,.59-.19,1.53,1.53,0,0,1,.64.05,1.37,1.37,0,0,1,.56.32A1.29,1.29,0,0,1,69.43,34.69Z"/></g></g></svg>