<svg xmlns="http://www.w3.org/2000/svg" viewBox="0 0 200.96 91.4"><defs><style>.cls-1{fill:#fff;}.cls-2{fill:#e1bb74;}</style></defs><title>logo</title><g id="Capa_2" data-name="Capa 2"><g id="Capa_1-2" data-name="Capa 1"><path class="cls-1" d="M179.82,40.79c-.13-.54,0-.82.61-1a5.16,5.16,0,0,0,3.11-5.81,8.37,8.37,0,0,0-3.88-5.81c-2.95-1.95-6-3.82-8.92-5.77a17.53,17.53,0,0,1-3.85-3.55,7.49,7.49,0,0,1,2.44-11.59,13.69,13.69,0,0,1,5.28-1.42c.14.45,0,.72-.46.92a5.06,5.06,0,0,0-2.63,6.91,8.54,8.54,0,0,0,3.23,3.61c2.83,1.9,5.7,3.74,8.49,5.7a26,26,0,0,1,3.51,3,10.06,10.06,0,0,1,2.7,5.36v1.89c0,.09-.07.18-.09.27a8.09,8.09,0,0,1-2,4.05,9.49,9.49,0,0,1-4.89,2.74c-.82.21-1.67.33-2.51.49ZM0,6.82a2.47,2.47,0,0,0,.29.06A2.74,2.74,0,0,1,2.77,8.65a7.1,7.1,0,0,1,.54,2.91c0,7.57,0,15.13,0,22.7a12.85,12.85,0,0,1-.43,3.08A2.73,2.73,0,0,1,.21,39.62s0,0-.11.09,0,.41,0,.64h14.4v-.78c-.38,0-.73,0-1.07,0-2.37-.19-3.5-1.17-3.94-3.51a15.23,15.23,0,0,1-.21-2.61q0-13.32,0-26.63V6.09H7L0,6.12Zm176.34,34c.22-.69.14-.77-.49-.95a18.1,18.1,0,0,1-3-1,10.79,10.79,0,0,1-5.15-5.94c-.56-1.39-1-2.84-1.42-4.3h-.67v.63c0,2.68,0,5.36,0,8a1,1,0,0,0,.62,1,21.26,21.26,0,0,0,7.22,2.17c.87.12,1.73.2,2.6.3Zm-75-11.15c-3.71,0-7.42,0-11.13,0a.94.94,0,0,0-1,.68c-1,2.19-1.94,4.38-3,6.52A14.67,14.67,0,0,1,84.58,39a.65.65,0,0,1-.84.16,5.57,5.57,0,0,1-3.29-3.26c-.28-.73-.45-1.52-.67-2.28a21.27,21.27,0,0,0-2.49-5.92,7,7,0,0,0-4.64-3.37l-.7-.12c.93-.22,1.76-.37,2.56-.61a7.2,7.2,0,0,0,4.91-4.08A10.58,10.58,0,0,0,80.16,15c-.1-4.37-2.07-6.88-6.28-8a29.81,29.81,0,0,0-6.78-.83c-.27,0-.54,0-.81,0v.69c.65.06,1.26.11,1.86.18a5.12,5.12,0,0,1,4.76,4A17.73,17.73,0,0,1,73,19.36a5.13,5.13,0,0,1-4.63,4.38c-.7.1-1.41.16-2.13.24v.8l.36.1a6.47,6.47,0,0,1,5.27,4.8c.32,1,.59,2.1.91,3.14.56,1.77,1.09,3.54,1.73,5.28a3.17,3.17,0,0,0,2.94,2.1c1.4.1,2.81.17,4.21.18,4,0,8,0,11.92,0h.61v-.8h-.88a3.87,3.87,0,0,1-4-4.18,14.81,14.81,0,0,1,.84-4.66c.1-.34.3-.37.59-.37,3.69,0,7.39,0,11.08,0a.58.58,0,0,1,.65.43c.51,1.31,1.07,2.6,1.55,3.92a12,12,0,0,1,.65,2.34c.22,1.48-.26,2.45-1.84,2.54,0,0,0,0-.07,0v.7l.47,0c7,0,14,0,21,0,.45,0,.55-.13.55-.56q0-16.59,0-33.18c0-.18,0-.35,0-.53h-9.47v.71a3.41,3.41,0,0,1,2.86,2.47,8.13,8.13,0,0,1,.56,3.2V33.57a14.22,14.22,0,0,1-.09,1.73,6.31,6.31,0,0,1-1.2,3.22,3.06,3.06,0,0,1-4.68,0,17.34,17.34,0,0,1-1.52-2.77q-6-14.58-11.94-29.2c-.12-.28-.23-.47-.59-.46s-.42.26-.51.5q-2.76,7.17-5.53,14.35c-.41,1.06-.82,2.12-1.22,3.2a1.22,1.22,0,0,0,0,.43h.15C93,21.24,94.46,17.92,96,14.47,98,19.58,100,24.56,102,29.64ZM32,39.59a3.81,3.81,0,0,1-4.07-3.74,12.48,12.48,0,0,1,.88-5.2c0-.13.32-.25.49-.25,3.72,0,7.45,0,11.17,0a.55.55,0,0,1,.59.39c.52,1.34,1.11,2.66,1.58,4a12.22,12.22,0,0,1,.66,2.73,1.71,1.71,0,0,1-1.73,2.07l-.2,0v.72h24.9v-.69l-.07,0-.2,0a2.79,2.79,0,0,1-2.65-2.1,9.15,9.15,0,0,1-.4-2.53c0-9.4,0-18.81,0-28.21V6.14H53.72v.43c0,.08,0,.16,0,.27l.54.06a2.5,2.5,0,0,1,2.43,2A7.8,7.8,0,0,1,57,10.76q0,12,0,24a9.34,9.34,0,0,1-.47,2.92,3,3,0,0,1-5.15.8,11.64,11.64,0,0,1-1.52-2.71q-6-14.6-11.94-29.2c-.11-.27-.18-.54-.6-.53s-.45.31-.55.57q-1,2.58-2,5.18Q32.36,17.92,30,24a2.47,2.47,0,0,0-.11.54l.2.06,4.42-10.13c2,5.11,4,10.1,6.07,15.17h-12a.61.61,0,0,0-.69.45c-.25.7-.56,1.38-.85,2.07a35.15,35.15,0,0,1-2.91,5.74,3.05,3.05,0,0,1-2.68,1.71v.75H32.79v-.76H32M148.15,6.13c-.11.71-.11.71.57.77a3.12,3.12,0,0,1,3,2.59,8.51,8.51,0,0,1,.17,1.82c0,7.7,0,15.4,0,23.09a9.78,9.78,0,0,1-.11,1.63,3.8,3.8,0,0,1-2.57,3.4c-.34.1-.7.14-1.07.21v.72h13.52v-.73A3.79,3.79,0,0,1,158,36.15a10.47,10.47,0,0,1-.13-1.68q0-11.59,0-23.19A9.91,9.91,0,0,1,158,10a3.27,3.27,0,0,1,3.12-3c.65-.06.65-.06.55-.77ZM128.83,7l.69.07a9.62,9.62,0,0,1,6.66,3.44,13.2,13.2,0,0,1,2.49,5.3,32.78,32.78,0,0,1,.79,9.26,24.63,24.63,0,0,1-1.38,7.84A9.37,9.37,0,0,1,131,39.24c-.93.2-1.89.28-2.86.42,0,.11,0,.24,0,.37s0,.19,0,.31l.36,0a28.79,28.79,0,0,0,8.53-1.44,13.38,13.38,0,0,0,9-9.88,24,24,0,0,0,.24-10.29A13.74,13.74,0,0,0,138,8.05a24.3,24.3,0,0,0-8.24-1.83c-.53,0-1.07-.06-1.63-.08V6.9l.68,0M22.72,23.77A7.06,7.06,0,0,0,26.51,19a15.67,15.67,0,0,0,.39-3.48c0-4.22-2-7-6-8.29A28,28,0,0,0,13,6.15a.44.44,0,0,0-.28.32c0,.14.16.37.27.39.5.09,1,.1,1.53.17a5.67,5.67,0,0,1,5.29,4.61A17.82,17.82,0,0,1,19.83,20a5.63,5.63,0,0,1-4.63,4.71,18.6,18.6,0,0,1-2,.25c-.63.07-.64.07-.51.83,3.45-.16,6.87-.33,10-2m165.47-8.12c0-2.4,0-4.79,0-7.19a.66.66,0,0,0-.46-.7,26.78,26.78,0,0,0-8.11-1.94c-.52-.05-1-.08-1.57-.11V6.5l.65.12A9.62,9.62,0,0,1,184,9.35a12.89,12.89,0,0,1,3.24,6.26c.15.63.15.63.91.51Z"/><path class="cls-2" d="M4.78,62.8a2.16,2.16,0,0,1-.11.71,1.8,1.8,0,0,1-.26.5,1.21,1.21,0,0,1-.34.31.68.68,0,0,1-.32.11.62.62,0,0,1,.31.1,1,1,0,0,1,.34.3,1.64,1.64,0,0,1,.27.51,2.37,2.37,0,0,1,.11.75v1a1.68,1.68,0,0,1-.12.63,2.08,2.08,0,0,1-.32.54,1.84,1.84,0,0,1-.43.37.86.86,0,0,1-.46.15H2.28l-1,0v-.3a.19.19,0,0,0,.15,0,.38.38,0,0,0,.11-.11.52.52,0,0,0,.05-.25V60.71a.57.57,0,0,0-.05-.26c0-.05-.07-.09-.11-.1a.2.2,0,0,0-.15,0V60H3.15a1.66,1.66,0,0,1,.74.14,1.38,1.38,0,0,1,.51.36,1.44,1.44,0,0,1,.29.51,1.9,1.9,0,0,1,.09.58ZM2.41,60.32v4H3a1.06,1.06,0,0,0,.5-.12.8.8,0,0,0,.37-.46.27.27,0,0,0,0-.12.93.93,0,0,1,0-.13.13.13,0,0,1,0-.06c0-.09,0-.18,0-.28s0-.21,0-.34V61.38a1.19,1.19,0,0,0-.11-.53,1,1,0,0,0-.24-.34.84.84,0,0,0-.27-.13l-.32-.06Zm0,8.21h.52a1.18,1.18,0,0,0,.64-.2,1,1,0,0,0,.4-.66c0-.08,0-.15,0-.23s0-.16,0-.25V66.08a2.19,2.19,0,0,0,0-.46s0,0,0,0v0l0-.13,0-.13a1.07,1.07,0,0,0-.39-.54.88.88,0,0,0-.5-.17H2.41Zm12.66-.36a.39.39,0,0,0,.11.25.42.42,0,0,0,.17.1.88.88,0,0,0,.23,0v.31H13.76v-.31a.67.67,0,0,0,.2,0,.26.26,0,0,0,.11-.1.43.43,0,0,0,0-.25s0-.16-.07-.43-.1-.64-.17-1.1H12.28l-.19,1.1c0,.27-.06.42-.06.43a.41.41,0,0,0,0,.25.26.26,0,0,0,.11.1.6.6,0,0,0,.19,0v.31H11.15v-.31a.81.81,0,0,0,.22,0,.4.4,0,0,0,.18-.1.45.45,0,0,0,.12-.25s0-.13.06-.36.1-.54.17-.93l.24-1.29.27-1.5.74-4h.63c.24,1.51.45,2.85.64,4,.08.51.16,1,.23,1.49s.14.92.2,1.3.12.7.16.93.06.36.06.37m-2.74-1.85h1.5c-.05-.33-.11-.69-.17-1.08s-.12-.77-.18-1.17-.13-.76-.19-1.13-.12-.71-.17-1c-.06.32-.13.66-.19,1s-.14.74-.21,1.13-.14.78-.2,1.17-.13.75-.19,1.08m13.19,2.26.14,0a.31.31,0,0,1,.1,0v.27a.68.68,0,0,1-.19.11.6.6,0,0,1-.29.06,1,1,0,0,1-.33-.06.89.89,0,0,1-.29-.2,1.12,1.12,0,0,1-.23-.35,1.37,1.37,0,0,1-.1-.54v-2a1.12,1.12,0,0,0-.08-.44.62.62,0,0,0-.19-.25.82.82,0,0,0-.25-.12l-.25,0h-.5v3.23a.51.51,0,0,0,0,.25c0,.06.07.09.11.1a.19.19,0,0,0,.15,0v.32H21.88v-.32a.19.19,0,0,0,.15,0s.08,0,.12-.1a.4.4,0,0,0,.06-.25V60.67a.45.45,0,0,0-.06-.26c0-.06-.07-.1-.12-.11h-.15V60h1.77a2,2,0,0,1,.8.16,1.67,1.67,0,0,1,.59.4,1.56,1.56,0,0,1,.35.56,1.93,1.93,0,0,1,.12.67v1.34a1.89,1.89,0,0,1-.25.94,1.54,1.54,0,0,1-.76.68,1.06,1.06,0,0,1,.7,1.08v2a2.19,2.19,0,0,0,.05.55.25.25,0,0,0,.27.23m-2.46-8.27v4.28h.66a.77.77,0,0,0,.27-.07,1.12,1.12,0,0,0,.29-.21,1.14,1.14,0,0,0,.25-.37,1.31,1.31,0,0,0,.11-.55V61.52a1.28,1.28,0,0,0-.36-.91,1,1,0,0,0-.29-.23.77.77,0,0,0-.27-.07Zm11,0a1.56,1.56,0,0,0-.37.1.73.73,0,0,0-.29.24,1,1,0,0,0-.21.42,2.77,2.77,0,0,0-.07.64V63c0,.48,0,1,0,1.49s0,1,0,1.5v1.25a1.74,1.74,0,0,0,.27,1.1.8.8,0,0,0,.66.33,1.81,1.81,0,0,0,.58-.09,1.07,1.07,0,0,0,.44-.28,1.34,1.34,0,0,0,.28-.53,2.64,2.64,0,0,0,.1-.8v-.34h.28v.63a1.71,1.71,0,0,1-.43,1.25,1.65,1.65,0,0,1-1.24.43,1.82,1.82,0,0,1-.77-.19,1.72,1.72,0,0,1-.64-.56,2.21,2.21,0,0,1-.24-.54,4.33,4.33,0,0,1-.11-.74c0-.29,0-.64,0-1V64.44c0-.72,0-1.31,0-1.78a7.32,7.32,0,0,1,.1-1.18,1.73,1.73,0,0,1,.25-.69,1.63,1.63,0,0,1,.49-.49A1.75,1.75,0,0,1,34.1,60h.12l.11,0,0,0,.1,0a1.82,1.82,0,0,1,.45.15l.3.14a.17.17,0,0,0,.17,0,.33.33,0,0,0,.15-.32h.29v2.16H35.5l0-.41c0-.11,0-.24-.07-.38a1.9,1.9,0,0,0-.14-.4l-.11-.18a1,1,0,0,0-.22-.24,1.28,1.28,0,0,0-.35-.19.94.94,0,0,0-.48,0m11.71,7.21v1.3H42.37v-.32a.17.17,0,0,0,.14,0c.05,0,.08,0,.12-.1a.4.4,0,0,0,.06-.25V60.68a.43.43,0,0,0-.06-.26.25.25,0,0,0-.12-.11.17.17,0,0,0-.14,0V60h3.44v1.3h-.33a2,2,0,0,0-.07-.51,1.13,1.13,0,0,0-.2-.35.5.5,0,0,0-.39-.16H43.54v4h.86a.33.33,0,0,0,.25-.09.67.67,0,0,0,.12-.2.9.9,0,0,0,0-.3h.28V65.2h-.28a.84.84,0,0,0,0-.29.78.78,0,0,0-.12-.22.33.33,0,0,0-.25-.09h-.86v3.93h1.28a.53.53,0,0,0,.39-.15.9.9,0,0,0,.2-.34,2,2,0,0,0,.07-.51Zm9.94,0v1.3H52.43v-.32a.19.19,0,0,0,.15,0,.21.21,0,0,0,.12-.1.34.34,0,0,0,.07-.25V60.68a.37.37,0,0,0-.07-.26.3.3,0,0,0-.12-.11.19.19,0,0,0-.15,0V60h1.49v.3a.25.25,0,0,0-.17,0,.37.37,0,0,0-.1.11.54.54,0,0,0,0,.26v7.83h1.16a.52.52,0,0,0,.4-.15.78.78,0,0,0,.19-.33,1.8,1.8,0,0,0,.08-.5Zm10.06-3.09v1.39c0,.39,0,.74,0,1a3.52,3.52,0,0,1-.11.74,1.65,1.65,0,0,1-.24.54,1.62,1.62,0,0,1-.63.56,1.79,1.79,0,0,1-.77.19,1.82,1.82,0,0,1-.77-.19,1.72,1.72,0,0,1-.64-.56,2.21,2.21,0,0,1-.24-.54,4.33,4.33,0,0,1-.11-.74c0-.29,0-.64,0-1V64.44c0-.72,0-1.31,0-1.78a7.19,7.19,0,0,1,.11-1.18,1.73,1.73,0,0,1,.25-.69,1.5,1.5,0,0,1,.48-.49A1.75,1.75,0,0,1,64,60a1.72,1.72,0,0,1,.48.08,1.85,1.85,0,0,1,.45.21,1.53,1.53,0,0,1,.49.49,1.36,1.36,0,0,1,.24.69,8.49,8.49,0,0,1,.11,1.18c0,.47,0,1.06,0,1.78M65,67.19V65.94c0-.48,0-1,0-1.5s0-1,0-1.49V61.72a1.69,1.69,0,0,0-.27-1.09.87.87,0,0,0-1.33,0,1.69,1.69,0,0,0-.27,1.09v5.47a1.9,1.9,0,0,0,.24,1.1.83.83,0,0,0,.71.33.81.81,0,0,0,.7-.33,2,2,0,0,0,.22-1.1M75.39,60h1.09v.31a.3.3,0,0,0-.19,0,.21.21,0,0,0-.11.1.42.42,0,0,0-.06.25v8.14h-1l-2-7.08v6.41a.49.49,0,0,0,0,.25.35.35,0,0,0,.12.1h.19v.32H72.31v-.32h.18a.48.48,0,0,0,.12-.1.4.4,0,0,0,.06-.25V60.69a.42.42,0,0,0-.06-.25.33.33,0,0,0-.12-.1.28.28,0,0,0-.18,0V60h1.26l2.18,7.49V60.69a.42.42,0,0,0-.06-.25.26.26,0,0,0-.3-.1Zm11.54,8.14a.39.39,0,0,0,.1.25.4.4,0,0,0,.18.1.81.81,0,0,0,.22,0v.31H85.62v-.31a.67.67,0,0,0,.2,0,.26.26,0,0,0,.11-.1.37.37,0,0,0,0-.25s0-.16-.06-.43-.1-.64-.17-1.1H84.14L84,67.74c0,.27-.07.42-.07.43a.39.39,0,0,0,0,.25.21.21,0,0,0,.11.1.59.59,0,0,0,.19,0v.31H83v-.31a.81.81,0,0,0,.22,0,.4.4,0,0,0,.18-.1.53.53,0,0,0,.12-.25s0-.13.06-.36.09-.54.16-.93.15-.81.25-1.29.17-1,.27-1.5l.74-4h.62c.24,1.51.46,2.85.64,4,.09.51.17,1,.24,1.49s.14.92.2,1.3.12.7.16.93.06.36.06.37m-2.74-1.85h1.49c-.05-.33-.1-.69-.16-1.08s-.13-.77-.19-1.17-.12-.76-.18-1.13-.12-.71-.17-1c-.07.32-.13.66-.2,1s-.13.74-.2,1.13-.14.78-.2,1.17-.13.75-.19,1.08m26.86-6.77a4,4,0,0,1,.15,1.2,3.3,3.3,0,0,1-.29,1.22,3.86,3.86,0,0,1-.81,1.14,5,5,0,0,1-1.37.92,6.41,6.41,0,0,1-1.17.45,8.18,8.18,0,0,1-1.22.21,3.29,3.29,0,0,1,.78,1.09,3.45,3.45,0,0,1,.29,1.43,3.39,3.39,0,0,1-.39,1.66,4.28,4.28,0,0,1-1,1.21,3.83,3.83,0,0,1-1.28.74,4.25,4.25,0,0,1-1.32.27A5.9,5.9,0,0,1,102,71a5.56,5.56,0,0,1-1.62-.63A4.29,4.29,0,0,1,99,69a4,4,0,0,1-.62-2.1,6.3,6.3,0,0,1,.26-2.21,4.72,4.72,0,0,1,.83-1.58,3.89,3.89,0,0,1,1.13-1,3.51,3.51,0,0,1,1.18-.4,1.62,1.62,0,0,1-.49-1,2.64,2.64,0,0,1,.12-1.25,2.48,2.48,0,0,1,.73-1.07,2.15,2.15,0,0,1,1.36-.5,2.41,2.41,0,0,1,1.27.23,1.34,1.34,0,0,1,.57.6.83.83,0,0,1,0,.64.54.54,0,0,1-.49.32c-.23,0-.38,0-.43-.15a.75.75,0,0,1-.09-.37c0-.13,0-.28,0-.43a.49.49,0,0,0-.19-.38,1.15,1.15,0,0,0-.64-.11,1.32,1.32,0,0,0-.65.26,1.53,1.53,0,0,0-.46.65,2.27,2.27,0,0,0-.14,1,1.43,1.43,0,0,0,.32.9,1.39,1.39,0,0,0,.56.41,1.82,1.82,0,0,0,.76.11v.42a6.09,6.09,0,0,0-.91.11,7.83,7.83,0,0,0-.89.23,3.42,3.42,0,0,0-.91.47,2.71,2.71,0,0,0-.74.73,3.46,3.46,0,0,0-.49,1,6.16,6.16,0,0,0-.27,1.18,7.86,7.86,0,0,0-.06,1.29,4,4,0,0,0,.25,1.3,4.24,4.24,0,0,0,.67,1.17,3.52,3.52,0,0,0,1.06.85,3.2,3.2,0,0,0,1.38.34,4.1,4.1,0,0,0,1.51-.25,4.31,4.31,0,0,0,1.29-.74,4.18,4.18,0,0,0,.9-1.08,2.44,2.44,0,0,0,.35-1.22,3.87,3.87,0,0,0-.32-1.62,2.86,2.86,0,0,0-.84-1.09c-.51.06-1,.11-1.48.13s-.9.07-1.3.13a3.52,3.52,0,0,0-1,.29,1.17,1.17,0,0,0-.57.63,2.26,2.26,0,0,0-.2,1.11,1.79,1.79,0,0,0,.29.85,1.75,1.75,0,0,0,.59.56,1.35,1.35,0,0,0,.72.2h.62c.2,0,.3-.11.32-.21a.4.4,0,0,0-.08-.28l-.06-.07-.07-.06a.87.87,0,0,1-.16-.5.81.81,0,0,1,.24-.59.77.77,0,0,1,.58-.24.81.81,0,0,1,.6.24.78.78,0,0,1,.25.59.9.9,0,0,1-.09.35,1.57,1.57,0,0,1-.51.75,1.85,1.85,0,0,1-.73.39,2.52,2.52,0,0,1-.82.08,3.69,3.69,0,0,1-.74-.12,1.84,1.84,0,0,1-1-.83,2.61,2.61,0,0,1-.38-1.36,2.87,2.87,0,0,1,.41-1.44,2.83,2.83,0,0,1,1.29-1.13,2.56,2.56,0,0,1,.84-.26l0,0h.08l0,0c.24,0,.52-.09.85-.14s.64-.09.92-.11l1.09-.11A9.06,9.06,0,0,0,108.5,63a5,5,0,0,0,1.36-.86,2.61,2.61,0,0,0,.7-1,2.15,2.15,0,0,0,.14-1,2.21,2.21,0,0,0-.26-.76,2,2,0,0,0-.5-.62,1.93,1.93,0,0,0-.69-.37,2.19,2.19,0,0,0-1.94.46,1.55,1.55,0,0,0-.42.86,2.1,2.1,0,0,0,.08.9,1.24,1.24,0,0,0,.34.59l.09.06.1.08h0l.06,0,.07,0-.06,0,0,0q.33.14.45,0a.31.31,0,0,0,0-.31.15.15,0,0,0,0-.07.13.13,0,0,0,0-.08.88.88,0,0,1,0-.2.82.82,0,0,1,.25-.6.79.79,0,0,1,.58-.25.78.78,0,0,1,.58.25.85.85,0,0,1,.24.6.74.74,0,0,1-.42.72,2.11,2.11,0,0,1-.83.34,1.77,1.77,0,0,1-.86-.05,1.45,1.45,0,0,1-.7-.49,1.78,1.78,0,0,1-.35-1,1.87,1.87,0,0,1,.21-1.13,2,2,0,0,1,.72-.74,2.8,2.8,0,0,1,1-.33,2.92,2.92,0,0,1,1.1.09,2.46,2.46,0,0,1,.94.54,2.28,2.28,0,0,1,.62,1m12.41.77a1.36,1.36,0,0,0-.36.1.73.73,0,0,0-.29.24,1,1,0,0,0-.21.42,2.31,2.31,0,0,0-.07.64c0,.34,0,.75,0,1.23s0,1,0,1.49,0,1,0,1.5,0,.9,0,1.25a1.74,1.74,0,0,0,.26,1.1.82.82,0,0,0,.66.33,1.76,1.76,0,0,0,.58-.09,1.07,1.07,0,0,0,.44-.28,1.35,1.35,0,0,0,.29-.53,3,3,0,0,0,.09-.8v-.34h.29v.63a1.72,1.72,0,0,1-.44,1.25,1.63,1.63,0,0,1-1.24.43,1.86,1.86,0,0,1-.77-.19,1.62,1.62,0,0,1-.63-.56,1.65,1.65,0,0,1-.24-.54,3.52,3.52,0,0,1-.11-.74c0-.29,0-.64,0-1V64.44c0-.72,0-1.31,0-1.78a7.32,7.32,0,0,1,.1-1.18,1.47,1.47,0,0,1,.25-.69,1.63,1.63,0,0,1,.49-.49,1.72,1.72,0,0,1,.93-.29h.12l.12,0,0,0,.1,0a1.91,1.91,0,0,1,.46.15l.29.14a.19.19,0,0,0,.18,0,.34.34,0,0,0,.14-.32h.3v2.16h-.27c0-.13,0-.27,0-.41s0-.24-.07-.38a1.47,1.47,0,0,0-.14-.4l-.1-.18a1.19,1.19,0,0,0-.58-.43.94.94,0,0,0-.48,0M136,68.51v.32h-1.49v-.32a.22.22,0,0,0,.16,0s.07,0,.11-.1a.49.49,0,0,0,.05-.25v-3.6h-1.88v3.6a.41.41,0,0,0,0,.25.18.18,0,0,0,.09.1.22.22,0,0,0,.16,0v.32h-1.47v-.32a.17.17,0,0,0,.14,0,.21.21,0,0,0,.12-.1.41.41,0,0,0,0-.25V60.68a.44.44,0,0,0,0-.26.3.3,0,0,0-.12-.11.17.17,0,0,0-.14,0V60h1.47v.3a.22.22,0,0,0-.16,0,.26.26,0,0,0-.09.11.44.44,0,0,0,0,.26v3.59h1.88V60.68a.54.54,0,0,0-.05-.26.29.29,0,0,0-.11-.11.22.22,0,0,0-.16,0V60H136v.3a.25.25,0,0,0-.17,0,.27.27,0,0,0-.1.11.54.54,0,0,0-.05.26v7.48a.49.49,0,0,0,.05.25.19.19,0,0,0,.1.1.25.25,0,0,0,.17,0m10.12-1v1.3h-3.44v-.32a.19.19,0,0,0,.15,0,.21.21,0,0,0,.12-.1.49.49,0,0,0,0-.25V60.68a.54.54,0,0,0,0-.26.3.3,0,0,0-.12-.11.19.19,0,0,0-.15,0V60h3.44v1.3h-.32a2.51,2.51,0,0,0-.07-.51,1.16,1.16,0,0,0-.21-.35.46.46,0,0,0-.38-.16h-1.29v4h.86a.33.33,0,0,0,.25-.09.41.41,0,0,0,.12-.2.7.7,0,0,0,.06-.3h.28V65.2h-.28a.65.65,0,0,0-.06-.29.48.48,0,0,0-.12-.22.33.33,0,0,0-.25-.09h-.86v3.93h1.29a.49.49,0,0,0,.38-.15.92.92,0,0,0,.21-.34,2.51,2.51,0,0,0,.07-.51Zm9.71-7.5h1.08v.31a.28.28,0,0,0-.18,0,.27.27,0,0,0-.12.1.52.52,0,0,0-.05.25v8.14h-1l-2-7.08v6.41a.41.41,0,0,0,0,.25.35.35,0,0,0,.12.1h.18v.32h-1.08v-.32h.17a.5.5,0,0,0,.13-.1.4.4,0,0,0,.06-.25V60.69a.42.42,0,0,0-.06-.25.35.35,0,0,0-.13-.1.25.25,0,0,0-.17,0V60H154l2.18,7.49V60.69a.36.36,0,0,0-.07-.25.22.22,0,0,0-.12-.1.25.25,0,0,0-.17,0Zm9.82,4.4h1.91v.32a.15.15,0,0,0-.13,0,.26.26,0,0,0-.09.09.59.59,0,0,0,0,.23v3.75H167c0-.22-.17-.26-.51-.14a2,2,0,0,1-1.75,0,1.57,1.57,0,0,1-.64-.56,1.89,1.89,0,0,1-.24-.54,5.63,5.63,0,0,1-.12-.75c0-.29,0-.63,0-1V64.43c0-.73,0-1.33,0-1.81a6.26,6.26,0,0,1,.11-1.19,1.48,1.48,0,0,1,.26-.7,1.9,1.9,0,0,1,.49-.49,1.79,1.79,0,0,1,1-.29h.12l.11,0,0,0h.1a1.68,1.68,0,0,1,.45.15l.3.14a.19.19,0,0,0,.18,0,.27.27,0,0,0,.11-.1.29.29,0,0,0,0-.17h.31v2.15h-.28a1.9,1.9,0,0,0,0-.41c0-.12,0-.25-.07-.39a2.1,2.1,0,0,0-.15-.42,1.08,1.08,0,0,0-.11-.18,1,1,0,0,0-.22-.24,1.06,1.06,0,0,0-.35-.19.94.94,0,0,0-.48-.05,1.56,1.56,0,0,0-.37.1.73.73,0,0,0-.31.24,1.15,1.15,0,0,0-.21.43,2.39,2.39,0,0,0-.07.65v5.51a1.73,1.73,0,0,0,.28,1.12.84.84,0,0,0,.67.33,1.5,1.5,0,0,0,.37,0,.67.67,0,0,0,.32-.19.69.69,0,0,0,.18-.3,2.66,2.66,0,0,0,.07-.45c0-.18,0-.38,0-.62V65.12a.32.32,0,0,0-.13-.3.34.34,0,0,0-.22-.06h-.48Zm12-2.6V67a1.82,1.82,0,0,1-.12.65,1.64,1.64,0,0,1-.35.58,1.87,1.87,0,0,1-.58.4,2.1,2.1,0,0,1-.82.16H173.9v-.32a.43.43,0,0,0,.16,0,.26.26,0,0,0,.11-.1.49.49,0,0,0,.05-.25V60.71a.57.57,0,0,0-.05-.26.21.21,0,0,0-.11-.1.22.22,0,0,0-.16,0V60h1.89a2.1,2.1,0,0,1,.82.15,1.9,1.9,0,0,1,.58.41,1.69,1.69,0,0,1,.35.57,1.88,1.88,0,0,1,.12.66m-2.59-1.47v8.13h.74a1.44,1.44,0,0,0,.43-.11.93.93,0,0,0,.38-.3,1.29,1.29,0,0,0,.21-.78V61.56a1.61,1.61,0,0,0-.06-.44,1,1,0,0,0-.58-.64,1,1,0,0,0-.37-.1l-.34,0ZM185.71,60v.3a.19.19,0,0,0-.15,0,.23.23,0,0,0-.11.11.44.44,0,0,0,0,.26v1.53c0,.43,0,.91,0,1.43v3.28a3.25,3.25,0,0,0,.2,1.34.65.65,0,0,0,.6.39h0a.65.65,0,0,0,.58-.39,2.89,2.89,0,0,0,.22-1.34V60.68a.54.54,0,0,0,0-.26.18.18,0,0,0-.1-.11.22.22,0,0,0-.16,0V60h1.47v.3a.19.19,0,0,0-.15,0,.23.23,0,0,0-.11.11.56.56,0,0,0,0,.26v6.57a1.64,1.64,0,0,1-.15.71,1.79,1.79,0,0,1-.41.53,1.65,1.65,0,0,1-1.12.45,1.8,1.8,0,0,1-.59-.11,1.77,1.77,0,0,1-.53-.34,1.74,1.74,0,0,1-.39-.53,1.71,1.71,0,0,1-.14-.7V63.9c0-.4,0-.8,0-1.19v-2a.43.43,0,0,0-.06-.26.23.23,0,0,0-.11-.11.19.19,0,0,0-.15,0V60ZM71.84,51.58H0V50.37H71.84ZM189.45,77.31H0V76.1H189.45Zm0-25.73H117.61V50.37h71.84Z"/><path class="cls-1" d="M79.62,48.41a1.61,1.61,0,0,1,.51.09,1.31,1.31,0,0,1,.47.27,1.52,1.52,0,0,1,.33.47,1.67,1.67,0,0,1,.12.67v1.38H78.89v1.13a1.57,1.57,0,0,0,.23,1,.7.7,0,0,0,.58.28,1.85,1.85,0,0,0,.41-.07.87.87,0,0,0,.35-.2,1.15,1.15,0,0,0,.25-.41,2.11,2.11,0,0,0,.09-.68h.25v.15A2.6,2.6,0,0,1,81,53a1.05,1.05,0,0,1-.23.46,1.1,1.1,0,0,1-.42.31,1.62,1.62,0,0,1-.62.13,1.71,1.71,0,0,1-.54-.1,1.44,1.44,0,0,1-.49-.29,1.89,1.89,0,0,1-.36-.47,1.3,1.3,0,0,1-.14-.6v-.26c0-.12,0-.26,0-.42v-.51c0-.19,0-.37,0-.54v-.8a1.45,1.45,0,0,1,.14-.68,1.52,1.52,0,0,1,.33-.47,1.64,1.64,0,0,1,.46-.27,1.54,1.54,0,0,1,.52-.09m.7,2.6v-.86a4.35,4.35,0,0,0,0-.69,1.82,1.82,0,0,0-.15-.45.49.49,0,0,0-.22-.23.69.69,0,0,0-.29-.07.58.58,0,0,0-.53.31,2.43,2.43,0,0,0-.18,1.13V51Z"/><path class="cls-1" d="M84.46,53.74s0,0,0,0a0,0,0,0,0,0,0h0l0,0-.05,0a1.25,1.25,0,0,1-.53.1.81.81,0,0,1-.34-.08l-.29-.14a.42.42,0,0,0-.2-.05s-.08.06-.08.16h-.2V52.5h.26a1.4,1.4,0,0,0,.07.6,1,1,0,0,0,.26.41.77.77,0,0,0,.57.19.8.8,0,0,0,.41-.09.82.82,0,0,0,.39-.33.66.66,0,0,0,.08-.41.81.81,0,0,0-.16-.42,1.7,1.7,0,0,0-.33-.38L84,51.86l-.28-.23a3.72,3.72,0,0,1-.6-.55,1.93,1.93,0,0,1-.35-.46,1.45,1.45,0,0,1-.16-.4,1.7,1.7,0,0,1,0-.41,1.94,1.94,0,0,1,0-.24,1.06,1.06,0,0,1,0-.19,1.37,1.37,0,0,1,.11-.36,1,1,0,0,1,.21-.31,1.15,1.15,0,0,1,.35-.22,1.28,1.28,0,0,1,.5-.09.78.78,0,0,1,.33.07l.29.13a.39.39,0,0,0,.21,0s.08-.06.08-.16h.2v1.35h-.28a1.56,1.56,0,0,0-.08-.59,1,1,0,0,0-.26-.42,1,1,0,0,0-1,0A.65.65,0,0,0,83,49a.89.89,0,0,0-.08.32,1,1,0,0,0,0,.38.93.93,0,0,0,.26.38l.06.06.09,0s0,0,0,.05,0,0,0,0l.25.2.25.19c.21.18.37.34.51.48a3.82,3.82,0,0,1,.34.4,1.57,1.57,0,0,1,.2.34,1,1,0,0,1,.08.32,1.45,1.45,0,0,1,0,.84,1.49,1.49,0,0,1-.38.54h0s0,0,0,0l0,0-.07,0a.09.09,0,0,1-.07,0h0a0,0,0,0,0,0,0h0"/><path class="cls-1" d="M89.19,52.93a.84.84,0,0,1-.24.62,1.42,1.42,0,0,1-.38.26,1.24,1.24,0,0,1-.47.1,1,1,0,0,1-.65-.21,1.24,1.24,0,0,1-.42-.54A1.21,1.21,0,0,1,87,53a1.48,1.48,0,0,1,0-.22s0,0,0-.1v-.17c0-.06,0-.12,0-.18v-3.5h-.76v-.29H87V46.61a.44.44,0,0,0,0-.23.26.26,0,0,0-.1-.09.17.17,0,0,0-.14,0V46h1v2.5h.91v.29H87.7v.61c0,.22,0,.47,0,.76v2.38a2.21,2.21,0,0,0,0,.32.81.81,0,0,0,.24.52.57.57,0,0,0,.38.13.63.63,0,0,0,.43-.17.58.58,0,0,0,.2-.43Z"/><path class="cls-1" d="M90.7,52.94a.45.45,0,0,1,.31.16.42.42,0,0,1,.1.32.51.51,0,0,1-.17.3.42.42,0,0,1-.33.09.5.5,0,0,1-.29-.16.41.41,0,0,1-.1-.32.42.42,0,0,1,.17-.29.4.4,0,0,1,.31-.1"/><path class="cls-1" d="M96.37,53.22a.47.47,0,0,0,0,.23.22.22,0,0,0,.09.08.19.19,0,0,0,.15,0v.28H95.23v-.28a.34.34,0,0,0,.2,0,.31.31,0,0,0,.13-.08.37.37,0,0,0,.06-.23V47.05a.33.33,0,0,0-.06-.23.51.51,0,0,0-.13-.09.34.34,0,0,0-.2,0v-.27a1.59,1.59,0,0,0,.39-.07,1.13,1.13,0,0,0,.27-.13A.27.27,0,0,0,96,46h.35v7.18Z"/><path class="cls-1" d="M101.19,47.92c0,.25,0,.53,0,.85s0,.66,0,1,0,.7,0,1,0,.66-.07.93c0,.08,0,.19-.08.34a2.6,2.6,0,0,1-.14.46,3.23,3.23,0,0,1-.24.5,1.75,1.75,0,0,1-.35.46,1.34,1.34,0,0,1-.48.3,1.66,1.66,0,0,1-.61.1,1,1,0,0,1-.56-.22,1.24,1.24,0,0,1-.34-.42,1.34,1.34,0,0,1-.14-.52,1.4,1.4,0,0,1,.06-.51.88.88,0,0,1,.25-.39.59.59,0,0,1,.41-.16.53.53,0,0,1,.39.16.61.61,0,0,1,.16.4.5.5,0,0,1-.12.34.54.54,0,0,1-.28.19H99a.37.37,0,0,0-.22.2.39.39,0,0,0,0,.28.5.5,0,0,0,.2.26.65.65,0,0,0,.41.12.58.58,0,0,0,.44-.19,1.31,1.31,0,0,0,.26-.5,2.94,2.94,0,0,0,.16-.65c0-.24.07-.48.09-.71,0-.07,0-.15,0-.25s0-.22,0-.34,0-.24,0-.36V50.3a.91.91,0,0,1-.82.38,1.38,1.38,0,0,1-.57-.17,1.51,1.51,0,0,1-.52-.46,2.57,2.57,0,0,1-.37-.78A3.07,3.07,0,0,1,98,48.19a4.68,4.68,0,0,1,.17-.93,2.19,2.19,0,0,1,.32-.65l0,0h0s0,0,0,0v0c.11-.11.23-.21.35-.31a1.66,1.66,0,0,1,.3-.19.76.76,0,0,1,.33-.08,1.27,1.27,0,0,1,.68.15,1.54,1.54,0,0,1,.49.46,2.4,2.4,0,0,1,.32.64,3.38,3.38,0,0,1,.16.73M99.58,50.4a.62.62,0,0,0,.46-.14,1.2,1.2,0,0,0,.35-.61c0-.21,0-.42,0-.64s0-.41,0-.6,0-.36,0-.51,0-.27,0-.36,0-.35-.07-.51a2.2,2.2,0,0,0-.09-.42.68.68,0,0,0-.18-.28.55.55,0,0,0-.34-.1.49.49,0,0,0-.31.11.75.75,0,0,0-.23.34,2.85,2.85,0,0,0-.15.61c0,.26-.07.57-.1.93a4.56,4.56,0,0,0,0,1,2.78,2.78,0,0,0,.15.67.93.93,0,0,0,.26.4.52.52,0,0,0,.33.12"/><path class="cls-1" d="M104.49,49.27a1.09,1.09,0,0,1,.53.2,1.56,1.56,0,0,1,.49.5,2.39,2.39,0,0,1,.34.79,3.39,3.39,0,0,1,.09,1,4.13,4.13,0,0,1-.12.78,2.21,2.21,0,0,1-.26.58.94.94,0,0,1-.12.18,1.73,1.73,0,0,1-.52.43,1,1,0,0,1-.21.1.59.59,0,0,1-.22.05,1.53,1.53,0,0,1-.69-.16,1.5,1.5,0,0,1-.49-.45,2.08,2.08,0,0,1-.32-.63,3.08,3.08,0,0,1-.16-.73c0-.26,0-.56-.06-.92s0-.72,0-1.09,0-.76,0-1.12a9.17,9.17,0,0,1,.09-.93,6.49,6.49,0,0,1,.19-.76,2,2,0,0,1,.34-.64,1.41,1.41,0,0,1,.56-.42,1.65,1.65,0,0,1,.86-.1,1.06,1.06,0,0,1,.56.21,1,1,0,0,1,.34.41,1.38,1.38,0,0,1,.13.53,1.43,1.43,0,0,1-.06.51.86.86,0,0,1-.24.39.61.61,0,0,1-.41.15.57.57,0,0,1-.39-.16.54.54,0,0,1-.17-.39.52.52,0,0,1,.12-.34.5.5,0,0,1,.29-.2h0a.37.37,0,0,0,.24-.2.34.34,0,0,0,0-.28.56.56,0,0,0-.19-.26.72.72,0,0,0-.42-.11.54.54,0,0,0-.43.19,1.49,1.49,0,0,0-.28.5,4,4,0,0,0-.16.66c0,.24-.07.47-.09.7s0,.39,0,.64,0,.53,0,.83a.85.85,0,0,1,.85-.47m0,.26a.61.61,0,0,0-.49.2,1.5,1.5,0,0,0-.34.77c0,.18,0,.36,0,.54s0,.35,0,.51,0,.31,0,.45a1.82,1.82,0,0,0,0,.31c0,.39.09.7.13.9a.46.46,0,0,0,.28.38l.28.07c.23,0,.4-.13.52-.43a6.75,6.75,0,0,0,.22-2.43,2.54,2.54,0,0,0-.14-.69,1,1,0,0,0-.24-.43.53.53,0,0,0-.31-.15"/><path class="cls-1" d="M110.6,46c0,.15,0,.32,0,.51s0,.34-.06.54,0,.41-.09.62a3.89,3.89,0,0,1-.15.61,4.37,4.37,0,0,1-.23.49,4.64,4.64,0,0,1-.3.49c-.12.18-.24.38-.38.61a2.08,2.08,0,0,0-.29.79,5,5,0,0,0-.07.85c0,.28,0,.54,0,.79a5.36,5.36,0,0,1,.05.59,1.36,1.36,0,0,1-.14.71.46.46,0,0,1-.39.28l-.23,0a.71.71,0,0,1-.23-.14.85.85,0,0,1-.18-.3,2.26,2.26,0,0,1-.1-.55,3.73,3.73,0,0,1,.06-.79,6.46,6.46,0,0,1,.27-.94,6.22,6.22,0,0,1,.49-1,5.54,5.54,0,0,1,.71-1,3.72,3.72,0,0,0,.49-.78,4.4,4.4,0,0,0,.27-.73,2.55,2.55,0,0,0,.11-.61c0-.18,0-.33,0-.44a1,1,0,0,1-.47.39,1.15,1.15,0,0,1-.52,0,2.55,2.55,0,0,1-.53-.18,3.36,3.36,0,0,0-.43-.18.39.39,0,0,0-.38,0,.45.45,0,0,0-.19.22,1.61,1.61,0,0,0,0,.42h-.33V46h1.1a1.33,1.33,0,0,1,.42.06l.31.13.26.15a.66.66,0,0,0,.3.07.53.53,0,0,0,.28-.06.5.5,0,0,0,.15-.13.7.7,0,0,0,.06-.19Z"/><path class="cls-1" d="M8,90.24a.23.23,0,0,0-.19-.09.57.57,0,0,0-.26.17,3.42,3.42,0,0,1-.56.36A4.3,4.3,0,0,1,6,91a5.41,5.41,0,0,1-1.37.15A5,5,0,0,1,3,90.94a3.71,3.71,0,0,1-1.27-.73A3.46,3.46,0,0,1,1,89.07a3.51,3.51,0,0,1-.29-1.43A3,3,0,0,1,.93,86.4a3.27,3.27,0,0,1,.79-1A4,4,0,0,1,3,84.64a5,5,0,0,1,1.65-.26,5,5,0,0,1,1.14.11,8,8,0,0,1,.86.23,4.31,4.31,0,0,1,.61.24,1,1,0,0,0,.32.11.18.18,0,0,0,.13,0L7.74,85l.16.1-.79,1.37-.17-.08A.24.24,0,0,0,7,86.17c0-.06-.06-.15-.19-.26a2.39,2.39,0,0,0-.52-.3,4.19,4.19,0,0,0-.78-.26,4.06,4.06,0,0,0-1-.11,3.72,3.72,0,0,0-1,.15,2.92,2.92,0,0,0-.92.45,2.49,2.49,0,0,0-.65.78,2.4,2.4,0,0,0-.26,1.14,2.11,2.11,0,0,0,.27,1,2.58,2.58,0,0,0,.69.82,3.14,3.14,0,0,0,1,.53,3.41,3.41,0,0,0,1.14.19,2.82,2.82,0,0,0,.87-.13,3.28,3.28,0,0,0,.73-.33,2,2,0,0,0,.51-.38.52.52,0,0,0,.19-.33A.26.26,0,0,0,7,89l.16-.1,1,1.22Z"/><path class="cls-1" d="M13,90.39l-.11.26a.63.63,0,0,0-.07.21c0,.1.08.14.22.14v.16H11.51V91h.14a.15.15,0,0,0,.1-.08.7.7,0,0,0,.12-.18L12,90.4l2.3-5.15c.07-.14.12-.25.16-.32a.51.51,0,0,0,.05-.17c0-.1-.08-.15-.23-.15v-.16h1.86v.16q-.21,0-.21.15A.53.53,0,0,0,16,85c0,.08.1.19.16.34l2.45,5.07.18.35a.62.62,0,0,0,.12.19.21.21,0,0,0,.12.08h.18v.16H17.48V91a.31.31,0,0,0,.2,0,.18.18,0,0,0,.05-.14.35.35,0,0,0,0-.13s-.06-.15-.13-.3l-.49-1h-3.6Zm3.61-1.86-1.44-3-1.33,3Z"/><path class="cls-1" d="M24.71,91a.3.3,0,0,0,.25-.08A.38.38,0,0,0,25,90.7V85.29H22.88a.74.74,0,0,0-.35.07.34.34,0,0,0-.1.27h-.15V84.12h.15q0,.33.45.33h5.35q.45,0,.45-.33h.15v1.51h-.15a.34.34,0,0,0-.1-.27.74.74,0,0,0-.35-.07H26.09V90.7a.38.38,0,0,0,.06.22.3.3,0,0,0,.25.08v.16H24.71Z"/><path class="cls-1" d="M33.05,84.91a.31.31,0,0,0-.07-.22c0-.06-.12-.08-.24-.08v-.16h5.34a1.14,1.14,0,0,0,.42,0,.23.23,0,0,0,.09-.2h.15v1.45h-.15a.33.33,0,0,0-.1-.26.62.62,0,0,0-.4-.1h-4v2h2.59a.81.81,0,0,0,.37-.08.28.28,0,0,0,.15-.28h.15v1.54h-.15a.29.29,0,0,0-.12-.26.61.61,0,0,0-.38-.08H34.12v2.16h4.25a.72.72,0,0,0,.4-.09.43.43,0,0,0,.13-.34h.15V91.4H38.9c0-.17-.15-.24-.45-.24H32.74V91c.12,0,.2,0,.24-.08a.32.32,0,0,0,.07-.22Z"/><path class="cls-1" d="M44.73,90.7a.31.31,0,0,0,.07.22c0,.06.12.08.24.08v.16H43.36V91a.28.28,0,0,0,.24-.08.36.36,0,0,0,.06-.22V84.91a.36.36,0,0,0-.06-.22.28.28,0,0,0-.24-.08v-.16h4.26a2.71,2.71,0,0,1,1.81.48A1.72,1.72,0,0,1,50,86.31a1.86,1.86,0,0,1-.42,1.28,2.22,2.22,0,0,1-1.38.6l1.61,2.48a1.57,1.57,0,0,0,.22.27.51.51,0,0,0,.28.06v.16H48.45V91a.48.48,0,0,0,.21,0,.11.11,0,0,0,.05-.09.17.17,0,0,0-.07-.14l-1.56-2.5H44.73Zm2.79-3.31a1.59,1.59,0,0,0,1.1-.3,1,1,0,0,0,.32-.8,1.33,1.33,0,0,0-.07-.43.68.68,0,0,0-.23-.31,1.28,1.28,0,0,0-.45-.17,3.62,3.62,0,0,0-.73-.06H44.73v2.07Z"/><path class="cls-1" d="M54.54,91c.12,0,.2,0,.24-.08a.32.32,0,0,0,.07-.22V84.91a.31.31,0,0,0-.07-.22c0-.06-.12-.08-.24-.08v-.16h1.68v.16a.29.29,0,0,0-.24.08.36.36,0,0,0-.06.22V90.7a.38.38,0,0,0,.06.22.29.29,0,0,0,.24.08v.16H54.54Z"/><path class="cls-1" d="M66.92,89.47V84.91a.36.36,0,0,0-.07-.22c0-.06-.12-.08-.24-.08v-.16h1.53v.16c-.12,0-.2,0-.24.08a.31.31,0,0,0-.07.22V90.7a.32.32,0,0,0,.07.22c0,.06.12.08.24.08v.16H66.51V91c.17,0,.25,0,.25-.1a.16.16,0,0,0-.05-.14l-.08-.1L62.1,85.5v5.2a.38.38,0,0,0,.06.22.29.29,0,0,0,.24.08v.16H60.88V91c.12,0,.2,0,.24-.08a.38.38,0,0,0,.06-.22V84.91a.36.36,0,0,0-.06-.22c0-.06-.12-.08-.24-.08v-.16H63v.16a.41.41,0,0,0-.19,0,.13.13,0,0,0-.05.11.16.16,0,0,0,0,.08.27.27,0,0,0,.07.08l4,4.56Z"/><path class="cls-1" d="M77,88.63c-.3,0-.45.1-.45.28h-.15v-1.5h.15c0,.25.15.38.45.38h2.74v.15a.25.25,0,0,0-.19.06.7.7,0,0,0,0,.28v1.1a.59.59,0,0,0,0,.29.3.3,0,0,0,.18.08v.16a5.46,5.46,0,0,1-1.88,1,6.24,6.24,0,0,1-1.77.28A5.19,5.19,0,0,1,74.51,91a3.79,3.79,0,0,1-1.24-.67,3.44,3.44,0,0,1-.81-1,3,3,0,0,1-.29-1.36,3.39,3.39,0,0,1,.28-1.39,3.81,3.81,0,0,1,.79-1.11,3.76,3.76,0,0,1,1.19-.75,4.31,4.31,0,0,1,1.51-.26,6,6,0,0,1,1.37.13,5.09,5.09,0,0,1,.91.3,3.67,3.67,0,0,1,.55.3.64.64,0,0,0,.32.13.2.2,0,0,0,.14,0,.44.44,0,0,0,.08-.11l.16.1-.89,1.31-.16-.1a.18.18,0,0,0,.06-.15c0-.08-.07-.17-.2-.28a2.44,2.44,0,0,0-.53-.33,3.64,3.64,0,0,0-.79-.28,4,4,0,0,0-1-.12,3.3,3.3,0,0,0-1.23.21,2.42,2.42,0,0,0-.86.56,2.2,2.2,0,0,0-.5.81,3.08,3.08,0,0,0-.16,1,2.5,2.5,0,0,0,.22,1.09,2.43,2.43,0,0,0,1.42,1.3,2.79,2.79,0,0,0,1,.17,4.94,4.94,0,0,0,1.5-.21,3.65,3.65,0,0,0,1.1-.55v-1Z"/><path class="cls-1" d="M90.59,90.39l-.11.26a.63.63,0,0,0-.07.21c0,.1.07.14.22.14v.16H89.06V91h.14a.18.18,0,0,0,.1-.08.7.7,0,0,0,.12-.18c0-.08.1-.19.16-.33l2.31-5.15.15-.32a.38.38,0,0,0,.06-.17q0-.15-.24-.15v-.16h1.86v.16c-.13,0-.2,0-.2.15a.49.49,0,0,0,.06.2,3.52,3.52,0,0,1,.17.34l2.45,5.07a3.56,3.56,0,0,0,.18.35.62.62,0,0,0,.12.19.16.16,0,0,0,.12.08h.18v.16H95V91a.33.33,0,0,0,.2,0,.18.18,0,0,0,0-.14.35.35,0,0,0,0-.13l-.14-.3-.48-1H91Zm3.61-1.86-1.44-3-1.33,3Z"/><path class="cls-1" d="M106.58,89.47V84.91a.36.36,0,0,0-.06-.22c0-.06-.12-.08-.24-.08v-.16h1.53v.16a.3.3,0,0,0-.25.08.36.36,0,0,0-.06.22V90.7a.38.38,0,0,0,.06.22.3.3,0,0,0,.25.08v.16h-1.64V91c.18,0,.26,0,.26-.1a.2.2,0,0,0-.05-.14l-.08-.1-4.53-5.16v5.2a.38.38,0,0,0,.06.22c0,.06.12.08.24.08v.16h-1.53V91c.12,0,.2,0,.24-.08a.32.32,0,0,0,.07-.22V84.91a.31.31,0,0,0-.07-.22c0-.06-.12-.08-.24-.08v-.16h2.15v.16a.44.44,0,0,0-.19,0,.13.13,0,0,0,0,.11.12.12,0,0,0,0,.08.27.27,0,0,0,.07.08l4,4.56Z"/><path class="cls-1" d="M112.55,84.91a.36.36,0,0,0-.07-.22c0-.06-.12-.08-.24-.08v-.16h4a4,4,0,0,1,1.42.25,3,3,0,0,1,1.75,1.76,3.47,3.47,0,0,1,.24,1.34,4.16,4.16,0,0,1-.2,1.35,3.05,3.05,0,0,1-.6,1.06,2.78,2.78,0,0,1-1,.7,3.6,3.6,0,0,1-1.37.25h-4.19V91c.12,0,.2,0,.24-.08a.38.38,0,0,0,.07-.22Zm3.77,5.4a2.14,2.14,0,0,0,1.68-.63,2.8,2.8,0,0,0,.56-1.88,2.24,2.24,0,0,0-2.47-2.51h-2.47v5Z"/><path class="cls-1" d="M129.9,84.91a.36.36,0,0,0-.06-.22.28.28,0,0,0-.24-.08v-.16h5.34a1.08,1.08,0,0,0,.41,0,.23.23,0,0,0,.09-.2h.16v1.45h-.16a.33.33,0,0,0-.1-.26.59.59,0,0,0-.39-.1h-4v2h2.59a.78.78,0,0,0,.37-.08.28.28,0,0,0,.15-.28h.15v1.54h-.15a.3.3,0,0,0-.11-.26.67.67,0,0,0-.39-.08H131v2.16h4.26a.66.66,0,0,0,.39-.09.4.4,0,0,0,.13-.34h.15V91.4h-.15c0-.17-.15-.24-.45-.24h-5.7V91a.28.28,0,0,0,.24-.08.38.38,0,0,0,.06-.22Z"/><path class="cls-1" d="M141.83,91a.45.45,0,0,0,.24,0,.14.14,0,0,0,.06-.11.45.45,0,0,0,0-.13l-.06-.15L139.56,85a.88.88,0,0,0-.23-.36.47.47,0,0,0-.28-.07v-.16h1.84v.16c-.23,0-.34.06-.34.2a.19.19,0,0,0,0,.11.61.61,0,0,1,0,.12l2.21,4.89L144.94,85a.37.37,0,0,1,.05-.11.22.22,0,0,0,0-.11.19.19,0,0,0-.06-.15.45.45,0,0,0-.27-.06v-.16h1.81v.16a.44.44,0,0,0-.29.09A1,1,0,0,0,146,85l-2.39,5.53-.06.12a.47.47,0,0,0-.05.16.14.14,0,0,0,.06.11s.11,0,.24,0v.16h-1.95Z"/><path class="cls-1" d="M150.26,84.91a.36.36,0,0,0-.06-.22c0-.06-.12-.08-.24-.08v-.16h5.34a1.14,1.14,0,0,0,.42,0,.23.23,0,0,0,.09-.2H156v1.45h-.15a.36.36,0,0,0-.1-.26.64.64,0,0,0-.4-.1h-4v2h2.59a.86.86,0,0,0,.38-.08.27.27,0,0,0,.14-.28h.16v1.54h-.16a.3.3,0,0,0-.11-.26.63.63,0,0,0-.38-.08h-2.62v2.16h4.26a.66.66,0,0,0,.39-.09.4.4,0,0,0,.13-.34h.15V91.4h-.15c0-.17-.15-.24-.44-.24H150V91c.12,0,.2,0,.24-.08a.38.38,0,0,0,.06-.22Z"/><path class="cls-1" d="M166.61,89.47V84.91a.36.36,0,0,0-.06-.22.28.28,0,0,0-.24-.08v-.16h1.52v.16a.29.29,0,0,0-.24.08.36.36,0,0,0-.06.22V90.7a.38.38,0,0,0,.06.22.29.29,0,0,0,.24.08v.16H166.2V91c.17,0,.26,0,.26-.1a.2.2,0,0,0-.05-.14l-.08-.1L161.8,85.5v5.2a.38.38,0,0,0,.06.22c0,.06.12.08.24.08v.16h-1.53V91c.12,0,.2,0,.24-.08a.32.32,0,0,0,.07-.22V84.91a.31.31,0,0,0-.07-.22c0-.06-.12-.08-.24-.08v-.16h2.15v.16a.44.44,0,0,0-.19,0,.13.13,0,0,0-.05.11.16.16,0,0,0,0,.08.6.6,0,0,0,.08.08l4,4.56Z"/><path class="cls-1" d="M174.24,91a.3.3,0,0,0,.25-.08.38.38,0,0,0,.06-.22V85.29h-2.14a.74.74,0,0,0-.35.07.34.34,0,0,0-.1.27h-.15V84.12H172q0,.33.45.33h5.35q.45,0,.45-.33h.15v1.51h-.15a.34.34,0,0,0-.1-.27.74.74,0,0,0-.35-.07h-2.14V90.7a.38.38,0,0,0,.06.22.3.3,0,0,0,.25.08v.16h-1.69Z"/><path class="cls-1" d="M182.77,89.14a.38.38,0,0,0,0,.17.51.51,0,0,0,.22.37,2.48,2.48,0,0,0,.59.35,4.39,4.39,0,0,0,.82.26,4.2,4.2,0,0,0,.93.1A3.35,3.35,0,0,0,187,90a1.09,1.09,0,0,0,.55-.92.73.73,0,0,0-.14-.45.8.8,0,0,0-.37-.27,2,2,0,0,0-.55-.14c-.2,0-.43,0-.67,0h-1.24a4.51,4.51,0,0,1-1.2-.17,1.85,1.85,0,0,1-.9-.53,1.69,1.69,0,0,1-.11-1.93,2.17,2.17,0,0,1,.7-.64,3.7,3.7,0,0,1,1-.42,5.39,5.39,0,0,1,1.3-.15,5.19,5.19,0,0,1,.95.07c.27.06.5.11.7.17l.48.16a.78.78,0,0,0,.32.08.41.41,0,0,0,.21,0l.12-.11.15.06-.7,1.47-.13-.09s0-.09,0-.17-.05-.13-.16-.22a1.82,1.82,0,0,0-.43-.24,3.31,3.31,0,0,0-.67-.21,4.46,4.46,0,0,0-.85-.08,3.41,3.41,0,0,0-1.63.33,1,1,0,0,0-.61.86.53.53,0,0,0,.14.39.77.77,0,0,0,.36.23,1.79,1.79,0,0,0,.55.11c.21,0,.43,0,.67,0,.4,0,.82,0,1.25,0a4.19,4.19,0,0,1,1.2.2,1.84,1.84,0,0,1,.9.57,1.66,1.66,0,0,1,.36,1.16,1.58,1.58,0,0,1-.21.78,2,2,0,0,1-.63.67,3.44,3.44,0,0,1-1,.46,5.58,5.58,0,0,1-1.43.16,5.87,5.87,0,0,1-1.19-.1,5.25,5.25,0,0,1-.86-.26c-.24-.1-.44-.19-.59-.27a.87.87,0,0,0-.37-.12.38.38,0,0,0-.27.16l-.12-.08.68-1.47Z"/><path class="cls-1" d="M196.63,0H197a4.62,4.62,0,0,1,.65.08,4,4,0,0,1,1.21.45,4.12,4.12,0,0,1,1.18,1,4.25,4.25,0,0,1,.65,1.08A3.85,3.85,0,0,1,201,4a3.72,3.72,0,0,1-.06.94A3.86,3.86,0,0,1,200.54,6a4.12,4.12,0,0,1-.7,1,4.14,4.14,0,0,1-2.91,1.34,4.54,4.54,0,0,1-1-.08,4,4,0,0,1-1.2-.44,4.18,4.18,0,0,1-1.26-1.07,4.12,4.12,0,0,1-.71-1.34,4,4,0,0,1-.18-1V4a4.53,4.53,0,0,1,.06-.5,4.11,4.11,0,0,1,.3-1,4.5,4.5,0,0,1,.68-1.05,4.22,4.22,0,0,1,1.17-.93A4.46,4.46,0,0,1,196,.08,4.81,4.81,0,0,1,196.5,0h.13m.15.64a3.54,3.54,0,1,0,3.53,3.54A3.54,3.54,0,0,0,196.78.64"/><path class="cls-1" d="M198.52,6.11h-.62s0,0,0,0c-.29-.45-.58-.91-.88-1.36,0,0,0,0,0,0h-.8V6.11h-.65V2.25h1.7a1.68,1.68,0,0,1,.54.08,1.51,1.51,0,0,1,.45.2,1,1,0,0,1,.37.53c0,.11,0,.23,0,.34a1.19,1.19,0,0,1,0,.46.69.69,0,0,1-.12.29,1.09,1.09,0,0,1-.57.42l-.25.07h0c.31.49.62,1,.94,1.47m-2.38-2h.92a.68.68,0,0,0,.2,0l.31-.08.15-.08a.66.66,0,0,0,.2-.27.82.82,0,0,0,0-.44.42.42,0,0,0-.14-.25l-.22-.15-.18-.06-.13,0h-1.14Z"/></g></g></svg>