<?xml version="1.0" encoding="utf-8"?>
<svg viewBox="0 0 207.2 90.96" width="207.2" height="90.96" xmlns="http://www.w3.org/2000/svg">
  <defs>
    <style>.cls-1{fill:#fff;}</style>
  </defs>
  <circle class="cls-1" cx="45.48" cy="45.48" r="45.48"/>
  <path d="M 24.07 36.64 L 31.16 52.37 L 38.27 36.64 L 42.27 56.45 L 40 56.45 L 37.5 43.77 L 37.5 43.77 L 31.16 57.22 L 24.9 43.77 L 24.9 43.77 L 22.34 56.45 L 20.11 56.45 Z M 45.95 39.64 L 45.95 45.2 L 52.44 45.2 L 52.44 47.14 L 46 47.14 L 46 56.44 L 43.77 56.44 L 43.77 37.71 L 52.65 37.71 L 52.65 39.65 Z M 70.51 41.8 C 68.916 40.213 66.759 39.321 64.51 39.32 C 58.544 39.32 54.815 45.778 57.798 50.945 C 59.183 53.343 61.741 54.82 64.51 54.82 C 66.72 54.773 68.83 53.886 70.41 52.34 L 70.41 54.92 C 68.7 56.107 66.671 56.749 64.59 56.76 C 59.08 56.76 54.43 52.46 54.43 47.14 C 54.561 41.648 59.097 37.291 64.59 37.38 C 66.678 37.345 68.721 37.991 70.41 39.22 Z"/>
  <path class="cls-1" d="M 107 11.4 L 112.74 24.13 L 118.5 11.4 L 121.7 27.4 L 119.9 27.4 L 117.9 17.14 L 117.9 17.14 L 112.81 28.02 L 107.74 17.14 L 107.74 17.14 L 105.74 27.4 L 103.94 27.4 Z M 117 63.8 C 115.72 62.53 113.993 61.813 112.19 61.8 C 107.36 61.607 104.132 66.716 106.38 70.996 C 107.507 73.141 109.768 74.447 112.19 74.35 C 113.977 74.317 115.684 73.601 116.96 72.35 L 116.96 74.44 C 115.578 75.403 113.935 75.923 112.25 75.93 C 106.211 76.146 102.203 69.743 105.036 64.405 C 106.445 61.75 109.246 60.133 112.25 60.24 C 113.951 60.203 115.617 60.719 117 61.71 Z M 106.72 37.94 L 106.72 42.45 L 112 42.45 L 112 44 L 106.74 44 L 106.74 51.52 L 105 51.52 L 105 36.38 L 112.19 36.38 L 112.19 37.94 Z M 116.91 38.53 C 116.826 39.45 115.777 39.934 115.023 39.401 C 114.736 39.198 114.552 38.88 114.52 38.53 C 114.604 37.61 115.653 37.126 116.407 37.659 C 116.694 37.862 116.878 38.18 116.91 38.53 Z M 116.55 51.53 L 114.88 51.53 L 114.88 42.09 L 116.55 42.09 Z M 118.48 70.93 C 118.341 66.945 122.569 64.304 126.089 66.177 C 129.61 68.049 129.783 73.031 126.401 75.143 C 125.579 75.657 124.629 75.929 123.66 75.93 C 120.848 75.991 118.524 73.752 118.48 70.94 Z M 121.48 51.53 L 119.8 51.53 L 119.8 35 L 121.48 35 Z M 120.18 70.91 C 120.18 73.604 123.097 75.288 125.43 73.941 C 127.763 72.594 127.763 69.226 125.43 67.879 C 124.898 67.572 124.294 67.41 123.68 67.41 C 121.714 67.346 120.101 68.954 120.16 70.92 Z M 131.96 27.42 L 130.29 27.42 L 130.29 26.12 L 130.24 26.12 C 129.42 27.147 128.164 27.729 126.85 27.69 C 124.139 27.677 121.991 25.397 122.14 22.69 C 121.966 19.966 124.141 17.667 126.87 17.69 C 128.178 17.684 129.418 18.273 130.24 19.29 L 130.29 19.29 L 130.29 18 L 131.96 18 Z M 123.86 22.59 C 123.692 24.495 125.168 26.145 127.08 26.19 C 129.022 26.211 130.554 24.544 130.37 22.61 C 130.485 20.697 128.914 19.107 127 19.2 C 125.18 19.248 123.755 20.782 123.84 22.6 Z M 126.08 43.1 L 126.08 43.1 C 126.599 42.296 127.493 41.814 128.45 41.82 C 129.578 41.787 130.629 42.39 131.17 43.38 C 131.802 42.368 132.928 41.772 134.12 41.82 C 136.63 41.82 137.26 43.82 137.26 45.82 L 137.26 51.57 L 135.59 51.57 L 135.59 46.05 C 135.59 44.82 135.5 43.31 133.79 43.31 C 131.86 43.31 131.65 45.1 131.65 46.53 L 131.65 51.53 L 130 51.53 L 130 46.17 C 130 45 129.85 43.31 128.24 43.31 C 126.24 43.31 126.06 45.22 126.06 46.65 L 126.06 51.54 L 124.38 51.54 L 124.38 42.09 L 126.06 42.09 Z M 132.35 67.21 L 132.35 67.21 C 132.867 66.409 133.757 65.927 134.71 65.93 C 135.839 65.905 136.889 66.505 137.44 67.49 C 138.07 66.476 139.197 65.88 140.39 65.93 C 142.9 65.93 143.53 67.93 143.53 69.93 L 143.53 75.68 L 141.85 75.68 L 141.85 70.16 C 141.85 68.93 141.77 67.42 140.05 67.42 C 138.13 67.42 137.92 69.21 137.92 70.64 L 137.92 75.64 L 136.24 75.64 L 136.24 70.28 C 136.24 69.11 136.1 67.42 134.48 67.42 C 132.48 67.42 132.31 69.33 132.31 70.76 L 132.31 75.65 L 130.63 75.65 L 130.63 66.2 L 132.31 66.2 Z M 136.14 19 L 136.14 19 C 136.591 18.219 137.419 17.733 138.32 17.72 C 138.853 17.735 139.373 17.886 139.83 18.16 L 139.03 19.63 C 138.754 19.38 138.402 19.228 138.03 19.2 C 136.18 19.2 136.1 21.48 136.1 22.7 L 136.1 27.43 L 134.42 27.43 L 134.42 18 L 136.1 18 Z M 142.14 23.05 C 142.122 24.829 143.592 26.263 145.37 26.2 C 146.662 26.181 147.828 25.423 148.37 24.25 L 149.8 25.04 C 148.909 26.715 147.147 27.741 145.25 27.69 C 142.533 27.78 140.316 25.536 140.44 22.82 C 140.44 20.03 142.13 17.72 145.21 17.72 C 148.29 17.72 150.05 20.23 149.88 23.05 Z M 148.14 21.68 C 147.892 20.269 146.682 19.231 145.25 19.2 C 143.788 19.21 142.535 20.246 142.25 21.68 Z M 147.81 67.22 L 147.81 67.22 C 148.332 66.419 149.224 65.937 150.18 65.94 C 151.308 65.907 152.359 66.51 152.9 67.5 C 153.54 66.472 154.69 65.874 155.9 65.94 C 158.42 65.94 159.04 67.94 159.04 69.94 L 159.04 75.69 L 157.3 75.69 L 157.3 70.16 C 157.3 68.93 157.22 67.42 155.5 67.42 C 153.57 67.42 153.36 69.21 153.36 70.64 L 153.36 75.64 L 151.69 75.64 L 151.69 70.28 C 151.69 69.11 151.54 67.42 149.93 67.42 C 147.93 67.42 147.75 69.33 147.75 70.76 L 147.75 75.65 L 146.08 75.65 L 146.08 66.2 L 147.75 66.2 Z M 155.74 20.22 C 155.521 19.658 155.001 19.27 154.4 19.22 C 153.782 19.2 153.252 19.656 153.18 20.27 C 153.18 21.14 154.31 21.46 155.47 21.92 C 156.63 22.38 157.75 23.05 157.75 24.63 C 157.702 26.41 156.198 27.801 154.42 27.71 C 152.859 27.771 151.443 26.799 150.94 25.32 L 152.43 24.72 C 152.691 25.608 153.505 26.218 154.43 26.22 C 155.277 26.278 155.996 25.609 156 24.76 C 156 22.64 151.56 23.37 151.56 20.39 C 151.602 18.83 152.933 17.617 154.49 17.72 C 155.624 17.761 156.638 18.438 157.11 19.47 Z M 161.39 19 L 161.39 19 C 161.909 18.196 162.803 17.714 163.76 17.72 C 164.888 17.687 165.939 18.29 166.48 19.28 C 167.11 18.266 168.237 17.67 169.43 17.72 C 171.94 17.72 172.57 19.72 172.57 21.72 L 172.57 27.47 L 170.9 27.47 L 170.9 21.94 C 170.9 20.71 170.81 19.2 169.1 19.2 C 167.17 19.2 166.96 20.99 166.96 22.42 L 166.96 27.42 L 165.28 27.42 L 165.28 22.06 C 165.28 20.89 165.14 19.2 163.53 19.2 C 161.53 19.2 161.35 21.12 161.35 22.54 L 161.35 27.43 L 159.67 27.43 L 159.67 18 L 161.35 18 Z M 163.85 62.64 C 163.888 63.563 162.913 64.181 162.095 63.753 C 161.276 63.325 161.228 62.171 162.008 61.677 C 162.2 61.555 162.423 61.49 162.65 61.49 C 163.296 61.484 163.828 61.995 163.85 62.64 Z M 163.49 75.64 L 161.81 75.64 L 161.81 66.2 L 163.49 66.2 Z M 170.74 68.38 C 170.523 67.817 170.002 67.428 169.4 67.38 C 168.801 67.358 168.281 67.788 168.19 68.38 C 168.19 69.24 169.32 69.57 170.47 70.03 C 171.62 70.49 172.75 71.16 172.75 72.74 C 172.702 74.52 171.198 75.911 169.42 75.82 C 167.903 75.871 166.525 74.944 166 73.52 L 167.48 72.91 C 167.9 73.8 168.38 74.42 169.48 74.42 C 170.292 74.448 170.973 73.812 171 73 C 171 70.88 166.57 71.61 166.57 68.63 C 166.612 67.07 167.943 65.857 169.5 65.96 C 170.63 66.005 171.64 66.681 172.11 67.71 Z M 178.74 68.38 C 178.523 67.817 178.002 67.428 177.4 67.38 C 176.801 67.358 176.281 67.788 176.19 68.38 C 176.19 69.24 177.32 69.57 178.47 70.03 C 179.62 70.49 180.75 71.16 180.75 72.74 C 180.707 74.518 179.206 75.911 177.43 75.82 C 175.91 75.875 174.526 74.947 174 73.52 L 175.49 72.91 C 175.742 73.806 176.56 74.423 177.49 74.42 C 178.317 74.471 179.023 73.829 179.05 73 C 179.05 70.88 174.61 71.61 174.61 68.63 C 174.652 67.07 175.983 65.857 177.54 65.96 C 178.674 66.001 179.688 66.678 180.16 67.71 Z M 176 23.05 C 175.976 24.827 177.444 26.263 179.22 26.2 C 180.512 26.183 181.68 25.424 182.22 24.25 L 183.65 25.04 C 182.759 26.715 180.997 27.741 179.1 27.69 C 176.383 27.78 174.166 25.536 174.29 22.82 C 174.29 20.03 175.98 17.72 179.06 17.72 C 182.14 17.72 183.9 20.23 183.73 23.05 Z M 182 21.68 C 181.752 20.269 180.542 19.231 179.11 19.2 C 177.648 19.21 176.395 20.246 176.11 21.68 Z M 185.19 62.68 C 185.19 63.596 184.198 64.169 183.405 63.711 C 183.037 63.498 182.81 63.105 182.81 62.68 C 182.81 61.764 183.802 61.191 184.595 61.649 C 184.963 61.862 185.19 62.255 185.19 62.68 Z M 184.84 75.68 L 183.1 75.68 L 183.1 66.2 L 184.78 66.2 Z M 187.23 70.97 C 187.091 66.985 191.319 64.344 194.839 66.217 C 198.36 68.089 198.533 73.071 195.151 75.183 C 194.326 75.699 193.373 75.971 192.4 75.97 C 189.551 76.066 187.185 73.791 187.17 70.94 Z M 188.91 70.97 C 188.91 73.664 191.827 75.348 194.16 74.001 C 196.493 72.654 196.493 69.286 194.16 67.939 C 193.625 67.63 193.018 67.468 192.4 67.47 C 190.446 67.39 188.825 68.965 188.85 70.92 Z M 201 67.34 L 201.05 67.34 C 201.693 66.438 202.742 65.913 203.85 65.94 C 206.57 65.94 207.2 67.83 207.2 70.04 L 207.2 75.65 L 205.53 75.65 L 205.53 70.32 C 205.53 68.79 205.4 67.42 203.45 67.42 C 201.15 67.42 201 69.48 201 71.17 L 201 75.65 L 199.33 75.65 L 199.33 66.2 L 201 66.2 Z"/>
</svg>