<svg xmlns="http://www.w3.org/2000/svg" viewBox="0 0 53.24 254.68"><defs><style>.cls-1{fill:#fff;}</style></defs><title>menu-right</title><g id="Capa_2" data-name="Capa 2"><g id="Capa_1-2" data-name="Capa 1"><path class="cls-1" d="M51.73,254.68H1.52V240H7.27C2.83,237.5,0,231,0,225.58c0-7.17,2.93-12.32,7.88-14.85C2.22,206.79,0,201.94,0,195.17c0-9.5,5.56-18.59,19.2-18.59H51.73v14.85H22.63c-4.75,0-8.49,2.53-8.49,8s4.15,8.39,8.59,8.39h29V223H22.63c-4.75,0-8.49,2.53-8.49,8.09,0,5.35,4.15,8.28,8.69,8.28h28.9Z"/><path class="cls-1" d="M37.28,118c8.69,2.43,16,10.41,16,23.14,0,13.84-9.9,26.16-26.77,26.16-16.17,0-26.47-12-26.47-25,0-15.56,9.6-25.16,25.76-25.16a31.83,31.83,0,0,1,4.75.31v35c5.66-.3,9.7-5.45,9.7-11.41,0-5.56-2.63-8.69-6.57-10.11ZM20.61,131.93c-3.84.21-8.49,2.83-8.49,10.11,0,6.46,4.75,9.7,8.49,10Z"/><path class="cls-1" d="M51.73,91.83v15.36H1.52V92.34H7.27C2.53,89.61.2,83.45.2,78.29c0-12.63,9-18.28,20-18.28H51.73V75.36H22.83c-4.95,0-8.69,2.63-8.69,8.19,0,5,3.74,8.28,8.79,8.28Z"/><path class="cls-1" d="M46.68,15.15c4.34,2.63,6.16,8.39,6.16,13.44,0,12.23-8.89,19.1-19.6,19.1H1.52V32.33H30c4.84,0,8.68-2.63,8.68-8.08,0-5.16-3.53-8.39-8.58-8.39H1.52V.5H42.73a79.72,79.72,0,0,0,9-.5V14.75A37,37,0,0,1,46.68,15.15Z"/></g></g></svg>