<svg xmlns="http://www.w3.org/2000/svg" viewBox="0 0 53.24 254.68"><defs><style>.cls-1{fill:#fff;}</style></defs><title>menu</title><g id="Capa_2" data-name="Capa 2"><g id="Capa_1-2" data-name="Capa 1"><path class="cls-1" d="M1.52,0H51.73V14.65H46c4.44,2.52,7.27,9,7.27,14.45,0,7.17-2.93,12.32-7.88,14.85,5.66,3.94,7.88,8.79,7.88,15.56,0,9.49-5.55,18.59-19.19,18.59H1.52V63.24H30.61c4.75,0,8.49-2.52,8.49-8S35,46.88,30.51,46.88h-29V31.72H30.61c4.75,0,8.49-2.52,8.49-8.08,0-5.35-4.14-8.28-8.69-8.28H1.52Z"/><path class="cls-1" d="M16,136.68c-8.69-2.42-16-10.4-16-23.13C0,99.71,9.9,87.38,26.77,87.38c16.17,0,26.47,12,26.47,25.06,0,15.56-9.6,25.15-25.76,25.15a32.38,32.38,0,0,1-4.75-.3v-35c-5.66.31-9.7,5.46-9.7,11.42,0,5.56,2.63,8.69,6.57,10.1Zm16.67-13.94c3.84-.2,8.49-2.83,8.49-10.1,0-6.47-4.75-9.7-8.49-10Z"/><path class="cls-1" d="M1.52,162.85V147.49H51.73v14.85H46c4.75,2.73,7.07,8.89,7.07,14,0,12.63-9,18.29-20,18.29H1.52V179.31H30.41c4.95,0,8.69-2.62,8.69-8.18,0-5-3.74-8.28-8.79-8.28Z"/><path class="cls-1" d="M6.57,239.52C2.22,236.9.4,231.14.4,226.09.4,213.86,9.29,207,20,207H51.73v15.36H23.24c-4.85,0-8.69,2.62-8.69,8.08,0,5.15,3.53,8.39,8.59,8.39H51.73v15.35H10.51a78.24,78.24,0,0,0-9,.51V239.93A35.09,35.09,0,0,1,6.57,239.52Z"/></g></g></svg>