<svg xmlns="http://www.w3.org/2000/svg" viewBox="0 0 265.55 43.66"><defs><style>.cls-1{fill:#dbc27d;}</style></defs><title>slim</title><g id="Capa_2" data-name="Capa 2"><g id="Objects"><path class="cls-1" d="M234.38,31.4c-13.07-11.39-30.65-12.93-46.72-8-10,3.05-20.19,7.74-30.94,7.17-5.46-.29-11.24-2-15.37-5.74-2.75-2.49-5-6.09-5-9.93a7.5,7.5,0,0,1,3.58-6.8q3.74-2.94,4.94,2.85c0-.77-1.2-1-1.36-.19-.6,3,2.08,5.49,5,3.7,3.3-2,1.74-6.6-.89-8.32-3.63-2.36-8.53-.61-11,2.54-3.53,4.39-2.08,10.65,1,14.85,9.43,12.89,27.8,9.25,40.61,5,9.25-3.06,18.48-6.6,28.4-6.27,10.09.33,19.07,4.17,27.24,9.89.43.3,1-.39.56-.74Z"/><path class="cls-1" d="M204.49,38.14c-2.8-3.33-7.46,1.43-3.88,4.39,5,4.13,8.26-4.12,5.78-8-5.19-8.15-17.26-5.07-24.43-2.37s-15,5.94-22.84,3.32c-4.82-1.62-9-5.9-9-11.22A9.91,9.91,0,0,1,153.78,17a5.66,5.66,0,0,1,4.4-1c2.69-.58,3.55.92,2.61,4.5-.32-.5-1.29-.35-1.22.33.47,4.73,7.43,2.31,5.79-2.52-2.54-7.46-13.33-4.65-16.13.93C144.86,27.93,152.79,36.4,161,38c6.34,1.27,12.58-.58,18.48-2.8a74.12,74.12,0,0,1,10-3.43,20.14,20.14,0,0,1,8.74-.17l3.19,1.17q4.11,1.52,2.42,5.94a.43.43,0,0,0,.61-.61Z"/><path class="cls-1" d="M31.74,32.14c8.15-5.71,17.15-9.58,27.22-9.89,9.58-.3,18.47,3,27.41,5.93,13.06,4.35,31.92,8.58,41.62-4.7,3.08-4.21,4.48-10.44,1-14.85-2.39-3-6.87-4.66-10.44-2.82-3,1.51-5.12,6.41-1.49,8.62,2.92,1.77,5.6-.7,5-3.7a.69.69,0,0,0-1.36.17q1.22-5.77,5-2.84a7.49,7.49,0,0,1,3.57,6.78c.05,3.86-2.24,7.47-5,10-4.13,3.75-9.87,5.45-15.35,5.73C98.09,31.09,88,26.42,77.9,23.36c-16.08-4.89-33.66-3.35-46.73,8-.4.35.13,1,.57.74Z"/><path class="cls-1" d="M61.67,38.75q-1.68-3.68,1.21-5a8.83,8.83,0,0,1,4.39-2.07,18.63,18.63,0,0,1,7-.09,51.56,51.56,0,0,1,10.77,3.3c5.94,2.28,12.19,4.39,18.65,3.36,8.61-1.38,17-9.87,12.61-19-2.71-5.59-12.56-8.12-15.81-1.57-2.59,5.23,5,8,5.47,3.17.07-.69-.9-.85-1.22-.34l.69-4.46a6.46,6.46,0,0,1,5.08.44,9.14,9.14,0,0,1,4.91,7.8c0,4.85-3.42,8.63-7.6,10.59-7.66,3.59-15.89.47-23.25-2.3s-19.86-6.51-25.43,2c-2.53,3.86.62,11.92,5.7,8.06,3.77-2.86-1-7.84-3.8-4.45a.43.43,0,0,0,.61.61Z"/><path class="cls-1" d="M99.83,12.34C86.44,28,64.55,18.69,47.55,16.44a123.4,123.4,0,0,0-29.19-.55c-5.64.6-12.72,1.18-16.54,6C-3.62,28.7,4.06,42.19,12.57,36.4c7.66-5.21-4.35-12.25-4.66-4.67a.59.59,0,0,0,1.16.16q1.52,7.39-5.36,1.42-4.32-5.37,0-10.78c1.76-2,4.56-2.94,7-3.62,5.29-1.45,11.14-1.68,16.61-1.83A144.83,144.83,0,0,1,60.4,20.46c13.53,2.77,31.1,5.77,40.21-7.52.32-.47-.41-1-.78-.6Z"/><path class="cls-1" d="M26.58,24.15q-.88,4.86-4.2.79c-2.51-.6-3.62-2.12-3.32-4.59a7.8,7.8,0,0,1,2.55-7.85c4-3.8,10-4.12,15.1-3.11,6.5,1.27,12.38,4.59,18.85,6s18.09.85,19.82-7.58C76.51,2.32,69-3.51,65.79,2.62c-2.46,4.76,4.55,8.43,6.66,3.52.32-.72-.63-1.69-1.22-.93q4.26.69.51,3.74A4.2,4.2,0,0,1,69.39,12c-1.84,1.39-4.85,1.81-7.14,1.89A32.36,32.36,0,0,1,51.2,12c-6-2-12-4.82-18.39-5C25.12,6.8,14.55,12.28,17,21.56c1.24,4.69,11.6,11.37,13.62,3.66,1.15-4.4-5.33-5.58-4.5-1a.24.24,0,0,0,.47-.06Z"/><path class="cls-1" d="M164.94,12.94c9.11,13.29,26.69,10.29,40.2,7.52,10.91-2.23,21.92-3.7,33.08-3.38,5.5.15,11.29.4,16.62,1.83,2.55.68,5.23,1.58,7,3.63q4.28,5.41-.05,10.78-6.85,6-5.35-1.44a.59.59,0,0,0,1.15-.14c-.31-7.57-12.3-.55-4.65,4.67,8.5,5.79,16.17-7.72,10.74-14.54-3.82-4.8-10.88-5.38-16.53-6a123.94,123.94,0,0,0-29.19.55c-17,2.24-38.9,11.56-52.29-4.11-.36-.42-1.1.14-.78.61Z"/><path class="cls-1" d="M239.44,24.22c.84-4.59-5.67-3.39-4.53.91,2.05,7.71,12.37,1.28,13.65-3.57C250.87,12.81,241.24,7.11,233.8,7c-6.47-.09-12.44,2.6-18.45,4.64a34.45,34.45,0,0,1-11.11,2.28,16.63,16.63,0,0,1-7.41-1.5l-2.36-1.55c-2.92-2.14-2.94-4,0-5.5a.78.78,0,0,0-1.34.78c2.07,4.81,9,1.33,6.72-3.41-2.72-5.65-10-1.31-9.81,3.8.32,9,12.49,10.31,19.08,9,6.81-1.3,12.95-4.86,19.75-6.19,4.79-.94,9.82-.72,13.88,2.21,1.82,1.32,4,3.55,4.24,6L246,23.14q-3.75,6.39-7.05,1c0,.27.42.34.47.07Z"/></g></g></svg>