<?xml version="1.0" encoding="utf-8"?>
<!-- Generator: Adobe Illustrator 16.0.0, SVG Export Plug-In . SVG Version: 6.00 Build 0)  -->
<!DOCTYPE svg PUBLIC "-//W3C//DTD SVG 1.1//EN" "http://www.w3.org/Graphics/SVG/1.1/DTD/svg11.dtd">
<svg version="1.1" id="Capa_1" xmlns="http://www.w3.org/2000/svg" xmlns:xlink="http://www.w3.org/1999/xlink" x="0px" y="0px"
	 width="422.4px" height="73.7px" viewBox="0 0 422.362 73.701" enable-background="new 0 0 422.362 73.701"
	 xml:space="preserve">
<g fill="rgb(255, 255, 255)">
	<path d="M 133.5 34.4 h -7.3 v 26.2 h 7.3 V 34.4 z M 115.8 30 h 27.9 v -6.3 h -27.9 V 30 z M 153.2 50.7 h 11.1 v -3.5 c 0 -6.3 -3.5 -11.6 -10.4 -11.6 c -7.6 0 -11.9 5.9 -11.9 12.7 c 0 7 3.3 12.7 12.1 12.7 c 3.4 0 5.6 -0.3 8.7 -1.7 l -1.9 -5 c -1.7 0.5 -3.9 1 -6.3 1 c -2.6 0 -5.9 -1.9 -5.9 -7 c 0 -2.6 0.7 -7.5 4.9 -7.5 c 3.1 0 4.1 3.1 4.1 5.4 h -4.5 V 50.7 z M 184.4 42.7 l 3.1 -5.1 c -2.6 -1.5 -5.1 -2 -7.9 -2 c -7.4 0 -11.4 5.4 -12.1 10.6 h 6.9 c 0.6 -2.8 2.9 -4.6 5.6 -4.6 C 182.1 41.5 183.9 42.4 184.4 42.7 M 179.8 60.9 c 2.7 0 5.6 -0.6 8 -2.1 l -3.1 -4.9 c -1.3 0.6 -2.9 1 -4.4 1 c -3.2 0 -5.4 -1.9 -6 -4.4 h -7 C 168.2 57.2 173.1 60.9 179.8 60.9 M 191.7 60.6 h 6.8 V 35.9 h -6.8 V 60.6 z M 207.6 60.6 h 6.7 v -17.5 c 0 -5.1 -3.9 -7.6 -8.6 -7.6 c -1 0 -1.9 0.2 -2.9 0.4 v 5.7 c 0.6 -0.2 1.1 -0.2 1.7 -0.2 c 2 0 3.1 0.6 3.1 2.8 V 60.6 z M 229.1 60.8 v -6.2 c -2.4 -1 -3.4 -3.5 -3.4 -6.3 c 0 -3.7 1.7 -5.5 3.4 -6.3 v -6.3 c -6.4 0.8 -10.4 6.1 -10.4 12.7 C 218.7 55.6 223.2 60 229.1 60.8 M 243.7 48.3 c 0 -5 -2.4 -11.7 -10.3 -12.6 v 6.3 c 1.7 0.8 3.3 2.7 3.3 6.3 c 0 3.7 -1.3 5.4 -3.3 6.3 v 6.2 C 239.4 60 243.7 55 243.7 48.3 M 272.9 31.2 l 3.2 -5.4 c -3 -1.9 -6.6 -2.5 -10.1 -2.5 c -12.7 0 -18.3 10 -18.6 16.6 h 7.4 c 0.3 -5 4.5 -10.2 10.9 -10.2 C 268.1 29.7 270.8 29.8 272.9 31.2 M 276.8 58.3 l 0 0 v -0.1 C 276.8 58.3 276.8 58.3 276.8 58.3 M 266.2 60.9 c 3.6 0 7.7 -0.5 10.5 -2.7 l -2.9 -5.2 c -2.4 1.2 -5.1 1.5 -7.6 1.5 c -4.4 0 -10.4 -2.6 -11.4 -10.3 c 0 0.1 -7.5 0.1 -7.5 0.1 C 248.5 56.3 257 60.9 266.2 60.9 M 278.5 53.7 c 0 5.5 4.1 7.2 8 7.2 c 0.3 0 1.4 -0.1 1.5 -0.1 v -5.2 c -0.2 0.1 -0.3 0.1 -0.5 0.1 c -1.5 0 -2.5 -1 -2.5 -2.4 c 0 -2.1 1.8 -2.7 2.6 -3 c 0.2 -0.1 0.3 -0.1 0.4 -0.1 v -4.5 c -0.1 0.1 -0.3 0.1 -0.6 0.2 C 285.3 46.4 278.5 47.8 278.5 53.7 M 296.9 61.5 l 4.7 -4.2 l -2.4 -2.3 V 43 c 0 -3.3 -2.8 -7.5 -9.1 -7.5 c -5.9 0 -10.1 2.7 -10.5 3 l 2.4 4.6 c 1.1 -0.5 3.8 -1.9 7.5 -1.9 c 1.4 0 3 1 3 2.3 v 13.8 L 296.9 61.5 z M 305.3 60.6 h 6.8 V 35.9 h -6.8 V 60.6 z M 319.5 60.6 h 6.8 V 43.5 c 0 -4.5 -2.7 -8 -7.4 -8 c -0.9 0 -1.7 0.2 -2.5 0.3 v 5.7 c 0.2 -0.1 0.3 -0.1 0.5 -0.1 c 1.4 0 2.6 0.5 2.6 2 V 60.6 z M 333.7 60.6 h 6.7 V 43.5 c 0 -4.5 -2.7 -8 -7.4 -8 c -0.9 0 -1.7 0.1 -2.5 0.3 v 5.8 c 0.2 -0.1 0.4 -0.1 0.6 -0.1 c 1.9 -0.1 2.5 0.9 2.5 2.2 V 60.6 z M 346.4 73.5 h 6.8 V 35.5 h -6.8 V 73.5 z M 370.6 48.1 c 0 -7.1 -3.8 -12.6 -11 -12.6 c -0.8 0 -1.4 0.1 -2.2 0.3 v 5.8 c 0.4 -0.1 0.9 -0.1 1.3 -0.1 c 3.8 0 5.2 3.5 5.2 6.7 c 0 3 -1.4 6.8 -5 6.8 c -0.5 0 -1 0 -1.4 -0.1 v 5.9 c 0.6 0.1 1.3 0.2 2 0.2 C 367.3 60.9 370.6 54.2 370.6 48.1 M 383.9 60.9 c 1 0 1.9 -0.2 2.8 -0.5 V 54.7 c -0.5 0.2 -1.1 0.3 -1.7 0.3 c -2 0 -3 -0.7 -3 -2.6 V 35.9 h -6.8 v 17.5 C 375.3 58.5 379.1 60.9 383.9 60.9 M 391.1 60.6 h 6.8 V 35.9 h -6.8 V 60.6 z M 405.4 53.3 l -3.7 4.5 c 1.9 1.7 4.6 3.2 8.9 3.2 c 4 0 9.3 -2.4 9.3 -7.5 c 0 -3.4 -2.2 -5.4 -4.8 -7 l -3.3 5 c 0.9 0.5 1.5 1.3 1.5 2 c 0 1 -0.9 1.8 -2.6 1.8 C 408.6 55.3 407.1 54.6 405.4 53.3 M 416.7 42.7 l 3.1 -4.6 c -2.5 -1.9 -4.8 -2.6 -8.2 -2.6 c -3.9 0 -8.5 2.5 -8.5 7 c 0 4 2.4 5.6 5 6.9 l 3.3 -5.1 c -1.4 -0.7 -2 -1.1 -2 -2 c 0 -0.9 0.8 -1.3 2.4 -1.3 C 413.5 41.1 414.6 41.4 416.7 42.7"/>
</g>
<path fill="rgb(255, 255, 255)" d="M 0.3 61.7 h 22.2 V 39.5 H 0.3 V 61.7 z M 0.3 23.4 h 22.2 V 1.3 H 0.3 V 23.4 z M 33.8 1.3 v 60.4 h 60.4 V 24.7 H 77.5 v 20.3 H 50.3 V 18 h 20.3 V 1.3 H 33.8 z"/>
</svg>
