<svg xmlns="http://www.w3.org/2000/svg" viewBox="0 0 166.3 86.01"><defs><style>.cls-1{fill:#d9b672;}</style></defs><title>title</title><g id="Capa_2" data-name="Capa 2"><g id="Capa_1-2" data-name="Capa 1"><path class="cls-1" d="M31.84,56.41c-.2-.43-.39-.82-.58-1.16s-.4-.64-.59-.9a11.84,11.84,0,0,0-2.28-5,6.24,6.24,0,0,0-.58-.69c-.2-.22-.41-.46-.63-.68-.46-.43-1-.9-1.42-1.25-.92-.77-1.89-1.55-2.82-2.34a10.3,10.3,0,0,1-2.89-3.34,6.06,6.06,0,0,1-.19-3.61,24.42,24.42,0,0,1,.78-2.89c.22-.7.35-1.09.35-1.09l-.23.19c-.15.13-.37.32-.63.58a13.49,13.49,0,0,0-2.05,2.48,8.67,8.67,0,0,0-1,2.16,19.13,19.13,0,0,1-2.3,3.39,20.38,20.38,0,0,0-2.37,2.84,8.91,8.91,0,0,0-1.22,2.75A7.39,7.39,0,0,0,11.68,53a9,9,0,0,0,4.6,3.81,12.92,12.92,0,0,0,5.63.66c1.32-.08,2.47-.29,3.45-.42a9.78,9.78,0,0,1,2.53-.11,1.56,1.56,0,0,1,1.45.83A9.66,9.66,0,0,1,30,60.94a9,9,0,0,1-1.78,4.8,12,12,0,0,1-6.65,4.33,13,13,0,0,1-4.13.4l-1.14.17s.37.16,1.08.43a13.55,13.55,0,0,0,3.14.68,11.63,11.63,0,0,0,4.93-.59,10.85,10.85,0,0,0,7-7.77,11.12,11.12,0,0,0,.23-3.89A11.47,11.47,0,0,0,31.84,56.41Z"/><path class="cls-1" d="M166.21,24.75c-.07-.53-.11-1.07-.21-1.6l-.14-.79-.18-.79a24.27,24.27,0,0,0-2.37-6.16,25.14,25.14,0,0,0-9.71-9.59,42.73,42.73,0,0,0-13.41-4.71A69.79,69.79,0,0,0,125.53,0c-1.25,0-2.49.08-3.76.22s-2.54.22-3.8.46-2.53.4-3.78.72-2.51.56-3.75,1A80.34,80.34,0,0,0,95.91,8.21a94.82,94.82,0,0,0-13.24,8.28A90,90,0,0,0,71.29,26.54l-.69.77a85.8,85.8,0,0,0-12.82-5.64,71.31,71.31,0,0,0-13.5-3.19c-1-.11-1.91-.19-2.8-.27l-1.28-.12c-.42,0-.82,0-1.21,0L36.81,18l-1,0L35,18l-3.4.15,3.38.34.85.08.94.14,2.13.32c.38.06.77.1,1.18.18l1.24.25L44,20a88.37,88.37,0,0,1,12.86,4.11A116.49,116.49,0,0,1,68.5,29.66c-.69.83-1.37,1.66-2,2.52-1.46-.86-3-1.72-4.52-2.54-7-3.72-14.12-6.35-20.5-7.27A37.61,37.61,0,0,0,32.75,22a30.48,30.48,0,0,0-6.51,1.27A28,28,0,0,0,19.84,25a30.76,30.76,0,0,0-3.75,1.78,37.77,37.77,0,0,0-3.88,2.54c-.33.23-.65.49-1,.75s-.65.51-1,.8l-1,.84c-.32.28-.64.61-1,.92A26.84,26.84,0,0,0,4.91,37,31.15,31.15,0,0,0,.46,48a23.26,23.26,0,0,0,0,9,16,16,0,0,0,3.89,7.69,16.45,16.45,0,0,0,3.12,2.55c.57.31,1.1.64,1.68.9a15.11,15.11,0,0,0,1.71.67,18.5,18.5,0,0,0,6.46.9,14.68,14.68,0,0,0,5.22-1.1,11.19,11.19,0,0,0,1.92-1.06,8.37,8.37,0,0,0,1.38-1.2,7.35,7.35,0,0,0,1.39-2c.13-.25.19-.46.25-.59l.07-.2-.11.18c-.08.12-.18.31-.35.53A7.89,7.89,0,0,1,25.41,66a8.74,8.74,0,0,1-1.43.87,10.24,10.24,0,0,1-1.87.68,14.3,14.3,0,0,1-4.78.33,17.64,17.64,0,0,1-5.56-1.43,11.77,11.77,0,0,1-1.37-.7c-.45-.25-.87-.58-1.32-.87A14.86,14.86,0,0,1,6.75,62.6,13.54,13.54,0,0,1,4,56.35a21.41,21.41,0,0,1,.2-7.63,31.94,31.94,0,0,1,3.69-9.86,26.39,26.39,0,0,1,2.79-4c.27-.29.5-.59.79-.87l.82-.86c.27-.29.56-.54.83-.81s.55-.54.83-.78a33.5,33.5,0,0,1,12.46-7.32,33.91,33.91,0,0,1,6.34-.31,41.93,41.93,0,0,1,8.15,1.23c5.89,1.43,12.46,4.29,19.24,7.9q2.13,1.13,4.17,2.27c-.64,1-1.25,2.06-1.82,3.11a43.61,43.61,0,0,0-4.67,13.42,34.6,34.6,0,0,0,.4,13.55A32.56,32.56,0,0,0,63.62,77a23.87,23.87,0,0,0,9.28,7.54A17.31,17.31,0,0,0,78.45,86a13.77,13.77,0,0,0,2.8,0,14,14,0,0,0,2.67-.6,14.31,14.31,0,0,0,4.53-2.62,15.15,15.15,0,0,0,3.19-3.76,10.62,10.62,0,0,0,1.43-4.47,7.4,7.4,0,0,0-.95-4.34,7.2,7.2,0,0,0-3-2.78,10.7,10.7,0,0,0-3.59-1,11.09,11.09,0,0,0-3.41.06,6,6,0,0,0-2.83,1.3A4.71,4.71,0,0,0,77.79,70a5.1,5.1,0,0,0,0,2.42,4.09,4.09,0,0,0,.92,1.85,2.52,2.52,0,0,0,1.5.81,2.57,2.57,0,0,0,1.32-.21,5,5,0,0,0,.47-.25l.35-.24h.22l.34,0,.28,0a3.12,3.12,0,0,0,1.44,0l.23-.07.23-.09a4.51,4.51,0,0,0,.44-.22c.28-.14.56-.3.85-.44a2.74,2.74,0,0,1,1.1-.37,1.64,1.64,0,0,1,.89.32,6.27,6.27,0,0,1,.62.48l.23.2,0-.08c0-.05,0-.12-.08-.21a3.63,3.63,0,0,0-.39-.75,2.18,2.18,0,0,0-.42-.45,5.39,5.39,0,0,1-.59-.9,5.54,5.54,0,0,0-.45-.86,2.28,2.28,0,0,0-.55-.57,1.89,1.89,0,0,0-1.29-.4A2.26,2.26,0,0,0,84,70.6a3.29,3.29,0,0,0-.73,1.29c-.11.33-.18.63-.25.88a2.46,2.46,0,0,1-.22.62c-.1.17-.14.23-.35.27a2,2,0,0,1-1.82-1.08,3.14,3.14,0,0,1-.38-2,3.08,3.08,0,0,1,.32-1c0-.19.07-.29.07-.29l-.21.21a3.6,3.6,0,0,0-.48.69,3.08,3.08,0,0,0-.35,1.26A2.78,2.78,0,0,0,80,73a2.6,2.6,0,0,0,.78.86,3,3,0,0,0,.92.45,3.06,3.06,0,0,0,.55.1l-.32.2-.47.22a2.56,2.56,0,0,1-1.27.15,2.28,2.28,0,0,1-1.36-.81,3.84,3.84,0,0,1-.8-1.78,4.87,4.87,0,0,1,.12-2.26A4.41,4.41,0,0,1,79.57,68a5.42,5.42,0,0,1,2.62-1.08A10.53,10.53,0,0,1,85.4,67a9.92,9.92,0,0,1,3.3,1.08A6.14,6.14,0,0,1,92,74.36a9.42,9.42,0,0,1-1.4,3.92,13.66,13.66,0,0,1-3,3.33,12.75,12.75,0,0,1-4.12,2.23,13.15,13.15,0,0,1-2.36.47,12.86,12.86,0,0,1-2.48,0,15.47,15.47,0,0,1-4.94-1.43,22.1,22.1,0,0,1-8.34-7.11,30.9,30.9,0,0,1-4.75-10.89,32.42,32.42,0,0,1-.14-12.58A41.21,41.21,0,0,1,65,39.75c.57-1,1.19-2,1.85-3,2.54,1.44,5,2.87,7.31,4.23,4.28,2.5,8.17,4.76,11.49,6.56s6.07,3.18,8,4.06c1,.44,1.72.77,2.24,1l.78.32-.71-.47-2-1.35c-1.74-1.19-4.22-3-7.26-5.16S80,41,75.89,38.19c-2.16-1.48-4.46-3-6.9-4.51.64-.84,1.32-1.66,2-2.46l.1-.11.58.32c5.1,2.91,9.83,6,14.13,8.77S94,45.64,97.35,47.63a55.71,55.71,0,0,0,8.37,4.08c1,.39,1.85.62,2.4.8l.83.27-.79-.39c-.51-.27-1.28-.61-2.24-1.12a67.38,67.38,0,0,1-7.72-4.93c-3.13-2.27-6.72-5.22-10.9-8.27a146.35,146.35,0,0,0-14-9.3l.18-.19a88.66,88.66,0,0,1,11.06-9.64,94.57,94.57,0,0,1,12.83-8c9.07-4.67,18.74-7.7,28.31-8a68.06,68.06,0,0,1,14.06.89,40.27,40.27,0,0,1,12.63,4.21,22.92,22.92,0,0,1,8.93,8.49,22.32,22.32,0,0,1,2.25,5.54,19.69,19.69,0,0,1,.66,5.73,19,19,0,0,1-1,5.49,22.37,22.37,0,0,1-2.38,4.89,31.44,31.44,0,0,1-7.06,7.58,46.81,46.81,0,0,1-8.09,5.06,55.33,55.33,0,0,1-8,3.17,50.55,50.55,0,0,1-13.53,2.34,34.45,34.45,0,0,1-8.68-.77c-1-.23-1.7-.44-2.19-.6l-.74-.25.73.28c.48.18,1.2.43,2.17.7a34.12,34.12,0,0,0,8.71,1.12A50.63,50.63,0,0,0,137.94,55a55.73,55.73,0,0,0,8.23-3,47,47,0,0,0,8.49-5,33,33,0,0,0,7.65-7.79A24.33,24.33,0,0,0,165,34a21,21,0,0,0,1.25-6A22.57,22.57,0,0,0,166.21,24.75Z"/><path class="cls-1" d="M116.23,14.55l.83-.23.84-.19a65.93,65.93,0,0,1,7.16-1.34,43.44,43.44,0,0,1,7.68-.43,32.38,32.38,0,0,1,3.85.39c.62.09,1.24.23,1.85.35s1.2.28,1.78.47,1.15.38,1.71.57,1.09.44,1.6.71,1,.54,1.51.81c.24.15.46.31.69.46l.35.23.32.25c.21.17.44.33.63.51l.59.54a11.79,11.79,0,0,1,1.09,1.15,11.34,11.34,0,0,1,1.63,2.47,6.61,6.61,0,0,1,.4,5,8.6,8.6,0,0,1-2.56,3.64,14.59,14.59,0,0,1-3,1.95,18.74,18.74,0,0,1-2.11.9l-.77.26.8-.13a17.1,17.1,0,0,0,2.26-.58,14.58,14.58,0,0,0,3.39-1.62,9.52,9.52,0,0,0,3.4-3.84,8.25,8.25,0,0,0,.12-6.41,13.28,13.28,0,0,0-1.71-3.13,17.14,17.14,0,0,0-1.16-1.42l-.66-.69c-.22-.23-.47-.43-.71-.64l-.36-.32-.39-.3-.78-.58c-.55-.35-1.1-.72-1.7-1s-1.19-.6-1.8-.88-1.25-.52-1.9-.72-1.32-.4-2-.59-1.35-.32-2-.43a32.66,32.66,0,0,0-8.45-.37c-.69,0-1.37.12-2,.21l-1,.12-1,.17a54.92,54.92,0,0,0-7.4,1.74l-.87.26-.84.29-1.64.57c-1.07.43-2.12.8-3.09,1.26l-1.45.65-1.36.68c-.9.44-1.72.93-2.52,1.39A30.67,30.67,0,0,0,98.65,22c-.34.38-.68.68-.91,1l-.6.78-.49.64.59-.55.71-.67a10.92,10.92,0,0,1,1-.84,34.49,34.49,0,0,1,7.2-4.28c.81-.35,1.65-.75,2.55-1.08l1.38-.54,1.44-.49c1-.36,2-.64,3.07-1Z"/></g></g></svg>