<svg xmlns="http://www.w3.org/2000/svg" viewBox="0 0 13.94 11.34"><defs><style>.cls-1{fill:#c7c7c7;}</style></defs><title>twitter</title><g id="Capa_2" data-name="Capa 2"><g id="Capa_1-2" data-name="Capa 1"><g id="m2XDX9"><path class="cls-1" d="M0,10.06A5.76,5.76,0,0,0,4.22,8.87,2.88,2.88,0,0,1,2.57,8.3a2.93,2.93,0,0,1-1-1.42,2.76,2.76,0,0,0,1.28,0,2.8,2.8,0,0,1-1.64-1A2.82,2.82,0,0,1,.55,4a3,3,0,0,0,.62.25,2.53,2.53,0,0,0,.67.1A2.8,2.8,0,0,1,.65,2.6,2.78,2.78,0,0,1,1,.53a8.19,8.19,0,0,0,5.9,3,2.34,2.34,0,0,1,0-.26,2.73,2.73,0,0,1,.3-1.73A2.85,2.85,0,0,1,9.73,0a2.85,2.85,0,0,1,1.8.7l.19.18s0,0,0,0A5.57,5.57,0,0,0,13.5.24l0,0h0a3,3,0,0,1-1.24,1.57,6.57,6.57,0,0,0,1.62-.43,1.77,1.77,0,0,0-.16.22A5.69,5.69,0,0,1,12.55,2.8s0,0,0,.05c0,.32,0,.65,0,1a8.24,8.24,0,0,1-.41,2A8.32,8.32,0,0,1,11,7.89,8.18,8.18,0,0,1,9.79,9.33,7.73,7.73,0,0,1,8,10.52a7.86,7.86,0,0,1-2.12.69,9,9,0,0,1-1.86.12A7.94,7.94,0,0,1,1,10.58a10.18,10.18,0,0,1-.92-.5Z"/></g></g></g></svg>